<?xml version="1.0" encoding="utf-8"?>
<!-- Generator: Adobe Illustrator 24.3.0, SVG Export Plug-In . SVG Version: 6.00 Build 0)  -->
<svg version="1.1" id="Layer_1" xmlns="http://www.w3.org/2000/svg" xmlns:xlink="http://www.w3.org/1999/xlink" x="0px" y="0px"
	 viewBox="0 0 841.89 595.28" style="enable-background:new 0 0 841.89 595.28;" xml:space="preserve">
<style type="text/css">
	.st0{fill-rule:evenodd;clip-rule:evenodd;fill:url(#SVGID_1_);}
	.st1{fill:#0074AE;}
	.st2{fill:#1D99D6;}
	.st3{fill:#27B7EA;}
	.st4{fill:#6ECEF5;}
	.st5{opacity:0.3;}
	.st6{clip-path:url(#SVGID_3_);fill:#2D2A2A;}
	.st7{clip-path:url(#SVGID_3_);fill:#2E2A2B;}
	.st8{clip-path:url(#SVGID_3_);fill:#2F2B2C;}
	.st9{clip-path:url(#SVGID_3_);fill:#302C2D;}
	.st10{clip-path:url(#SVGID_3_);fill:#302D2D;}
	.st11{clip-path:url(#SVGID_3_);fill:#312D2E;}
	.st12{clip-path:url(#SVGID_3_);fill:#322E2F;}
	.st13{clip-path:url(#SVGID_3_);fill:#322F2F;}
	.st14{clip-path:url(#SVGID_3_);fill:#332F30;}
	.st15{clip-path:url(#SVGID_3_);fill:#343031;}
	.st16{clip-path:url(#SVGID_3_);fill:#353132;}
	.st17{clip-path:url(#SVGID_3_);fill:#353232;}
	.st18{clip-path:url(#SVGID_3_);fill:#363233;}
	.st19{clip-path:url(#SVGID_3_);fill:#373434;}
	.st20{clip-path:url(#SVGID_3_);fill:#383435;}
	.st21{clip-path:url(#SVGID_3_);fill:#393536;}
	.st22{clip-path:url(#SVGID_3_);fill:#3A3637;}
	.st23{clip-path:url(#SVGID_3_);fill:#3A3737;}
	.st24{clip-path:url(#SVGID_3_);fill:#3B3738;}
	.st25{clip-path:url(#SVGID_3_);fill:#3C3839;}
	.st26{clip-path:url(#SVGID_3_);fill:#3C3939;}
	.st27{clip-path:url(#SVGID_3_);fill:#3D393A;}
	.st28{clip-path:url(#SVGID_3_);fill:#3E3A3A;}
	.st29{clip-path:url(#SVGID_3_);fill:#3E3B3B;}
	.st30{clip-path:url(#SVGID_3_);fill:#3F3B3C;}
	.st31{clip-path:url(#SVGID_3_);fill:#262323;}
	.st32{clip-path:url(#SVGID_3_);fill:#272324;}
	.st33{clip-path:url(#SVGID_3_);fill:#282425;}
	.st34{clip-path:url(#SVGID_3_);fill:#282525;}
	.st35{clip-path:url(#SVGID_3_);fill:#292526;}
	.st36{clip-path:url(#SVGID_3_);fill:#2A2627;}
	.st37{clip-path:url(#SVGID_3_);fill:#2B2728;}
	.st38{clip-path:url(#SVGID_3_);fill:#2B2828;}
	.st39{clip-path:url(#SVGID_3_);fill:#2C2829;}
	.st40{clip-path:url(#SVGID_3_);fill:#2D292A;}
	.st41{clip-path:url(#SVGID_3_);fill:#494546;}
	.st42{clip-path:url(#SVGID_3_);fill:#4A4647;}
	.st43{clip-path:url(#SVGID_3_);fill:#4A4747;}
	.st44{clip-path:url(#SVGID_3_);fill:#4B4748;}
	.st45{clip-path:url(#SVGID_3_);fill:#434040;}
	.st46{clip-path:url(#SVGID_3_);fill:#444041;}
	.st47{clip-path:url(#SVGID_3_);fill:#454141;}
	.st48{clip-path:url(#SVGID_3_);fill:#454242;}
	.st49{clip-path:url(#SVGID_3_);fill:#464243;}
	.st50{clip-path:url(#SVGID_3_);fill:#474343;}
	.st51{clip-path:url(#SVGID_3_);fill:#474344;}
	.st52{clip-path:url(#SVGID_3_);fill:#484445;}
	.st53{clip-path:url(#SVGID_3_);fill:#484545;}
	.st54{clip-path:url(#SVGID_3_);fill:#433F40;}
	.st55{clip-path:url(#SVGID_3_);fill:#4C4949;}
	.st56{clip-path:url(#SVGID_3_);fill:#4D494A;}
	.st57{clip-path:url(#SVGID_3_);fill:#4E4A4B;}
	.st58{clip-path:url(#SVGID_3_);fill:#4E4B4B;}
	.st59{clip-path:url(#SVGID_3_);fill:#4F4B4C;}
	.st60{clip-path:url(#SVGID_3_);fill:#504C4D;}
	.st61{clip-path:url(#SVGID_3_);fill:#504D4D;}
	.st62{clip-path:url(#SVGID_3_);fill:#514D4E;}
	.st63{clip-path:url(#SVGID_3_);fill:#524E4F;}
	.st64{clip-path:url(#SVGID_3_);fill:#524F4F;}
	.st65{clip-path:url(#SVGID_3_);fill:#231F20;}
	.st66{clip-path:url(#SVGID_3_);fill:#242021;}
	.st67{clip-path:url(#SVGID_3_);fill:#242121;}
	.st68{clip-path:url(#SVGID_3_);fill:#252122;}
	.st69{clip-path:url(#SVGID_3_);fill:#262223;}
	.st70{clip-path:url(#SVGID_3_);fill:#4C4849;}
	.st71{clip-path:url(#SVGID_3_);fill:#919092;}
	.st72{clip-path:url(#SVGID_3_);fill:#929193;}
	.st73{clip-path:url(#SVGID_3_);fill:#939194;}
	.st74{clip-path:url(#SVGID_3_);fill:#939295;}
	.st75{clip-path:url(#SVGID_3_);fill:#949395;}
	.st76{clip-path:url(#SVGID_3_);fill:#959496;}
	.st77{clip-path:url(#SVGID_3_);fill:#969597;}
	.st78{clip-path:url(#SVGID_3_);fill:#979698;}
	.st79{clip-path:url(#SVGID_3_);fill:#989799;}
	.st80{clip-path:url(#SVGID_3_);fill:#99989A;}
	.st81{clip-path:url(#SVGID_3_);fill:#9A999B;}
	.st82{clip-path:url(#SVGID_3_);fill:#9A9A9C;}
	.st83{clip-path:url(#SVGID_3_);fill:#9B9B9D;}
	.st84{clip-path:url(#SVGID_3_);fill:#908F91;}
	.st85{clip-path:url(#SVGID_3_);fill:#9D9D9F;}
	.st86{clip-path:url(#SVGID_3_);fill:#9E9EA0;}
	.st87{clip-path:url(#SVGID_3_);fill:#9F9FA1;}
	.st88{clip-path:url(#SVGID_3_);fill:#A0A0A2;}
	.st89{clip-path:url(#SVGID_3_);fill:#A1A1A3;}
	.st90{clip-path:url(#SVGID_3_);fill:#A1A2A4;}
	.st91{clip-path:url(#SVGID_3_);fill:#A2A3A5;}
	.st92{clip-path:url(#SVGID_3_);fill:#A3A4A6;}
	.st93{clip-path:url(#SVGID_3_);fill:#A4A5A7;}
	.st94{clip-path:url(#SVGID_3_);fill:#A5A6A8;}
	.st95{clip-path:url(#SVGID_3_);fill:#868486;}
	.st96{clip-path:url(#SVGID_3_);fill:#878587;}
	.st97{clip-path:url(#SVGID_3_);fill:#888688;}
	.st98{clip-path:url(#SVGID_3_);fill:#888788;}
	.st99{clip-path:url(#SVGID_3_);fill:#898889;}
	.st100{clip-path:url(#SVGID_3_);fill:#8A888A;}
	.st101{clip-path:url(#SVGID_3_);fill:#8B898B;}
	.st102{clip-path:url(#SVGID_3_);fill:#8C8A8C;}
	.st103{clip-path:url(#SVGID_3_);fill:#8D8B8D;}
	.st104{clip-path:url(#SVGID_3_);fill:#8D8C8E;}
	.st105{clip-path:url(#SVGID_3_);fill:#8E8D8F;}
	.st106{clip-path:url(#SVGID_3_);fill:#8F8E90;}
	.st107{clip-path:url(#SVGID_3_);fill:#534F50;}
	.st108{clip-path:url(#SVGID_3_);fill:#545051;}
	.st109{clip-path:url(#SVGID_3_);fill:#555151;}
	.st110{clip-path:url(#SVGID_3_);fill:#555252;}
	.st111{clip-path:url(#SVGID_3_);fill:#565253;}
	.st112{clip-path:url(#SVGID_3_);fill:#575354;}
	.st113{clip-path:url(#SVGID_3_);fill:#575454;}
	.st114{clip-path:url(#SVGID_3_);fill:#585455;}
	.st115{clip-path:url(#SVGID_3_);fill:#595556;}
	.st116{clip-path:url(#SVGID_3_);fill:#595656;}
	.st117{clip-path:url(#SVGID_3_);fill:#5A5757;}
	.st118{clip-path:url(#SVGID_3_);fill:#A6A7A9;}
	.st119{clip-path:url(#SVGID_3_);fill:#A7A8AA;}
	.st120{clip-path:url(#SVGID_3_);fill:#A8A9AB;}
	.st121{clip-path:url(#SVGID_3_);fill:#A9AAAC;}
	.st122{clip-path:url(#SVGID_3_);fill:#AAABAE;}
	.st123{clip-path:url(#SVGID_3_);fill:#ABACAF;}
	.st124{clip-path:url(#SVGID_3_);fill:#ACADB0;}
	.st125{clip-path:url(#SVGID_3_);fill:#AEAFB2;}
	.st126{clip-path:url(#SVGID_3_);fill:#AFB1B3;}
	.st127{clip-path:url(#SVGID_3_);fill:#828081;}
	.st128{clip-path:url(#SVGID_3_);fill:#838182;}
	.st129{clip-path:url(#SVGID_3_);fill:#838183;}
	.st130{clip-path:url(#SVGID_3_);fill:#848284;}
	.st131{clip-path:url(#SVGID_3_);fill:#858385;}
	.st132{clip-path:url(#SVGID_3_);fill:#615D5E;}
	.st133{clip-path:url(#SVGID_3_);fill:#615E5F;}
	.st134{clip-path:url(#SVGID_3_);fill:#625F5F;}
	.st135{clip-path:url(#SVGID_3_);fill:#635F60;}
	.st136{clip-path:url(#SVGID_3_);fill:#646061;}
	.st137{clip-path:url(#SVGID_3_);fill:#646162;}
	.st138{clip-path:url(#SVGID_3_);fill:#656262;}
	.st139{clip-path:url(#SVGID_3_);fill:#666263;}
	.st140{clip-path:url(#SVGID_3_);fill:#676364;}
	.st141{clip-path:url(#SVGID_3_);fill:#676465;}
	.st142{clip-path:url(#SVGID_3_);fill:#686566;}
	.st143{clip-path:url(#SVGID_3_);fill:#696566;}
	.st144{clip-path:url(#SVGID_3_);fill:#6A6667;}
	.st145{clip-path:url(#SVGID_3_);fill:#6A6768;}
	.st146{clip-path:url(#SVGID_3_);fill:#5B5758;}
	.st147{clip-path:url(#SVGID_3_);fill:#5C5859;}
	.st148{clip-path:url(#SVGID_3_);fill:#5C5959;}
	.st149{clip-path:url(#SVGID_3_);fill:#5D595A;}
	.st150{clip-path:url(#SVGID_3_);fill:#5E5A5B;}
	.st151{clip-path:url(#SVGID_3_);fill:#5E5B5C;}
	.st152{clip-path:url(#SVGID_3_);fill:#5F5C5C;}
	.st153{clip-path:url(#SVGID_3_);fill:#605C5D;}
	.st154{clip-path:url(#SVGID_3_);fill:#797678;}
	.st155{clip-path:url(#SVGID_3_);fill:#7A7779;}
	.st156{clip-path:url(#SVGID_3_);fill:#7B7879;}
	.st157{clip-path:url(#SVGID_3_);fill:#7B797A;}
	.st158{clip-path:url(#SVGID_3_);fill:#7C7A7B;}
	.st159{clip-path:url(#SVGID_3_);fill:#7D7B7C;}
	.st160{clip-path:url(#SVGID_3_);fill:#7E7B7D;}
	.st161{clip-path:url(#SVGID_3_);fill:#7F7C7E;}
	.st162{clip-path:url(#SVGID_3_);fill:#7F7D7F;}
	.st163{clip-path:url(#SVGID_3_);fill:#807E80;}
	.st164{clip-path:url(#SVGID_3_);fill:#817F80;}
	.st165{clip-path:url(#SVGID_3_);fill:#716E6F;}
	.st166{clip-path:url(#SVGID_3_);fill:#726F70;}
	.st167{clip-path:url(#SVGID_3_);fill:#737071;}
	.st168{clip-path:url(#SVGID_3_);fill:#747172;}
	.st169{clip-path:url(#SVGID_3_);fill:#747273;}
	.st170{clip-path:url(#SVGID_3_);fill:#757274;}
	.st171{clip-path:url(#SVGID_3_);fill:#767374;}
	.st172{clip-path:url(#SVGID_3_);fill:#777475;}
	.st173{clip-path:url(#SVGID_3_);fill:#787576;}
	.st174{clip-path:url(#SVGID_3_);fill:#787677;}
	.st175{clip-path:url(#SVGID_3_);fill:#6B6869;}
	.st176{clip-path:url(#SVGID_3_);fill:#6C696A;}
	.st177{clip-path:url(#SVGID_3_);fill:#6D696A;}
	.st178{clip-path:url(#SVGID_3_);fill:#6D6A6B;}
	.st179{clip-path:url(#SVGID_3_);fill:#6E6B6C;}
	.st180{clip-path:url(#SVGID_3_);fill:#6F6C6D;}
	.st181{clip-path:url(#SVGID_3_);fill:#706D6E;}
	.st182{clip-path:url(#SVGID_3_);fill:#706D6F;}
	.st183{clip-path:url(#SVGID_3_);fill:#9C9C9E;}
	.st184{fill:#010101;}
	.st185{fill-rule:evenodd;clip-rule:evenodd;fill:#0F72A3;}
	.st186{fill:#FFFFFF;}
	.st187{font-family:'Poppins-Medium';}
	.st188{font-size:18px;}
</style>
<radialGradient id="SVGID_1_" cx="144" cy="101.75" r="144.8455" gradientTransform="matrix(2.9232 0 0 3.1799 0 -25.9158)" gradientUnits="userSpaceOnUse">
	<stop  offset="0" style="stop-color:#FFFFFF"/>
	<stop  offset="1" style="stop-color:#D2D3D4"/>
</radialGradient>
<polygon class="st0" points="0,0 841.89,0 841.89,595.12 841.89,595.28 0,595.28 0,594.58 "/>
<g>
	<g id="Image_3_">
		<g>
			<g>
				<g>
					<path class="st1" d="M309.38,281.15c-0.58-0.07-0.99-0.59-0.92-1.17c0.07-0.57,0.6-0.98,1.17-0.91
						c0.58,0.07,0.98,0.59,0.92,1.17C310.47,280.8,309.95,281.21,309.38,281.15z"/>
				</g>
				<g>
					<path class="st1" d="M293.58,277.26c-1.29-0.16-2.21-1.33-2.05-2.62c0.16-1.29,1.33-2.21,2.63-2.06
						c1.3,0.16,2.21,1.33,2.06,2.63C296.05,276.5,294.87,277.42,293.58,277.26z"/>
				</g>
				<g>
					<path class="st1" d="M279.18,269.69c-1.8-0.22-3.09-1.86-2.87-3.67c0.22-1.81,1.87-3.09,3.67-2.87
						c1.81,0.22,3.09,1.86,2.87,3.66C282.63,268.63,280.99,269.91,279.18,269.69z"/>
				</g>
				<g>
					<path class="st1" d="M267.02,258.89c-2.2-0.27-3.77-2.27-3.5-4.47c0.26-2.21,2.27-3.77,4.47-3.51c2.2,0.27,3.77,2.27,3.5,4.48
						C271.23,257.59,269.23,259.16,267.02,258.89z"/>
				</g>
				<g>
					<path class="st1" d="M257.79,245.5c-2.48-0.3-4.24-2.55-3.94-5.03c0.3-2.48,2.55-4.24,5.03-3.94c2.48,0.3,4.24,2.55,3.94,5.03
						C262.51,244.04,260.26,245.81,257.79,245.5z"/>
				</g>
				<g>
					<path class="st1" d="M252.01,230.3c-2.66-0.32-4.55-2.74-4.23-5.4c0.32-2.66,2.74-4.55,5.4-4.23c2.66,0.32,4.55,2.74,4.23,5.4
						C257.08,228.73,254.67,230.62,252.01,230.3z"/>
				</g>
				<g>
					<path class="st1" d="M250.06,214.14c-2.74-0.33-4.7-2.82-4.36-5.57c0.34-2.74,2.83-4.7,5.57-4.36
						c2.74,0.34,4.69,2.83,4.36,5.57C255.29,212.52,252.8,214.48,250.06,214.14z"/>
				</g>
				<g>
					<path class="st1" d="M252.02,198.02c-2.76-0.33-4.73-2.84-4.39-5.6c0.33-2.75,2.84-4.72,5.6-4.38c2.76,0.33,4.72,2.84,4.38,5.6
						C257.28,196.4,254.78,198.36,252.02,198.02z"/>
				</g>
				<g>
					<path class="st1" d="M257.77,182.87c-2.7-0.33-4.63-2.78-4.3-5.49c0.33-2.7,2.79-4.63,5.49-4.3c2.7,0.33,4.63,2.78,4.3,5.48
						C262.93,181.28,260.47,183.2,257.77,182.87z"/>
				</g>
				<g>
					<path class="st1" d="M267.01,169.57c-2.55-0.31-4.37-2.63-4.06-5.18c0.31-2.55,2.63-4.37,5.18-4.06
						c2.55,0.31,4.37,2.63,4.06,5.18C271.88,168.06,269.56,169.87,267.01,169.57z"/>
				</g>
				<g>
					<path class="st1" d="M279.18,158.85c-2.31-0.28-3.95-2.38-3.67-4.69c0.28-2.31,2.38-3.95,4.69-3.67
						c2.31,0.28,3.95,2.38,3.67,4.68C283.59,157.49,281.49,159.13,279.18,158.85z"/>
				</g>
				<g>
					<path class="st1" d="M293.57,151.34c-1.94-0.23-3.33-2-3.09-3.95c0.24-1.94,2-3.33,3.95-3.09c1.94,0.23,3.33,2,3.09,3.95
						C297.28,150.2,295.51,151.58,293.57,151.34z"/>
				</g>
				<g>
					<path class="st1" d="M309.35,147.52c-1.47-0.18-2.51-1.51-2.33-2.97c0.17-1.47,1.51-2.51,2.97-2.33
						c1.46,0.18,2.51,1.51,2.33,2.97C312.15,146.65,310.82,147.7,309.35,147.52z"/>
				</g>
				<g>
					<path class="st1" d="M325.61,147.6c-0.78-0.1-1.34-0.81-1.24-1.59c0.09-0.78,0.8-1.34,1.59-1.24c0.78,0.09,1.34,0.81,1.24,1.59
						C327.1,147.14,326.39,147.69,325.61,147.6z"/>
				</g>
			</g>
			<g>
				<g>
					<path class="st2" d="M269.21,274.52c-0.54-0.34-0.71-1.06-0.37-1.6c0.34-0.55,1.06-0.71,1.61-0.37
						c0.54,0.34,0.71,1.06,0.37,1.61C270.47,274.69,269.75,274.86,269.21,274.52z"/>
				</g>
				<g>
					<path class="st2" d="M255.13,263.19c-1.23-0.77-1.6-2.38-0.84-3.61c0.77-1.23,2.38-1.6,3.61-0.84c1.23,0.76,1.6,2.38,0.84,3.61
						C257.98,263.58,256.36,263.95,255.13,263.19z"/>
				</g>
				<g>
					<path class="st2" d="M244.18,248.81c-1.72-1.07-2.24-3.32-1.17-5.04c1.07-1.72,3.33-2.24,5.04-1.17
						c1.71,1.07,2.24,3.32,1.17,5.04C248.16,249.35,245.9,249.88,244.18,248.81z"/>
				</g>
				<g>
					<path class="st2" d="M237.01,232.22c-2.09-1.31-2.73-4.06-1.43-6.15c1.31-2.09,4.06-2.73,6.15-1.43
						c2.09,1.31,2.73,4.06,1.43,6.15C241.86,232.89,239.11,233.53,237.01,232.22z"/>
				</g>
				<g>
					<path class="st2" d="M233.99,214.4c-2.35-1.47-3.07-4.56-1.61-6.92c1.47-2.35,4.56-3.07,6.91-1.6
						c2.35,1.47,3.08,4.56,1.61,6.92C239.44,215.15,236.35,215.87,233.99,214.4z"/>
				</g>
				<g>
					<path class="st2" d="M235.32,196.37c-2.53-1.57-3.3-4.9-1.72-7.42c1.57-2.53,4.89-3.3,7.42-1.72c2.53,1.57,3.3,4.9,1.72,7.43
						C241.16,197.18,237.84,197.95,235.32,196.37z"/>
				</g>
				<g>
					<path class="st2" d="M240.94,179.19c-2.61-1.62-3.4-5.05-1.78-7.65c1.62-2.6,5.05-3.4,7.65-1.78c2.61,1.62,3.4,5.05,1.78,7.65
						C246.97,180.02,243.55,180.82,240.94,179.19z"/>
				</g>
				<g>
					<path class="st2" d="M250.48,163.88c-2.62-1.63-3.42-5.08-1.79-7.7c1.63-2.62,5.08-3.42,7.7-1.79c2.62,1.63,3.42,5.08,1.78,7.7
						C256.55,164.71,253.1,165.52,250.48,163.88z"/>
				</g>
				<g>
					<path class="st2" d="M263.39,151.33c-2.57-1.6-3.35-4.98-1.75-7.55c1.6-2.57,4.98-3.35,7.55-1.75c2.57,1.6,3.35,4.98,1.75,7.55
						C269.33,152.14,265.96,152.93,263.39,151.33z"/>
				</g>
				<g>
					<path class="st2" d="M278.94,142.26c-2.42-1.51-3.16-4.7-1.65-7.12c1.51-2.42,4.7-3.16,7.12-1.65c2.42,1.51,3.16,4.7,1.66,7.12
						C284.56,143.03,281.37,143.77,278.94,142.26z"/>
				</g>
				<g>
					<path class="st2" d="M296.23,137.19c-2.19-1.37-2.86-4.25-1.5-6.45c1.37-2.19,4.25-2.86,6.44-1.49
						c2.19,1.37,2.86,4.25,1.5,6.44C301.31,137.88,298.42,138.55,296.23,137.19z"/>
				</g>
				<g>
					<path class="st2" d="M314.24,136.39c-1.85-1.15-2.41-3.58-1.26-5.43c1.15-1.85,3.58-2.41,5.42-1.26
						c1.85,1.15,2.41,3.58,1.26,5.42C318.52,136.97,316.09,137.54,314.24,136.39z"/>
				</g>
				<g>
					<path class="st2" d="M331.93,139.94c-1.39-0.87-1.81-2.7-0.95-4.09c0.86-1.39,2.7-1.82,4.09-0.95c1.39,0.87,1.82,2.7,0.95,4.09
						C335.15,140.38,333.33,140.81,331.93,139.94z"/>
				</g>
				<g>
					<path class="st2" d="M348.27,147.66c-0.74-0.46-0.97-1.44-0.51-2.18c0.46-0.74,1.44-0.97,2.19-0.51
						c0.74,0.46,0.97,1.44,0.51,2.18C349.98,147.89,349.01,148.12,348.27,147.66z"/>
				</g>
			</g>
			<g>
				<g>
					<path class="st3" d="M231.87,248.98c-0.39-0.6-0.22-1.4,0.38-1.79c0.6-0.39,1.4-0.22,1.79,0.38c0.39,0.6,0.22,1.4-0.38,1.79
						C233.07,249.75,232.27,249.58,231.87,248.98z"/>
				</g>
				<g>
					<path class="st3" d="M223.02,230.97c-0.88-1.35-0.5-3.15,0.85-4.03c1.35-0.88,3.15-0.5,4.03,0.85c0.88,1.35,0.5,3.15-0.85,4.03
						C225.7,232.69,223.89,232.31,223.02,230.97z"/>
				</g>
				<g>
					<path class="st3" d="M218.75,211.34c-1.23-1.88-0.69-4.4,1.19-5.63c1.88-1.23,4.4-0.69,5.63,1.19c1.23,1.88,0.69,4.4-1.19,5.62
						C222.49,213.76,219.97,213.23,218.75,211.34z"/>
				</g>
				<g>
					<path class="st3" d="M219.31,191.27c-1.5-2.29-0.85-5.37,1.45-6.87c2.29-1.49,5.37-0.84,6.87,1.45
						c1.49,2.29,0.85,5.37-1.45,6.86C223.88,194.22,220.81,193.57,219.31,191.27z"/>
				</g>
				<g>
					<path class="st3" d="M224.64,171.91c-1.68-2.58-0.95-6.04,1.63-7.72c2.58-1.68,6.04-0.95,7.72,1.63
						c1.68,2.58,0.95,6.04-1.63,7.72C229.78,175.22,226.32,174.49,224.64,171.91z"/>
				</g>
				<g>
					<path class="st3" d="M234.44,154.38c-1.81-2.77-1.02-6.48,1.75-8.29c2.77-1.8,6.48-1.02,8.29,1.75
						c1.8,2.77,1.02,6.48-1.75,8.29C239.95,157.93,236.24,157.15,234.44,154.38z"/>
				</g>
				<g>
					<path class="st3" d="M248.17,139.72c-1.86-2.86-1.05-6.68,1.81-8.55c2.86-1.86,6.68-1.05,8.54,1.81
						c1.86,2.86,1.05,6.68-1.81,8.54C253.86,143.38,250.03,142.57,248.17,139.72z"/>
				</g>
				<g>
					<path class="st3" d="M264.97,128.78c-1.87-2.87-1.06-6.72,1.81-8.59c2.88-1.87,6.72-1.06,8.59,1.82
						c1.87,2.87,1.06,6.72-1.81,8.59C270.69,132.46,266.84,131.65,264.97,128.78z"/>
				</g>
				<g>
					<path class="st3" d="M283.86,122.2c-1.83-2.82-1.04-6.59,1.78-8.42c2.82-1.83,6.59-1.04,8.42,1.78
						c1.83,2.82,1.04,6.59-1.78,8.42C289.46,125.81,285.69,125.01,283.86,122.2z"/>
				</g>
				<g>
					<path class="st3" d="M303.78,120.37c-1.73-2.66-0.98-6.22,1.68-7.95c2.66-1.73,6.22-0.98,7.95,1.68
						c1.73,2.66,0.98,6.22-1.68,7.95C309.07,123.78,305.51,123.03,303.78,120.37z"/>
				</g>
				<g>
					<path class="st3" d="M323.57,123.38c-1.57-2.41-0.89-5.63,1.52-7.19c2.41-1.57,5.63-0.89,7.19,1.52
						c1.57,2.4,0.89,5.63-1.52,7.19C328.36,126.47,325.14,125.78,323.57,123.38z"/>
				</g>
				<g>
					<path class="st3" d="M342.09,131.03c-1.32-2.02-0.75-4.73,1.28-6.06c2.02-1.32,4.73-0.75,6.05,1.28
						c1.32,2.02,0.75,4.73-1.28,6.05C346.12,133.63,343.41,133.06,342.09,131.03z"/>
				</g>
				<g>
					<path class="st3" d="M358.23,142.92c-0.99-1.53-0.56-3.57,0.96-4.56c1.53-1,3.57-0.56,4.56,0.96c0.99,1.53,0.56,3.57-0.97,4.56
						C361.27,144.88,359.23,144.44,358.23,142.92z"/>
				</g>
				<g>
					<path class="st3" d="M371.05,158.36c-0.53-0.81-0.3-1.9,0.52-2.43c0.82-0.53,1.91-0.3,2.43,0.51c0.53,0.82,0.3,1.9-0.51,2.44
						C372.68,159.4,371.58,159.17,371.05,158.36z"/>
				</g>
			</g>
			<g>
				<g>
					<path class="st4" d="M206.27,205.74c-0.11-0.79,0.43-1.52,1.22-1.63c0.79-0.11,1.52,0.44,1.63,1.22
						c0.11,0.79-0.44,1.51-1.22,1.62C207.11,207.08,206.38,206.53,206.27,205.74z"/>
				</g>
				<g>
					<path class="st4" d="M205.81,183.44c-0.25-1.77,0.98-3.4,2.75-3.66c1.77-0.25,3.41,0.98,3.66,2.75
						c0.25,1.77-0.98,3.41-2.75,3.66C207.7,186.44,206.06,185.2,205.81,183.44z"/>
				</g>
				<g>
					<path class="st4" d="M210.72,161.67c-0.35-2.47,1.37-4.76,3.84-5.11c2.47-0.35,4.76,1.37,5.1,3.84
						c0.35,2.47-1.36,4.76-3.83,5.11C213.36,165.86,211.07,164.14,210.72,161.67z"/>
				</g>
				<g>
					<path class="st4" d="M220.72,141.73c-0.43-3.02,1.67-5.81,4.68-6.23c3.02-0.43,5.8,1.67,6.23,4.68
						c0.43,3.02-1.67,5.8-4.68,6.23C223.93,146.84,221.14,144.74,220.72,141.73z"/>
				</g>
				<g>
					<path class="st4" d="M235.17,124.73c-0.48-3.39,1.88-6.53,5.27-7.01c3.39-0.48,6.52,1.88,7,5.27c0.48,3.39-1.88,6.53-5.26,7.01
						C238.79,130.48,235.65,128.12,235.17,124.73z"/>
				</g>
				<g>
					<path class="st4" d="M253.27,111.67c-0.52-3.64,2.01-7,5.65-7.52c3.64-0.52,7.01,2.02,7.52,5.65c0.52,3.64-2.02,7.01-5.66,7.52
						C257.16,117.84,253.79,115.31,253.27,111.67z"/>
				</g>
				<g>
					<path class="st4" d="M273.99,103.36c-0.53-3.75,2.07-7.22,5.83-7.75c3.75-0.53,7.22,2.07,7.75,5.83
						c0.53,3.75-2.08,7.22-5.83,7.75C277.99,109.72,274.52,107.11,273.99,103.36z"/>
				</g>
				<g>
					<path class="st4" d="M296.04,100.23c-0.53-3.77,2.09-7.26,5.86-7.8c3.77-0.54,7.26,2.09,7.8,5.86c0.54,3.77-2.09,7.26-5.86,7.8
						C300.07,106.63,296.57,104.01,296.04,100.23z"/>
				</g>
				<g>
					<path class="st4" d="M318.15,102.48c-0.52-3.7,2.05-7.12,5.75-7.65c3.7-0.52,7.12,2.05,7.64,5.75c0.52,3.7-2.05,7.12-5.74,7.64
						C322.1,108.74,318.68,106.17,318.15,102.48z"/>
				</g>
				<g>
					<path class="st4" d="M339.07,109.99c-0.49-3.49,1.93-6.72,5.42-7.22c3.49-0.5,6.72,1.93,7.22,5.42
						c0.49,3.49-1.93,6.72-5.42,7.22C342.8,115.91,339.57,113.48,339.07,109.99z"/>
				</g>
				<g>
					<path class="st4" d="M357.59,122.31c-0.45-3.16,1.75-6.08,4.91-6.53c3.16-0.45,6.08,1.75,6.53,4.91
						c0.44,3.16-1.75,6.08-4.91,6.53C360.96,127.67,358.04,125.47,357.59,122.31z"/>
				</g>
				<g>
					<path class="st4" d="M372.64,138.71c-0.37-2.66,1.47-5.12,4.13-5.49c2.66-0.38,5.12,1.47,5.5,4.13
						c0.38,2.66-1.47,5.12-4.13,5.5C375.48,143.22,373.02,141.37,372.64,138.71z"/>
				</g>
				<g>
					<path class="st4" d="M383.32,158.27c-0.28-2,1.11-3.86,3.11-4.14c2.01-0.28,3.86,1.11,4.14,3.11c0.28,2-1.11,3.86-3.12,4.14
						C385.45,161.66,383.6,160.27,383.32,158.27z"/>
				</g>
				<g>
					<path class="st4" d="M388.98,179.83c-0.15-1.07,0.59-2.06,1.66-2.21c1.07-0.15,2.06,0.59,2.21,1.66
						c0.15,1.07-0.59,2.06-1.66,2.21C390.12,181.65,389.13,180.9,388.98,179.83z"/>
				</g>
			</g>
		</g>
		<g class="st5">
			<g>
				<defs>
					<path id="SVGID_2_" d="M244.31,248.87c-0.04-0.02-0.09-0.04-0.13-0.06c-1.72-1.07-2.24-3.32-1.17-5.04
						c1.07-1.72,3.33-2.24,5.04-1.17c0.24,0.15,0.45,0.32,0.64,0.51c-1.7-0.97-3.86-0.44-4.91,1.23
						C242.86,245.82,243.13,247.69,244.31,248.87z M250.09,229.63c-1.12-1.02-1.74-2.54-1.54-4.15c0.32-2.66,2.74-4.55,5.39-4.23
						c0.7,0.09,1.35,0.33,1.92,0.67c-0.72-0.66-1.64-1.12-2.68-1.24c-2.66-0.32-5.08,1.57-5.4,4.23
						C247.54,226.85,248.51,228.67,250.09,229.63z M255.06,260.16c0.71-1.14,2.16-1.51,3.35-0.93c-0.16-0.17-0.3-0.35-0.51-0.48
						c-1.23-0.77-2.84-0.39-3.61,0.84c-0.76,1.23-0.39,2.84,0.84,3.61c0.08,0.05,0.17,0.06,0.26,0.1
						C254.62,262.44,254.43,261.18,255.06,260.16z M233.02,247.77c0.32-0.21,0.7-0.25,1.04-0.15c-0.01-0.02-0.01-0.03-0.02-0.05
						c-0.39-0.6-1.19-0.77-1.79-0.38c-0.6,0.39-0.77,1.19-0.38,1.79c0.18,0.28,0.45,0.45,0.75,0.53
						C232.27,248.93,232.44,248.15,233.02,247.77z M264.29,255c0.27-2.21,2.27-3.77,4.47-3.51c0.54,0.06,1.04,0.24,1.49,0.49
						c-0.6-0.57-1.37-0.96-2.26-1.07c-2.2-0.27-4.21,1.3-4.47,3.51c-0.2,1.66,0.64,3.21,2.01,3.98
						C264.64,257.56,264.13,256.32,264.29,255z M236.35,226.65c1.29-2.08,4.01-2.71,6.09-1.46c-0.21-0.2-0.45-0.39-0.71-0.55
						c-2.09-1.3-4.84-0.66-6.15,1.43c-1.31,2.09-0.66,4.85,1.43,6.15c0.02,0.01,0.04,0.02,0.06,0.03
						C235.56,230.82,235.21,228.48,236.35,226.65z M234.05,214.43c-1.77-1.6-2.2-4.27-0.89-6.37c1.46-2.33,4.52-3.05,6.86-1.63
						c-0.22-0.2-0.45-0.39-0.71-0.55c-2.35-1.47-5.45-0.75-6.91,1.6c-1.46,2.35-0.75,5.45,1.61,6.92
						C234.01,214.41,234.03,214.42,234.05,214.43z M309.23,280.55c0.07-0.57,0.6-0.98,1.17-0.91c0.01,0,0.02,0.01,0.03,0.01
						c-0.15-0.31-0.43-0.54-0.8-0.59c-0.57-0.07-1.1,0.34-1.17,0.91c-0.07,0.57,0.33,1.07,0.89,1.16
						C309.26,280.96,309.2,280.76,309.23,280.55z M294.43,144.31c-1.94-0.24-3.71,1.15-3.95,3.09c-0.18,1.49,0.59,2.86,1.82,3.54
						c-0.76-0.74-1.19-1.82-1.05-2.96c0.23-1.94,2-3.32,3.94-3.09c0.46,0.06,0.89,0.2,1.27,0.41
						C295.93,144.77,295.23,144.41,294.43,144.31z M305.59,122.11c-0.38-0.34-0.74-0.71-1.04-1.16c-1.73-2.66-0.98-6.22,1.68-7.95
						c1.92-1.25,4.31-1.19,6.14-0.06c-1.89-1.66-4.7-1.96-6.91-0.52c-2.66,1.73-3.41,5.29-1.68,7.95
						C304.26,121.11,304.89,121.68,305.59,122.11z M277.08,266.6c0.22-1.81,1.87-3.09,3.67-2.87c0.41,0.05,0.8,0.18,1.15,0.37
						c-0.5-0.5-1.16-0.86-1.92-0.95c-1.8-0.22-3.45,1.06-3.67,2.87c-0.17,1.39,0.56,2.67,1.72,3.29
						C277.34,268.63,276.96,267.65,277.08,266.6z M269.61,273.49c0.27-0.43,0.76-0.61,1.23-0.52c-0.09-0.17-0.22-0.32-0.39-0.43
						c-0.55-0.34-1.27-0.17-1.61,0.37c-0.34,0.55-0.17,1.27,0.37,1.6c0.12,0.07,0.25,0.12,0.38,0.14
						C269.4,274.3,269.38,273.86,269.61,273.49z M292.3,275.21c0.16-1.29,1.33-2.21,2.62-2.06c0.26,0.03,0.5,0.13,0.72,0.24
						c-0.37-0.43-0.88-0.74-1.49-0.82c-1.29-0.16-2.47,0.76-2.63,2.06c-0.13,1.03,0.45,1.96,1.33,2.38
						C292.44,276.53,292.21,275.89,292.3,275.21z M247.63,192.42c-0.25,2.02,0.75,3.89,2.37,4.89c-1.16-1.06-1.81-2.63-1.6-4.31
						c0.33-2.75,2.84-4.72,5.6-4.38c0.74,0.09,1.41,0.35,2.01,0.71c-0.75-0.68-1.7-1.16-2.78-1.29
						C250.47,187.7,247.97,189.67,247.63,192.42z M248.06,213.44c-1.15-1.06-1.79-2.62-1.59-4.29c0.33-2.74,2.83-4.7,5.57-4.36
						c0.74,0.09,1.4,0.34,2,0.7c-0.74-0.68-1.69-1.15-2.76-1.28c-2.74-0.33-5.23,1.62-5.57,4.36
						C245.46,210.58,246.44,212.45,248.06,213.44z M307.79,145.12c0.18-1.46,1.51-2.51,2.98-2.33c0.31,0.04,0.59,0.14,0.86,0.27
						c-0.41-0.45-0.98-0.77-1.63-0.85c-1.47-0.18-2.8,0.87-2.97,2.33c-0.14,1.15,0.48,2.21,1.47,2.7
						C307.98,146.69,307.69,145.93,307.79,145.12z M256.05,244.92c-1.04-0.95-1.62-2.36-1.43-3.86c0.3-2.48,2.55-4.24,5.03-3.94
						c0.63,0.08,1.22,0.29,1.74,0.59c-0.67-0.62-1.53-1.05-2.51-1.17c-2.48-0.3-4.73,1.46-5.03,3.94
						C253.62,242.32,254.54,244.03,256.05,244.92z M223.79,231.54c-0.88-1.35-0.5-3.15,0.85-4.03c0.91-0.6,2.03-0.6,2.94-0.12
						c-0.94-1.01-2.5-1.24-3.71-0.45c-1.35,0.88-1.73,2.68-0.85,4.03c0.28,0.43,0.66,0.75,1.09,0.98
						C223.99,231.82,223.88,231.69,223.79,231.54z M219.52,211.92c-1.22-1.88-0.69-4.4,1.19-5.63c1.34-0.87,3-0.84,4.28-0.08
						c-1.33-1.3-3.43-1.56-5.05-0.5c-1.88,1.23-2.41,3.74-1.19,5.63c0.35,0.54,0.82,0.96,1.34,1.26
						C219.88,212.4,219.69,212.18,219.52,211.92z M265.2,168.95c-1.07-0.98-1.67-2.44-1.48-3.98c0.31-2.55,2.63-4.37,5.18-4.06
						c0.66,0.08,1.27,0.3,1.81,0.62c-0.69-0.64-1.57-1.08-2.58-1.2c-2.55-0.31-4.87,1.51-5.18,4.06
						C262.72,166.27,263.66,168.03,265.2,168.95z M258.96,173.09c-2.7-0.33-5.16,1.6-5.49,4.3c-0.24,1.98,0.74,3.83,2.34,4.8
						c-1.13-1.04-1.77-2.58-1.57-4.22c0.33-2.7,2.79-4.63,5.49-4.3c0.72,0.09,1.38,0.33,1.96,0.68
						C260.95,173.68,260.02,173.22,258.96,173.09z M233.6,188.95c-1.58,2.52-0.8,5.85,1.72,7.42c0.02,0.01,0.04,0.02,0.06,0.03
						c-1.93-1.71-2.42-4.61-1.01-6.87c1.56-2.51,4.84-3.28,7.36-1.75c-0.22-0.2-0.45-0.39-0.71-0.55
						C238.49,185.65,235.17,186.42,233.6,188.95z M220.76,184.41c-2.3,1.49-2.95,4.57-1.45,6.87c0.42,0.64,0.97,1.14,1.59,1.52
						c-0.31-0.28-0.59-0.58-0.82-0.94c-1.5-2.29-0.85-5.37,1.45-6.86c1.65-1.07,3.69-1.02,5.28-0.07
						C225.17,183.43,222.7,183.15,220.76,184.41z M240.94,179.19c0.02,0.01,0.04,0.02,0.06,0.03c-2.01-1.76-2.53-4.76-1.06-7.1
						c1.61-2.59,5-3.38,7.59-1.81c-0.22-0.19-0.45-0.39-0.71-0.55c-2.6-1.62-6.03-0.83-7.65,1.78
						C237.54,174.14,238.34,177.57,240.94,179.19z M250.48,163.88c0.02,0.01,0.04,0.02,0.06,0.03c-2.03-1.77-2.55-4.79-1.07-7.15
						c1.62-2.6,5.03-3.4,7.64-1.81c-0.22-0.2-0.45-0.39-0.71-0.55c-2.62-1.63-6.07-0.83-7.7,1.79
						C247.06,158.8,247.86,162.25,250.48,163.88z M277.6,158.33c-0.95-0.89-1.49-2.19-1.33-3.59c0.28-2.31,2.38-3.95,4.69-3.67
						c0.57,0.07,1.11,0.25,1.58,0.52c-0.63-0.58-1.43-0.99-2.35-1.1c-2.31-0.28-4.41,1.36-4.69,3.67
						C275.3,155.9,276.18,157.51,277.6,158.33z M261.64,143.78c-1.6,2.57-0.82,5.95,1.75,7.55c0.02,0.01,0.04,0.02,0.06,0.03
						c-1.98-1.74-2.48-4.69-1.04-7c1.59-2.55,4.93-3.34,7.49-1.78c-0.22-0.19-0.45-0.39-0.71-0.55
						C266.61,140.43,263.24,141.21,261.64,143.78z M277.29,135.14c-1.51,2.43-0.77,5.61,1.65,7.12c0.02,0.01,0.04,0.02,0.06,0.03
						c-1.83-1.64-2.29-4.41-0.94-6.57c1.5-2.41,4.65-3.15,7.06-1.68c-0.22-0.2-0.45-0.39-0.71-0.55
						C281.99,131.98,278.8,132.72,277.29,135.14z M264.97,128.78c0.52,0.79,1.18,1.41,1.94,1.87c-0.43-0.37-0.84-0.79-1.17-1.29
						c-1.87-2.87-1.06-6.72,1.82-8.59c2.08-1.36,4.67-1.28,6.65-0.05c-2.04-1.76-5.05-2.07-7.42-0.52
						C263.91,122.06,263.1,125.9,264.97,128.78z M256.28,116.31c-1.16-1.01-2-2.41-2.23-4.06c-0.52-3.63,2.01-7,5.65-7.52
						c1.65-0.23,3.22,0.18,4.52,1.02c-1.41-1.23-3.3-1.88-5.29-1.6c-3.64,0.52-6.17,3.88-5.65,7.52
						C253.56,113.66,254.71,115.3,256.28,116.31z M248.17,139.72c0.51,0.78,1.18,1.4,1.92,1.86c-0.43-0.37-0.83-0.78-1.16-1.28
						c-1.86-2.86-1.05-6.68,1.8-8.55c2.07-1.35,4.65-1.28,6.62-0.05c-2.03-1.75-5.03-2.06-7.39-0.52
						C247.12,133.03,246.31,136.86,248.17,139.72z M285.64,113.77c-2.82,1.84-3.62,5.61-1.78,8.42c0.51,0.77,1.17,1.38,1.9,1.84
						c-0.42-0.37-0.81-0.77-1.13-1.26c-1.83-2.82-1.04-6.59,1.78-8.42c2.04-1.33,4.57-1.26,6.52-0.06
						C290.93,112.56,287.96,112.26,285.64,113.77z M296.23,137.19c0.02,0.01,0.04,0.02,0.06,0.03c-1.61-1.49-1.99-3.96-0.78-5.9
						c1.36-2.17,4.2-2.85,6.39-1.52c-0.21-0.2-0.45-0.39-0.71-0.55c-2.19-1.37-5.08-0.7-6.44,1.49
						C293.37,132.93,294.04,135.82,296.23,137.19z M277.07,108.13c-1.2-1.05-2.07-2.49-2.31-4.19c-0.53-3.75,2.08-7.22,5.83-7.75
						c1.7-0.24,3.33,0.19,4.67,1.05c-1.45-1.26-3.39-1.93-5.44-1.63c-3.75,0.53-6.36,4-5.83,7.75
						C274.28,105.41,275.46,107.09,277.07,108.13z M238,129.07c-1.07-0.94-1.84-2.24-2.05-3.76c-0.48-3.39,1.88-6.53,5.27-7.01
						c1.52-0.22,2.98,0.16,4.18,0.93c-1.31-1.16-3.09-1.77-4.95-1.51c-3.39,0.48-5.75,3.62-5.27,7.01
						C235.44,126.6,236.52,128.13,238,129.07z M207.27,206.9c-0.11-0.17-0.2-0.36-0.23-0.58c-0.11-0.79,0.44-1.52,1.22-1.63
						c0.22-0.03,0.43,0,0.62,0.06c-0.3-0.45-0.83-0.72-1.39-0.64c-0.79,0.11-1.33,0.84-1.22,1.63
						C206.35,206.31,206.75,206.74,207.27,206.9z M207.48,185.82c-0.47-0.48-0.8-1.09-0.9-1.81c-0.25-1.77,0.98-3.4,2.75-3.66
						c0.71-0.1,1.4,0.05,1.99,0.37c-0.7-0.71-1.7-1.09-2.76-0.94c-1.77,0.25-3,1.89-2.75,3.66
						C205.96,184.49,206.61,185.35,207.48,185.82z M299.14,105.03c-1.21-1.05-2.08-2.51-2.33-4.22c-0.53-3.77,2.09-7.26,5.86-7.8
						c1.71-0.24,3.36,0.19,4.7,1.06c-1.45-1.26-3.41-1.93-5.47-1.64c-3.77,0.53-6.4,4.03-5.86,7.8
						C296.33,102.29,297.52,103.98,299.14,105.03z M234.44,154.38c0.5,0.76,1.15,1.36,1.88,1.81c-0.41-0.36-0.79-0.75-1.11-1.23
						c-1.81-2.77-1.02-6.48,1.75-8.29c2.01-1.3,4.5-1.24,6.41-0.06c-1.97-1.71-4.88-2.01-7.18-0.52
						C233.42,147.9,232.63,151.61,234.44,154.38z M212.9,164.9c-0.73-0.68-1.25-1.59-1.4-2.65c-0.35-2.47,1.37-4.76,3.84-5.11
						c1.06-0.15,2.08,0.1,2.93,0.61c-0.96-0.9-2.3-1.39-3.7-1.19c-2.47,0.35-4.19,2.63-3.84,5.11
						C210.92,163.08,211.76,164.23,212.9,164.9z M223.27,145.61c-0.93-0.83-1.6-1.97-1.79-3.31c-0.43-3.02,1.67-5.81,4.68-6.23
						c1.34-0.19,2.61,0.14,3.68,0.8c-1.17-1.05-2.77-1.61-4.45-1.38c-3.01,0.43-5.11,3.22-4.68,6.23
						C220.95,143.41,221.94,144.78,223.27,145.61z M226.4,173.6c-0.37-0.33-0.71-0.68-0.99-1.12c-1.68-2.58-0.95-6.04,1.63-7.72
						c1.87-1.22,4.18-1.15,5.96-0.06c-1.83-1.62-4.58-1.92-6.73-0.52c-2.58,1.68-3.31,5.14-1.63,7.72
						C225.11,172.63,225.72,173.18,226.4,173.6z M321.2,107.18c-1.18-1.03-2.04-2.45-2.28-4.13c-0.52-3.7,2.05-7.12,5.75-7.65
						c1.68-0.24,3.28,0.19,4.6,1.04c-1.43-1.24-3.35-1.9-5.37-1.62c-3.7,0.52-6.27,3.95-5.75,7.65
						C318.44,104.5,319.61,106.16,321.2,107.18z M383.32,158.27c0.17,1.17,0.88,2.13,1.84,2.67c-0.56-0.54-0.95-1.26-1.07-2.09
						c-0.28-2,1.11-3.86,3.11-4.14c0.83-0.12,1.63,0.06,2.3,0.45c-0.79-0.77-1.9-1.19-3.07-1.02
						C384.42,154.41,383.03,156.26,383.32,158.27z M371.82,158.93c-0.53-0.81-0.3-1.9,0.52-2.43c0.5-0.32,1.09-0.33,1.6-0.13
						c-0.55-0.75-1.58-0.96-2.37-0.45c-0.82,0.53-1.04,1.62-0.52,2.43c0.21,0.32,0.51,0.52,0.84,0.64
						C371.87,158.98,371.84,158.96,371.82,158.93z M389.75,180.41c-0.15-1.07,0.59-2.06,1.66-2.21c0.36-0.05,0.7,0.03,1.01,0.16
						c-0.42-0.52-1.07-0.84-1.78-0.74c-1.07,0.15-1.81,1.14-1.66,2.21c0.1,0.71,0.59,1.25,1.2,1.5
						C389.97,181.07,389.8,180.77,389.75,180.41z M348.53,146.05c0.41-0.65,1.2-0.87,1.89-0.62c-0.12-0.18-0.28-0.35-0.47-0.47
						c-0.74-0.46-1.72-0.23-2.19,0.51c-0.46,0.74-0.23,1.72,0.51,2.18c0.09,0.06,0.2,0.07,0.3,0.11
						C348.23,147.27,348.19,146.6,348.53,146.05z M312.99,130.96c-1.15,1.84-0.59,4.27,1.26,5.43c0.03,0.02,0.07,0.03,0.1,0.05
						c-1.3-1.26-1.59-3.3-0.59-4.9c1.13-1.81,3.49-2.38,5.32-1.31c-0.2-0.2-0.42-0.37-0.66-0.53
						C316.56,128.55,314.14,129.12,312.99,130.96z M331.76,136.44c0.83-1.33,2.53-1.76,3.89-1.05c-0.17-0.18-0.36-0.35-0.58-0.48
						c-1.39-0.87-3.22-0.44-4.09,0.95c-0.87,1.39-0.44,3.22,0.95,4.09c0.06,0.04,0.13,0.06,0.2,0.1
						C331.22,139.08,331.03,137.6,331.76,136.44z M324.34,123.96c-1.57-2.41-0.89-5.63,1.52-7.19c1.73-1.13,3.88-1.08,5.53-0.07
						c-1.71-1.54-4.29-1.83-6.31-0.51c-2.4,1.56-3.09,4.78-1.52,7.19c0.44,0.67,1.01,1.19,1.65,1.58
						C324.9,124.67,324.59,124.34,324.34,123.96z M343.52,132.39c-0.24-0.23-0.47-0.48-0.66-0.78c-1.32-2.02-0.74-4.73,1.28-6.05
						c1.45-0.94,3.24-0.9,4.62-0.07c-1.43-1.37-3.66-1.63-5.39-0.51c-2.03,1.32-2.6,4.03-1.28,6.06
						C342.46,131.61,342.96,132.05,343.52,132.39z M325.13,146.59c0.09-0.78,0.8-1.34,1.59-1.24c0.09,0.01,0.16,0.06,0.24,0.08
						c-0.22-0.35-0.57-0.6-1.01-0.66c-0.78-0.1-1.5,0.46-1.59,1.24c-0.08,0.69,0.36,1.3,1,1.51
						C325.19,147.25,325.09,146.93,325.13,146.59z M374.94,142.17c-0.8-0.73-1.37-1.72-1.54-2.88c-0.37-2.66,1.48-5.12,4.13-5.5
						c1.16-0.16,2.26,0.11,3.19,0.68c-1.04-0.95-2.46-1.47-3.96-1.25c-2.66,0.38-4.5,2.84-4.13,5.49
						C372.85,140.22,373.74,141.44,374.94,142.17z M341.97,114.45c-1.1-0.97-1.9-2.31-2.13-3.88c-0.49-3.49,1.93-6.72,5.42-7.22
						c1.57-0.22,3.08,0.17,4.32,0.96c-1.35-1.18-3.17-1.81-5.09-1.54c-3.49,0.49-5.92,3.72-5.42,7.22
						C339.34,111.91,340.46,113.48,341.97,114.45z M359.39,143.98c-0.14-0.15-0.28-0.31-0.4-0.49c-0.99-1.53-0.56-3.57,0.97-4.56
						c1.06-0.69,2.37-0.68,3.4-0.1c-1.08-1.12-2.82-1.35-4.17-0.47c-1.53,0.99-1.96,3.03-0.96,4.56
						C358.54,143.38,358.94,143.73,359.39,143.98z M360.25,126.37c-0.98-0.88-1.69-2.07-1.89-3.48c-0.45-3.16,1.75-6.08,4.91-6.53
						c1.41-0.2,2.75,0.15,3.87,0.85c-1.22-1.09-2.89-1.68-4.64-1.43c-3.16,0.45-5.36,3.37-4.91,6.53
						C357.84,124.07,358.86,125.5,360.25,126.37z"/>
				</defs>
				<clipPath id="SVGID_3_">
					<use xlink:href="#SVGID_2_"  style="overflow:visible;"/>
				</clipPath>
				<polygon class="st6" points="367.13,118.82 366.67,115.54 367.13,115.54 				"/>
				<polygon class="st7" points="367.13,125.97 365.66,115.54 366.67,115.54 367.13,118.82 				"/>
				<polygon class="st8" points="366.18,126.37 364.64,115.54 365.66,115.54 367.13,125.97 367.13,126.37 				"/>
				<polygon class="st8" points="365.17,126.37 363.63,115.54 364.64,115.54 366.18,126.37 				"/>
				<polygon class="st9" points="364.15,126.37 362.62,115.54 363.63,115.54 365.17,126.37 				"/>
				<polygon class="st10" points="363.14,126.37 361.6,115.54 362.62,115.54 364.15,126.37 				"/>
				<polygon class="st11" points="362.13,126.37 360.59,115.54 361.6,115.54 363.14,126.37 				"/>
				<polygon class="st12" points="361.11,126.37 359.58,115.54 360.59,115.54 362.13,126.37 				"/>
				<polygon class="st13" points="360.1,126.37 358.57,115.54 359.58,115.54 361.11,126.37 				"/>
				<polygon class="st14" points="359.09,126.37 357.55,115.54 358.57,115.54 360.1,126.37 				"/>
				<polygon class="st15" points="358.08,126.37 357.14,119.77 357.14,115.54 357.55,115.54 359.09,126.37 				"/>
				<polygon class="st15" points="357.14,119.77 358.08,126.37 357.14,126.37 				"/>
				<polygon class="st12" points="363.37,142.25 362.69,137.48 363.37,137.48 				"/>
				<polygon class="st13" points="362.6,143.98 361.68,137.48 362.69,137.48 363.37,142.25 363.37,143.98 				"/>
				<polygon class="st14" points="361.59,143.98 360.66,137.48 361.68,137.48 362.6,143.98 				"/>
				<polygon class="st15" points="360.57,143.98 359.65,137.48 360.66,137.48 361.59,143.98 				"/>
				<polygon class="st15" points="359.56,143.98 358.64,137.48 359.65,137.48 360.57,143.98 				"/>
				<polygon class="st16" points="358.55,143.98 357.63,137.48 358.64,137.48 359.56,143.98 				"/>
				<polygon class="st17" points="357.54,143.98 357.24,141.9 357.24,137.48 357.63,137.48 358.55,143.98 				"/>
				<polygon class="st18" points="357.24,141.9 357.54,143.98 357.24,143.98 				"/>
				<polygon class="st19" points="349.59,109.35 348.62,102.51 349.59,102.51 				"/>
				<polygon class="st20" points="349.3,114.45 347.6,102.51 348.62,102.51 349.59,109.35 349.59,114.45 				"/>
				<polygon class="st21" points="348.28,114.45 346.59,102.51 347.6,102.51 349.3,114.45 				"/>
				<polygon class="st21" points="347.27,114.45 345.58,102.51 346.59,102.51 348.28,114.45 				"/>
				<polygon class="st22" points="346.26,114.45 344.56,102.51 345.58,102.51 347.27,114.45 				"/>
				<polygon class="st23" points="345.25,114.45 343.55,102.51 344.56,102.51 346.26,114.45 				"/>
				<polygon class="st24" points="344.23,114.45 342.54,102.51 343.55,102.51 345.25,114.45 				"/>
				<polygon class="st25" points="343.22,114.45 341.53,102.51 342.54,102.51 344.23,114.45 				"/>
				<polygon class="st26" points="342.21,114.45 340.51,102.51 341.53,102.51 343.22,114.45 				"/>
				<polygon class="st27" points="341.19,114.45 339.5,102.51 340.51,102.51 342.21,114.45 				"/>
				<polygon class="st28" points="340.18,114.45 338.58,103.14 338.58,102.51 339.5,102.51 341.19,114.45 				"/>
				<polygon class="st29" points="339.17,114.45 338.58,110.28 338.58,103.14 340.18,114.45 				"/>
				<polygon class="st30" points="338.58,110.28 339.17,114.45 338.58,114.45 				"/>
				<polygon class="st31" points="380.73,136.16 380.29,133.01 380.73,133.01 				"/>
				<polygon class="st32" points="380.57,142.17 379.27,133.01 380.29,133.01 380.73,136.16 380.73,142.17 				"/>
				<polygon class="st33" points="379.56,142.17 378.26,133.01 379.27,133.01 380.57,142.17 				"/>
				<polygon class="st34" points="378.55,142.17 377.25,133.01 378.26,133.01 379.56,142.17 				"/>
				<polygon class="st35" points="377.53,142.17 376.23,133.01 377.25,133.01 378.55,142.17 				"/>
				<polygon class="st36" points="376.52,142.17 375.22,133.01 376.23,133.01 377.53,142.17 				"/>
				<polygon class="st36" points="375.51,142.17 374.21,133.01 375.22,133.01 376.52,142.17 				"/>
				<polygon class="st37" points="374.5,142.17 373.2,133.01 374.21,133.01 375.51,142.17 				"/>
				<polygon class="st38" points="373.48,142.17 372.27,133.59 372.27,133.01 373.2,133.01 374.5,142.17 				"/>
				<polygon class="st39" points="372.47,142.17 372.27,140.73 372.27,133.59 373.48,142.17 				"/>
				<polygon class="st40" points="372.27,140.73 372.47,142.17 372.27,142.17 				"/>
				<polygon class="st41" points="326.64,147.52 326.24,144.67 326.97,144.67 326.97,147.52 				"/>
				<polygon class="st42" points="325.63,147.52 325.22,144.67 326.24,144.67 326.64,147.52 				"/>
				<polygon class="st43" points="324.61,147.52 324.28,145.18 324.28,144.67 325.22,144.67 325.63,147.52 				"/>
				<polygon class="st44" points="324.28,145.18 324.61,147.52 324.28,147.52 				"/>
				<polygon class="st21" points="348.76,124.97 348.6,123.85 348.76,123.85 				"/>
				<polygon class="st22" points="348.76,132.11 347.59,123.85 348.6,123.85 348.76,124.97 				"/>
				<polygon class="st23" points="347.79,132.39 346.58,123.85 347.59,123.85 348.76,132.11 348.76,132.39 				"/>
				<polygon class="st24" points="346.78,132.39 345.56,123.85 346.58,123.85 347.79,132.39 				"/>
				<polygon class="st25" points="345.76,132.39 344.55,123.85 345.56,123.85 346.78,132.39 				"/>
				<polygon class="st26" points="344.75,132.39 343.54,123.85 344.55,123.85 345.76,132.39 				"/>
				<polygon class="st27" points="343.74,132.39 342.53,123.85 343.54,123.85 344.75,132.39 				"/>
				<polygon class="st28" points="342.72,132.39 341.51,123.85 342.53,123.85 343.74,132.39 				"/>
				<polygon class="st29" points="341.71,132.39 340.77,125.74 340.77,123.85 341.51,123.85 342.72,132.39 				"/>
				<polygon class="st30" points="340.77,125.74 341.71,132.39 340.77,132.39 				"/>
				<polygon class="st45" points="331.4,116.79 331.13,114.87 331.4,114.87 				"/>
				<polygon class="st46" points="331.4,123.94 330.11,114.87 331.13,114.87 331.4,116.79 				"/>
				<polygon class="st47" points="330.53,124.96 329.1,114.87 330.11,114.87 331.4,123.94 331.4,124.96 				"/>
				<polygon class="st48" points="329.52,124.96 328.09,114.87 329.1,114.87 330.53,124.96 				"/>
				<polygon class="st49" points="328.51,124.96 327.07,114.87 328.09,114.87 329.52,124.96 				"/>
				<polygon class="st50" points="327.49,124.96 326.06,114.87 327.07,114.87 328.51,124.96 				"/>
				<polygon class="st51" points="326.48,124.96 325.05,114.87 326.06,114.87 327.49,124.96 				"/>
				<polygon class="st52" points="325.47,124.96 324.04,114.87 325.05,114.87 326.48,124.96 				"/>
				<polygon class="st53" points="324.45,124.96 323.02,114.87 324.04,114.87 325.47,124.96 				"/>
				<polygon class="st41" points="323.44,124.96 322.01,114.87 323.02,114.87 324.45,124.96 				"/>
				<polygon class="st42" points="322.43,124.96 322.01,121.99 322.01,114.87 322.01,114.87 323.44,124.96 				"/>
				<polygon class="st43" points="322.01,121.99 322.43,124.96 322.01,124.96 				"/>
				<polygon class="st54" points="335.65,139.63 334.86,134.04 335.65,134.04 				"/>
				<polygon class="st45" points="334.69,140.04 333.84,134.04 334.86,134.04 335.65,139.63 335.65,140.04 				"/>
				<polygon class="st46" points="333.68,140.04 332.83,134.04 333.84,134.04 334.69,140.04 				"/>
				<polygon class="st47" points="332.67,140.04 331.82,134.04 332.83,134.04 333.68,140.04 				"/>
				<polygon class="st48" points="331.66,140.04 330.81,134.04 331.82,134.04 332.67,140.04 				"/>
				<polygon class="st49" points="330.64,140.04 330.12,136.34 330.12,134.04 330.81,134.04 331.66,140.04 				"/>
				<polygon class="st50" points="330.12,136.34 330.64,140.04 330.12,140.04 				"/>
				<polygon class="st55" points="319.07,129.87 318.89,128.55 319.07,128.55 				"/>
				<polygon class="st56" points="318.99,136.44 317.87,128.55 318.89,128.55 319.07,129.87 319.07,136.44 				"/>
				<polygon class="st57" points="317.98,136.44 316.86,128.55 317.87,128.55 318.99,136.44 				"/>
				<polygon class="st58" points="316.97,136.44 315.85,128.55 316.86,128.55 317.98,136.44 				"/>
				<polygon class="st59" points="315.95,136.44 314.84,128.55 315.85,128.55 316.97,136.44 				"/>
				<polygon class="st60" points="314.94,136.44 313.82,128.55 314.84,128.55 315.95,136.44 				"/>
				<polygon class="st61" points="313.93,136.44 312.81,128.55 313.82,128.55 314.94,136.44 				"/>
				<polygon class="st62" points="312.91,136.44 311.84,128.83 311.84,128.55 312.81,128.55 313.93,136.44 				"/>
				<polygon class="st63" points="311.9,136.44 311.84,135.97 311.84,128.83 312.91,136.44 				"/>
				<polygon class="st64" points="311.84,135.97 311.9,136.44 311.84,136.44 				"/>
				<polygon class="st23" points="349.97,147.77 349.51,144.51 350.42,144.51 350.42,147.77 				"/>
				<polygon class="st24" points="348.96,147.77 348.49,144.51 349.51,144.51 349.97,147.77 				"/>
				<polygon class="st25" points="347.94,147.77 347.48,144.51 348.49,144.51 348.96,147.77 				"/>
				<polygon class="st26" points="347.48,144.51 347.94,147.77 347.3,147.77 347.3,144.51 				"/>
				<polygon class="st65" points="392.2,181.34 391.66,177.52 392.42,177.52 392.42,181.34 				"/>
				<polygon class="st66" points="391.19,181.34 390.65,177.52 391.66,177.52 392.2,181.34 				"/>
				<polygon class="st67" points="390.18,181.34 389.64,177.52 390.65,177.52 391.19,181.34 				"/>
				<polygon class="st68" points="389.16,181.34 388.83,178.97 388.83,177.52 389.64,177.52 390.18,181.34 				"/>
				<polygon class="st69" points="388.83,178.97 389.16,181.34 388.83,181.34 				"/>
				<polygon class="st40" points="373.84,159 373.33,155.41 373.94,155.41 373.94,159 				"/>
				<polygon class="st6" points="372.83,159 372.32,155.41 373.33,155.41 373.84,159 				"/>
				<polygon class="st7" points="371.82,159 371.31,155.41 372.32,155.41 372.83,159 				"/>
				<polygon class="st8" points="370.81,159 370.53,157.03 370.53,155.41 371.31,155.41 371.82,159 				"/>
				<polygon class="st8" points="370.53,157.03 370.81,159 370.53,159 				"/>
				<polygon class="st65" points="389.5,155.15 389.33,153.96 389.5,153.96 				"/>
				<polygon class="st65" points="389.31,160.93 388.32,153.96 389.33,153.96 389.5,155.15 389.5,160.93 				"/>
				<polygon class="st66" points="388.3,160.93 387.31,153.96 388.32,153.96 389.31,160.93 				"/>
				<polygon class="st67" points="387.28,160.93 386.29,153.96 387.31,153.96 388.3,160.93 				"/>
				<polygon class="st68" points="386.27,160.93 385.28,153.96 386.29,153.96 387.28,160.93 				"/>
				<polygon class="st69" points="385.26,160.93 384.27,153.96 385.28,153.96 386.27,160.93 				"/>
				<polygon class="st31" points="384.25,160.93 383.26,153.96 384.27,153.96 385.26,160.93 				"/>
				<polygon class="st32" points="383.23,160.93 383.03,159.51 383.03,153.96 383.26,153.96 384.25,160.93 				"/>
				<polygon class="st33" points="383.03,159.51 383.23,160.93 383.03,160.93 				"/>
				<polygon class="st54" points="329.27,94.64 329.26,94.54 329.27,94.54 				"/>
				<polygon class="st45" points="329.27,101.78 328.24,94.54 329.26,94.54 329.27,94.64 				"/>
				<polygon class="st46" points="329.02,107.18 327.23,94.54 328.24,94.54 329.27,101.78 329.27,107.18 				"/>
				<polygon class="st47" points="328.01,107.18 326.22,94.54 327.23,94.54 329.02,107.18 				"/>
				<polygon class="st48" points="327,107.18 325.21,94.54 326.22,94.54 328.01,107.18 				"/>
				<polygon class="st49" points="325.98,107.18 324.19,94.54 325.21,94.54 327,107.18 				"/>
				<polygon class="st50" points="324.97,107.18 323.18,94.54 324.19,94.54 325.98,107.18 				"/>
				<polygon class="st51" points="323.96,107.18 322.17,94.54 323.18,94.54 324.97,107.18 				"/>
				<polygon class="st52" points="322.95,107.18 321.15,94.54 322.17,94.54 323.96,107.18 				"/>
				<polygon class="st53" points="321.93,107.18 320.14,94.54 321.15,94.54 322.95,107.18 				"/>
				<polygon class="st41" points="320.92,107.18 319.13,94.54 320.14,94.54 321.93,107.18 				"/>
				<polygon class="st42" points="319.91,107.18 318.12,94.54 319.13,94.54 320.92,107.18 				"/>
				<polygon class="st43" points="318.89,107.18 317.63,98.25 317.63,94.54 318.12,94.54 319.91,107.18 				"/>
				<polygon class="st44" points="317.88,107.18 317.63,105.4 317.63,98.25 318.89,107.18 				"/>
				<polygon class="st70" points="317.63,105.4 317.88,107.18 317.63,107.18 				"/>
				<polygon class="st71" points="233,165.66 232.59,162.79 233,162.79 				"/>
				<polygon class="st72" points="233,172.81 231.58,162.79 232.59,162.79 233,165.66 				"/>
				<polygon class="st73" points="232.1,173.6 230.56,162.79 231.58,162.79 233,172.81 233,173.6 				"/>
				<polygon class="st74" points="231.08,173.6 229.55,162.79 230.56,162.79 232.1,173.6 				"/>
				<polygon class="st75" points="230.07,173.6 228.54,162.79 229.55,162.79 231.08,173.6 				"/>
				<polygon class="st76" points="229.06,173.6 227.52,162.79 228.54,162.79 230.07,173.6 				"/>
				<polygon class="st77" points="228.05,173.6 226.51,162.79 227.52,162.79 229.06,173.6 				"/>
				<polygon class="st78" points="227.03,173.6 225.5,162.79 226.51,162.79 228.05,173.6 				"/>
				<polygon class="st79" points="226.02,173.6 224.49,162.79 225.5,162.79 227.03,173.6 				"/>
				<polygon class="st80" points="225.01,173.6 223.47,162.79 224.49,162.79 226.02,173.6 				"/>
				<polygon class="st81" points="223.99,173.6 222.96,166.3 222.96,162.79 223.47,162.79 225.01,173.6 				"/>
				<polygon class="st82" points="222.98,173.6 222.96,173.45 222.96,166.3 223.99,173.6 				"/>
				<polygon class="st83" points="222.96,173.45 222.98,173.6 222.96,173.6 				"/>
				<polygon class="st84" points="229.84,136.29 229.7,135.26 229.84,135.26 				"/>
				<polygon class="st71" points="229.84,143.44 228.68,135.26 229.7,135.26 229.84,136.29 				"/>
				<polygon class="st72" points="229.14,145.61 227.67,135.26 228.68,135.26 229.84,143.44 229.84,145.61 				"/>
				<polygon class="st73" points="228.13,145.61 226.66,135.26 227.67,135.26 229.14,145.61 				"/>
				<polygon class="st74" points="227.11,145.61 225.65,135.26 226.66,135.26 228.13,145.61 				"/>
				<polygon class="st75" points="226.1,145.61 224.63,135.26 225.65,135.26 227.11,145.61 				"/>
				<polygon class="st76" points="225.09,145.61 223.62,135.26 224.63,135.26 226.1,145.61 				"/>
				<polygon class="st77" points="224.08,145.61 222.61,135.26 223.62,135.26 225.09,145.61 				"/>
				<polygon class="st78" points="223.06,145.61 221.6,135.26 222.61,135.26 224.08,145.61 				"/>
				<polygon class="st79" points="222.05,145.61 220.58,135.26 221.6,135.26 223.06,145.61 				"/>
				<polygon class="st80" points="221.04,145.61 220.29,140.32 220.29,135.26 220.58,135.26 222.05,145.61 				"/>
				<polygon class="st81" points="220.29,140.32 221.04,145.61 220.29,145.61 				"/>
				<polygon class="st85" points="218.27,161.78 217.5,156.37 218.27,156.37 				"/>
				<polygon class="st86" points="217.7,164.9 216.49,156.37 217.5,156.37 218.27,161.78 218.27,164.9 				"/>
				<polygon class="st87" points="216.68,164.9 215.47,156.37 216.49,156.37 217.7,164.9 				"/>
				<polygon class="st88" points="215.67,164.9 214.46,156.37 215.47,156.37 216.68,164.9 				"/>
				<polygon class="st89" points="214.66,164.9 213.45,156.37 214.46,156.37 215.67,164.9 				"/>
				<polygon class="st90" points="213.64,164.9 212.43,156.37 213.45,156.37 214.66,164.9 				"/>
				<polygon class="st91" points="212.63,164.9 211.42,156.37 212.43,156.37 213.64,164.9 				"/>
				<polygon class="st92" points="211.62,164.9 210.41,156.37 211.42,156.37 212.63,164.9 				"/>
				<polygon class="st93" points="210.61,164.9 210.37,163.26 210.37,156.37 210.41,156.37 211.62,164.9 				"/>
				<polygon class="st94" points="210.37,163.26 210.61,164.9 210.37,164.9 				"/>
				<polygon class="st95" points="243.37,145.95 243.18,144.6 243.37,144.6 				"/>
				<polygon class="st96" points="243.37,153.1 242.16,144.6 243.18,144.6 243.37,145.95 				"/>
				<polygon class="st97" points="242.79,156.19 241.15,144.6 242.16,144.6 243.37,153.1 243.37,156.19 				"/>
				<polygon class="st98" points="241.78,156.19 240.14,144.6 241.15,144.6 242.79,156.19 				"/>
				<polygon class="st99" points="240.77,156.19 239.12,144.6 240.14,144.6 241.78,156.19 				"/>
				<polygon class="st100" points="239.75,156.19 238.11,144.6 239.12,144.6 240.77,156.19 				"/>
				<polygon class="st101" points="238.74,156.19 237.1,144.6 238.11,144.6 239.75,156.19 				"/>
				<polygon class="st102" points="237.73,156.19 236.09,144.6 237.1,144.6 238.74,156.19 				"/>
				<polygon class="st103" points="236.72,156.19 235.07,144.6 236.09,144.6 237.73,156.19 				"/>
				<polygon class="st104" points="235.7,156.19 234.06,144.6 235.07,144.6 236.72,156.19 				"/>
				<polygon class="st105" points="234.69,156.19 233.05,144.6 234.06,144.6 235.7,156.19 				"/>
				<polygon class="st106" points="233.68,156.19 232.63,148.81 232.63,144.6 233.05,144.6 234.69,156.19 				"/>
				<polygon class="st84" points="232.67,156.19 232.63,155.95 232.63,148.81 233.68,156.19 				"/>
				<polygon class="st71" points="232.63,155.95 232.67,156.19 232.63,156.19 				"/>
				<polygon class="st62" points="307.37,97.33 306.63,92.14 307.37,92.14 				"/>
				<polygon class="st63" points="307.37,104.47 305.62,92.14 306.63,92.14 307.37,97.33 				"/>
				<polygon class="st64" points="306.44,105.03 304.61,92.14 305.62,92.14 307.37,104.47 307.37,105.03 				"/>
				<polygon class="st107" points="305.42,105.03 303.6,92.14 304.61,92.14 306.44,105.03 				"/>
				<polygon class="st108" points="304.41,105.03 302.58,92.14 303.6,92.14 305.42,105.03 				"/>
				<polygon class="st109" points="303.4,105.03 301.57,92.14 302.58,92.14 304.41,105.03 				"/>
				<polygon class="st110" points="302.38,105.03 300.56,92.14 301.57,92.14 303.4,105.03 				"/>
				<polygon class="st111" points="301.37,105.03 299.54,92.14 300.56,92.14 302.38,105.03 				"/>
				<polygon class="st112" points="300.36,105.03 298.53,92.14 299.54,92.14 301.37,105.03 				"/>
				<polygon class="st113" points="299.35,105.03 297.52,92.14 298.53,92.14 300.36,105.03 				"/>
				<polygon class="st114" points="298.33,105.03 296.51,92.14 297.52,92.14 299.35,105.03 				"/>
				<polygon class="st115" points="297.32,105.03 295.5,92.22 295.5,92.14 296.51,92.14 298.33,105.03 				"/>
				<polygon class="st116" points="296.31,105.03 295.5,99.36 295.5,92.22 297.32,105.03 				"/>
				<polygon class="st117" points="295.5,99.36 296.31,105.03 295.5,105.03 				"/>
				<polygon class="st118" points="211.31,184.17 210.67,179.63 211.31,179.63 				"/>
				<polygon class="st119" points="210.53,185.82 209.66,179.63 210.67,179.63 211.31,184.17 211.31,185.82 				"/>
				<polygon class="st120" points="209.52,185.82 208.64,179.63 209.66,179.63 210.53,185.82 				"/>
				<polygon class="st121" points="208.51,185.82 207.63,179.63 208.64,179.63 209.52,185.82 				"/>
				<polygon class="st122" points="207.5,185.82 206.62,179.63 207.63,179.63 208.51,185.82 				"/>
				<polygon class="st123" points="206.48,185.82 205.61,179.63 206.62,179.63 207.5,185.82 				"/>
				<polygon class="st124" points="205.61,179.63 206.48,185.82 205.56,185.82 205.56,179.63 				"/>
				<polygon class="st124" points="208.46,206.9 208.05,204.03 208.88,204.03 208.88,206.9 				"/>
				<polygon class="st125" points="207.45,206.9 207.04,204.03 208.05,204.03 208.46,206.9 				"/>
				<polygon class="st126" points="206.43,206.9 206.16,204.95 206.16,204.03 207.04,204.03 207.45,206.9 				"/>
				<polygon class="st126" points="206.16,204.95 206.43,206.9 206.16,206.9 				"/>
				<polygon class="st127" points="245.39,124.52 244.39,117.46 245.39,117.46 				"/>
				<polygon class="st128" points="245.02,129.07 243.38,117.46 244.39,117.46 245.39,124.52 245.39,129.07 				"/>
				<polygon class="st129" points="244.01,129.07 242.37,117.46 243.38,117.46 245.02,129.07 				"/>
				<polygon class="st130" points="243,129.07 241.35,117.46 242.37,117.46 244.01,129.07 				"/>
				<polygon class="st131" points="241.99,129.07 240.34,117.46 241.35,117.46 243,129.07 				"/>
				<polygon class="st95" points="240.97,129.07 239.33,117.46 240.34,117.46 241.99,129.07 				"/>
				<polygon class="st96" points="239.96,129.07 238.31,117.46 239.33,117.46 240.97,129.07 				"/>
				<polygon class="st97" points="238.95,129.07 237.3,117.46 238.31,117.46 239.96,129.07 				"/>
				<polygon class="st98" points="237.94,129.07 236.29,117.46 237.3,117.46 238.95,129.07 				"/>
				<polygon class="st99" points="236.92,129.07 235.28,117.46 236.29,117.46 237.94,129.07 				"/>
				<polygon class="st100" points="235.91,129.07 234.69,120.48 234.69,117.46 235.28,117.46 236.92,129.07 				"/>
				<polygon class="st101" points="234.9,129.07 234.69,127.62 234.69,120.48 235.91,129.07 				"/>
				<polygon class="st102" points="234.69,127.62 234.9,129.07 234.69,129.07 				"/>
				<polygon class="st132" points="285.26,98.54 284.8,95.31 285.26,95.31 				"/>
				<polygon class="st133" points="285.26,105.68 283.79,95.31 284.8,95.31 285.26,98.54 				"/>
				<polygon class="st134" points="284.59,108.13 282.78,95.31 283.79,95.31 285.26,105.68 285.26,108.13 				"/>
				<polygon class="st135" points="283.58,108.13 281.76,95.31 282.78,95.31 284.59,108.13 				"/>
				<polygon class="st136" points="282.57,108.13 280.75,95.31 281.76,95.31 283.58,108.13 				"/>
				<polygon class="st137" points="281.56,108.13 279.74,95.31 280.75,95.31 282.57,108.13 				"/>
				<polygon class="st138" points="280.54,108.13 278.73,95.31 279.74,95.31 281.56,108.13 				"/>
				<polygon class="st139" points="279.53,108.13 277.71,95.31 278.73,95.31 280.54,108.13 				"/>
				<polygon class="st140" points="278.52,108.13 276.7,95.31 277.71,95.31 279.53,108.13 				"/>
				<polygon class="st141" points="277.5,108.13 275.69,95.31 276.7,95.31 278.52,108.13 				"/>
				<polygon class="st142" points="276.49,108.13 274.67,95.31 275.69,95.31 277.5,108.13 				"/>
				<polygon class="st143" points="275.48,108.13 273.66,95.31 274.67,95.31 276.49,108.13 				"/>
				<polygon class="st144" points="274.47,108.13 273.46,101.03 273.46,95.31 273.66,95.31 275.48,108.13 				"/>
				<polygon class="st145" points="273.46,101.03 274.47,108.13 273.46,108.13 				"/>
				<polygon class="st114" points="301.89,130.13 301.57,127.88 301.89,127.88 				"/>
				<polygon class="st115" points="301.88,137.22 300.56,127.88 301.57,127.88 301.89,130.13 301.89,137.22 				"/>
				<polygon class="st116" points="300.87,137.22 299.55,127.88 300.56,127.88 301.88,137.22 				"/>
				<polygon class="st117" points="299.86,137.22 298.53,127.88 299.55,127.88 300.87,137.22 				"/>
				<polygon class="st146" points="298.85,137.22 297.52,127.88 298.53,127.88 299.86,137.22 				"/>
				<polygon class="st147" points="297.83,137.22 296.51,127.88 297.52,127.88 298.85,137.22 				"/>
				<polygon class="st148" points="296.82,137.22 295.5,127.88 296.51,127.88 297.83,137.22 				"/>
				<polygon class="st149" points="295.81,137.22 294.48,127.88 295.5,127.88 296.82,137.22 				"/>
				<polygon class="st150" points="294.79,137.22 293.47,127.88 294.48,127.88 295.81,137.22 				"/>
				<polygon class="st151" points="293.78,137.22 293.37,134.3 293.37,127.88 293.47,127.88 294.79,137.22 				"/>
				<polygon class="st152" points="293.37,134.3 293.78,137.22 293.37,137.22 				"/>
				<polygon class="st149" points="292.93,116.92 292.27,112.26 292.93,112.26 				"/>
				<polygon class="st150" points="292.93,124.03 291.26,112.26 292.27,112.26 292.93,116.92 292.93,124.03 				"/>
				<polygon class="st151" points="291.91,124.03 290.24,112.26 291.26,112.26 292.93,124.03 				"/>
				<polygon class="st152" points="290.9,124.03 289.23,112.26 290.24,112.26 291.91,124.03 				"/>
				<polygon class="st153" points="289.89,124.03 288.22,112.26 289.23,112.26 290.9,124.03 				"/>
				<polygon class="st132" points="288.87,124.03 287.2,112.26 288.22,112.26 289.89,124.03 				"/>
				<polygon class="st133" points="287.86,124.03 286.19,112.26 287.2,112.26 288.87,124.03 				"/>
				<polygon class="st134" points="286.85,124.03 285.18,112.26 286.19,112.26 287.86,124.03 				"/>
				<polygon class="st135" points="285.84,124.03 284.17,112.26 285.18,112.26 286.85,124.03 				"/>
				<polygon class="st136" points="284.82,124.03 283.15,112.26 284.17,112.26 285.84,124.03 				"/>
				<polygon class="st137" points="283.81,124.03 282.14,112.26 283.15,112.26 284.82,124.03 				"/>
				<polygon class="st138" points="282.8,124.03 282.02,118.58 282.02,112.26 282.14,112.26 283.81,124.03 				"/>
				<polygon class="st139" points="282.02,118.58 282.8,124.03 282.02,124.03 				"/>
				<polygon class="st154" points="257.36,130.35 257.26,129.64 257.36,129.64 				"/>
				<polygon class="st155" points="257.36,137.5 256.25,129.64 257.26,129.64 257.36,130.35 				"/>
				<polygon class="st156" points="256.93,141.58 255.23,129.64 256.25,129.64 257.36,137.5 257.36,141.58 				"/>
				<polygon class="st157" points="255.91,141.58 254.22,129.64 255.23,129.64 256.93,141.58 				"/>
				<polygon class="st158" points="254.9,141.58 253.21,129.64 254.22,129.64 255.91,141.58 				"/>
				<polygon class="st159" points="253.89,141.58 252.2,129.64 253.21,129.64 254.9,141.58 				"/>
				<polygon class="st160" points="252.88,141.58 251.18,129.64 252.2,129.64 253.89,141.58 				"/>
				<polygon class="st161" points="251.86,141.58 250.17,129.64 251.18,129.64 252.88,141.58 				"/>
				<polygon class="st162" points="250.85,141.58 249.16,129.64 250.17,129.64 251.86,141.58 				"/>
				<polygon class="st163" points="249.84,141.58 248.14,129.64 249.16,129.64 250.85,141.58 				"/>
				<polygon class="st164" points="248.82,141.58 247.13,129.64 248.14,129.64 249.84,141.58 				"/>
				<polygon class="st127" points="247.81,141.58 246.31,130.99 246.31,129.64 247.13,129.64 248.82,141.58 				"/>
				<polygon class="st128" points="246.8,141.58 246.31,138.13 246.31,130.99 247.81,141.58 				"/>
				<polygon class="st129" points="246.31,138.13 246.8,141.58 246.31,141.58 				"/>
				<polygon class="st165" points="264.22,107.27 263.73,103.87 264.22,103.87 				"/>
				<polygon class="st166" points="264.22,114.41 262.72,103.87 263.73,103.87 264.22,107.27 				"/>
				<polygon class="st167" points="263.47,116.31 261.71,103.87 262.72,103.87 264.22,114.41 264.22,116.31 				"/>
				<polygon class="st168" points="262.46,116.31 260.7,103.87 261.71,103.87 263.47,116.31 				"/>
				<polygon class="st169" points="261.45,116.31 259.68,103.87 260.7,103.87 262.46,116.31 				"/>
				<polygon class="st170" points="260.43,116.31 258.67,103.87 259.68,103.87 261.45,116.31 				"/>
				<polygon class="st171" points="259.42,116.31 257.66,103.87 258.67,103.87 260.43,116.31 				"/>
				<polygon class="st172" points="258.41,116.31 256.64,103.87 257.66,103.87 259.42,116.31 				"/>
				<polygon class="st173" points="257.4,116.31 255.63,103.87 256.64,103.87 258.41,116.31 				"/>
				<polygon class="st174" points="256.38,116.31 254.62,103.87 255.63,103.87 257.4,116.31 				"/>
				<polygon class="st154" points="255.37,116.31 253.61,103.87 254.62,103.87 256.38,116.31 				"/>
				<polygon class="st155" points="254.36,116.31 252.76,105.04 252.76,103.87 253.61,103.87 255.37,116.31 				"/>
				<polygon class="st156" points="253.34,116.31 252.76,112.19 252.76,105.04 254.36,116.31 				"/>
				<polygon class="st157" points="252.76,112.19 253.34,116.31 252.76,116.31 				"/>
				<polygon class="st175" points="274.2,120.56 273.93,118.65 274.2,118.65 				"/>
				<polygon class="st176" points="274.2,127.71 272.92,118.65 273.93,118.65 274.2,120.56 				"/>
				<polygon class="st177" points="273.61,130.65 271.91,118.65 272.92,118.65 274.2,127.71 274.2,130.65 				"/>
				<polygon class="st178" points="272.59,130.65 270.89,118.65 271.91,118.65 273.61,130.65 				"/>
				<polygon class="st179" points="271.58,130.65 269.88,118.65 270.89,118.65 272.59,130.65 				"/>
				<polygon class="st180" points="270.57,130.65 268.87,118.65 269.88,118.65 271.58,130.65 				"/>
				<polygon class="st181" points="269.56,130.65 267.85,118.65 268.87,118.65 270.57,130.65 				"/>
				<polygon class="st182" points="268.54,130.65 266.84,118.65 267.85,118.65 269.56,130.65 				"/>
				<polygon class="st165" points="267.53,130.65 265.83,118.65 266.84,118.65 268.54,130.65 				"/>
				<polygon class="st166" points="266.52,130.65 264.82,118.65 265.83,118.65 267.53,130.65 				"/>
				<polygon class="st167" points="265.51,130.65 263.8,118.65 264.82,118.65 266.52,130.65 				"/>
				<polygon class="st168" points="264.49,130.65 263.1,120.82 263.1,118.65 263.8,118.65 265.51,130.65 				"/>
				<polygon class="st169" points="263.48,130.65 263.1,127.96 263.1,120.82 264.49,130.65 				"/>
				<polygon class="st170" points="263.1,127.96 263.48,130.65 263.1,130.65 				"/>
				<polygon class="st137" points="285.13,133.32 284.94,131.98 285.13,131.98 				"/>
				<polygon class="st138" points="285.13,140.46 283.92,131.98 284.94,131.98 285.13,133.32 				"/>
				<polygon class="st139" points="284.37,142.29 282.91,131.98 283.92,131.98 285.13,140.46 285.13,142.29 				"/>
				<polygon class="st140" points="283.36,142.29 281.9,131.98 282.91,131.98 284.37,142.29 				"/>
				<polygon class="st141" points="282.35,142.29 280.89,131.98 281.9,131.98 283.36,142.29 				"/>
				<polygon class="st142" points="281.33,142.29 279.87,131.98 280.89,131.98 282.35,142.29 				"/>
				<polygon class="st143" points="280.32,142.29 278.86,131.98 279.87,131.98 281.33,142.29 				"/>
				<polygon class="st144" points="279.31,142.29 277.85,131.98 278.86,131.98 280.32,142.29 				"/>
				<polygon class="st145" points="278.3,142.29 276.83,131.98 277.85,131.98 279.31,142.29 				"/>
				<polygon class="st175" points="277.28,142.29 275.82,131.98 276.83,131.98 278.3,142.29 				"/>
				<polygon class="st176" points="276.27,142.29 275.78,138.84 275.78,131.98 275.82,131.98 277.28,142.29 				"/>
				<polygon class="st177" points="275.78,138.84 276.27,142.29 275.78,142.29 				"/>
				<polygon class="st165" points="269.89,147.31 268.92,140.43 269.89,140.43 				"/>
				<polygon class="st166" points="269.45,151.36 267.9,140.43 268.92,140.43 269.89,147.31 269.89,151.36 				"/>
				<polygon class="st167" points="268.44,151.36 266.89,140.43 267.9,140.43 269.45,151.36 				"/>
				<polygon class="st168" points="267.43,151.36 265.88,140.43 266.89,140.43 268.44,151.36 				"/>
				<polygon class="st169" points="266.42,151.36 264.87,140.43 265.88,140.43 267.43,151.36 				"/>
				<polygon class="st170" points="265.4,151.36 263.85,140.43 264.87,140.43 266.42,151.36 				"/>
				<polygon class="st171" points="264.39,151.36 262.84,140.43 263.85,140.43 265.4,151.36 				"/>
				<polygon class="st172" points="263.38,151.36 261.83,140.43 262.84,140.43 264.39,151.36 				"/>
				<polygon class="st173" points="262.36,151.36 260.82,140.43 261.83,140.43 263.38,151.36 				"/>
				<polygon class="st174" points="261.35,151.36 260.04,142.08 260.04,140.43 260.82,140.43 262.36,151.36 				"/>
				<polygon class="st154" points="260.34,151.36 260.04,149.22 260.04,142.08 261.35,151.36 				"/>
				<polygon class="st155" points="260.04,149.22 260.34,151.36 260.04,151.36 				"/>
				<polygon class="st142" points="282.55,150.83 282.46,150.21 282.55,150.21 				"/>
				<polygon class="st143" points="282.55,157.98 281.45,150.21 282.46,150.21 282.55,150.83 				"/>
				<polygon class="st144" points="281.58,158.33 280.43,150.21 281.45,150.21 282.55,157.98 282.55,158.33 				"/>
				<polygon class="st145" points="280.57,158.33 279.42,150.21 280.43,150.21 281.58,158.33 				"/>
				<polygon class="st175" points="279.56,158.33 278.41,150.21 279.42,150.21 280.57,158.33 				"/>
				<polygon class="st176" points="278.54,158.33 277.39,150.21 278.41,150.21 279.56,158.33 				"/>
				<polygon class="st177" points="277.53,158.33 276.38,150.21 277.39,150.21 278.54,158.33 				"/>
				<polygon class="st178" points="276.52,158.33 275.37,150.21 276.38,150.21 277.53,158.33 				"/>
				<polygon class="st179" points="275.51,158.33 275.3,156.86 275.3,150.21 275.37,150.21 276.52,158.33 				"/>
				<polygon class="st180" points="275.3,156.86 275.51,158.33 275.3,158.33 				"/>
				<polygon class="st158" points="257.11,157.13 256.49,152.77 257.11,152.77 				"/>
				<polygon class="st159" points="257.05,163.91 255.47,152.77 256.49,152.77 257.11,157.13 257.11,163.91 				"/>
				<polygon class="st160" points="256.04,163.91 254.46,152.77 255.47,152.77 257.05,163.91 				"/>
				<polygon class="st161" points="255.03,163.91 253.45,152.77 254.46,152.77 256.04,163.91 				"/>
				<polygon class="st162" points="254.02,163.91 252.44,152.77 253.45,152.77 255.03,163.91 				"/>
				<polygon class="st163" points="253,163.91 251.42,152.77 252.44,152.77 254.02,163.91 				"/>
				<polygon class="st164" points="251.99,163.91 250.41,152.77 251.42,152.77 253,163.91 				"/>
				<polygon class="st127" points="250.98,163.91 249.4,152.77 250.41,152.77 251.99,163.91 				"/>
				<polygon class="st128" points="249.97,163.91 248.39,152.77 249.4,152.77 250.98,163.91 				"/>
				<polygon class="st129" points="248.95,163.91 247.37,152.77 248.39,152.77 249.97,163.91 				"/>
				<polygon class="st130" points="247.94,163.91 247.06,157.72 247.06,152.77 247.37,152.77 248.95,163.91 				"/>
				<polygon class="st131" points="247.06,157.72 247.94,163.91 247.06,163.91 				"/>
				<polygon class="st131" points="247.53,168.16 247.53,168.14 247.53,168.14 				"/>
				<polygon class="st95" points="247.53,175.3 246.51,168.14 247.53,168.14 247.53,168.16 				"/>
				<polygon class="st96" points="247.07,179.22 245.5,168.14 246.51,168.14 247.53,175.3 247.53,179.22 				"/>
				<polygon class="st97" points="246.06,179.22 244.49,168.14 245.5,168.14 247.07,179.22 				"/>
				<polygon class="st98" points="245.05,179.22 243.47,168.14 244.49,168.14 246.06,179.22 				"/>
				<polygon class="st99" points="244.03,179.22 242.46,168.14 243.47,168.14 245.05,179.22 				"/>
				<polygon class="st100" points="243.02,179.22 241.45,168.14 242.46,168.14 244.03,179.22 				"/>
				<polygon class="st101" points="242.01,179.22 240.44,168.14 241.45,168.14 243.02,179.22 				"/>
				<polygon class="st102" points="241,179.22 239.42,168.14 240.44,168.14 242.01,179.22 				"/>
				<polygon class="st103" points="239.98,179.22 238.41,168.14 239.42,168.14 241,179.22 				"/>
				<polygon class="st104" points="238.97,179.22 237.54,169.14 237.54,168.14 238.41,168.14 239.98,179.22 				"/>
				<polygon class="st105" points="237.96,179.22 237.54,176.29 237.54,169.14 238.97,179.22 				"/>
				<polygon class="st106" points="237.54,176.29 237.96,179.22 237.54,179.22 				"/>
				<polygon class="st80" points="226.81,186.3 226.36,183.15 226.81,183.15 				"/>
				<polygon class="st81" points="226.71,192.79 225.35,183.15 226.36,183.15 226.81,186.3 226.81,192.79 				"/>
				<polygon class="st82" points="225.7,192.79 224.33,183.15 225.35,183.15 226.71,192.79 				"/>
				<polygon class="st83" points="224.69,192.79 223.32,183.15 224.33,183.15 225.7,192.79 				"/>
				<polygon class="st183" points="223.68,192.79 222.31,183.15 223.32,183.15 224.69,192.79 				"/>
				<polygon class="st85" points="222.66,192.79 221.3,183.15 222.31,183.15 223.68,192.79 				"/>
				<polygon class="st86" points="221.65,192.79 220.28,183.15 221.3,183.15 222.66,192.79 				"/>
				<polygon class="st87" points="220.64,192.79 219.27,183.15 220.28,183.15 221.65,192.79 				"/>
				<polygon class="st88" points="219.62,192.79 218.26,183.15 219.27,183.15 220.64,192.79 				"/>
				<polygon class="st89" points="218.61,192.79 217.82,187.17 217.82,183.15 218.26,183.15 219.62,192.79 				"/>
				<polygon class="st90" points="217.82,187.17 218.61,192.79 217.82,192.79 				"/>
				<polygon class="st103" points="241.73,191.53 240.89,185.65 241.73,185.65 				"/>
				<polygon class="st104" points="241.41,196.4 239.88,185.65 240.89,185.65 241.73,191.53 241.73,196.4 				"/>
				<polygon class="st105" points="240.39,196.4 238.87,185.65 239.88,185.65 241.41,196.4 				"/>
				<polygon class="st106" points="239.38,196.4 237.86,185.65 238.87,185.65 240.39,196.4 				"/>
				<polygon class="st84" points="238.37,196.4 236.84,185.65 237.86,185.65 239.38,196.4 				"/>
				<polygon class="st71" points="237.35,196.4 235.83,185.65 236.84,185.65 238.37,196.4 				"/>
				<polygon class="st72" points="236.34,196.4 234.82,185.65 235.83,185.65 237.35,196.4 				"/>
				<polygon class="st73" points="235.33,196.4 233.8,185.65 234.82,185.65 236.34,196.4 				"/>
				<polygon class="st74" points="234.32,196.4 232.79,185.65 233.8,185.65 235.33,196.4 				"/>
				<polygon class="st75" points="233.3,196.4 232.02,187.33 232.02,185.65 232.79,185.65 234.32,196.4 				"/>
				<polygon class="st76" points="232.29,196.4 232.02,194.48 232.02,187.33 233.3,196.4 				"/>
				<polygon class="st77" points="232.02,194.48 232.29,196.4 232.02,196.4 				"/>
				<polygon class="st156" points="261.69,175.15 261.35,172.76 261.69,172.76 				"/>
				<polygon class="st157" points="261.67,182.19 260.34,172.76 261.35,172.76 261.69,175.15 261.69,182.19 				"/>
				<polygon class="st158" points="260.66,182.19 259.32,172.76 260.34,172.76 261.67,182.19 				"/>
				<polygon class="st159" points="259.65,182.19 258.31,172.76 259.32,172.76 260.66,182.19 				"/>
				<polygon class="st160" points="258.63,182.19 257.3,172.76 258.31,172.76 259.65,182.19 				"/>
				<polygon class="st161" points="257.62,182.19 256.28,172.76 257.3,172.76 258.63,182.19 				"/>
				<polygon class="st162" points="256.61,182.19 255.27,172.76 256.28,172.76 257.62,182.19 				"/>
				<polygon class="st163" points="255.6,182.19 254.26,172.76 255.27,172.76 256.61,182.19 				"/>
				<polygon class="st164" points="254.58,182.19 253.25,172.76 254.26,172.76 255.6,182.19 				"/>
				<polygon class="st127" points="253.57,182.19 253.23,179.79 253.23,172.76 253.25,172.76 254.58,182.19 				"/>
				<polygon class="st128" points="253.23,179.79 253.57,182.19 253.23,182.19 				"/>
				<polygon class="st166" points="270.71,160.23 270.68,160.02 270.71,160.02 				"/>
				<polygon class="st167" points="270.71,167.37 269.67,160.02 270.68,160.02 270.71,160.23 				"/>
				<polygon class="st168" points="269.92,168.95 268.66,160.02 269.67,160.02 270.71,167.37 270.71,168.95 				"/>
				<polygon class="st169" points="268.91,168.95 267.64,160.02 268.66,160.02 269.92,168.95 				"/>
				<polygon class="st170" points="267.9,168.95 266.63,160.02 267.64,160.02 268.91,168.95 				"/>
				<polygon class="st171" points="266.88,168.95 265.62,160.02 266.63,160.02 267.9,168.95 				"/>
				<polygon class="st172" points="265.87,168.95 264.61,160.02 265.62,160.02 266.88,168.95 				"/>
				<polygon class="st173" points="264.86,168.95 263.59,160.02 264.61,160.02 265.87,168.95 				"/>
				<polygon class="st174" points="263.85,168.95 262.72,161.03 262.72,160.02 263.59,160.02 264.86,168.95 				"/>
				<polygon class="st154" points="262.83,168.95 262.72,168.18 262.72,161.03 263.85,168.95 				"/>
				<polygon class="st155" points="262.72,168.18 262.83,168.95 262.72,168.95 				"/>
				<polygon class="st85" points="224.99,209.2 224.35,204.66 224.99,204.66 				"/>
				<polygon class="st86" points="224.46,212.61 223.33,204.66 224.35,204.66 224.99,209.2 224.99,212.61 				"/>
				<polygon class="st87" points="223.45,212.61 222.32,204.66 223.33,204.66 224.46,212.61 				"/>
				<polygon class="st88" points="222.43,212.61 221.31,204.66 222.32,204.66 223.45,212.61 				"/>
				<polygon class="st89" points="221.42,212.61 220.29,204.66 221.31,204.66 222.43,212.61 				"/>
				<polygon class="st90" points="220.41,212.61 219.28,204.66 220.29,204.66 221.42,212.61 				"/>
				<polygon class="st91" points="219.4,212.61 218.27,204.66 219.28,204.66 220.41,212.61 				"/>
				<polygon class="st92" points="218.38,212.61 217.52,206.54 217.52,204.66 218.27,204.66 219.4,212.61 				"/>
				<polygon class="st93" points="217.52,206.54 218.38,212.61 217.52,212.61 				"/>
				<polygon class="st85" points="227.57,227.42 227.39,226.15 227.57,226.15 				"/>
				<polygon class="st86" points="227.2,231.94 226.38,226.15 227.39,226.15 227.57,227.42 227.57,231.94 				"/>
				<polygon class="st87" points="226.19,231.94 225.37,226.15 226.38,226.15 227.2,231.94 				"/>
				<polygon class="st88" points="225.18,231.94 224.36,226.15 225.37,226.15 226.19,231.94 				"/>
				<polygon class="st89" points="224.16,231.94 223.34,226.15 224.36,226.15 225.18,231.94 				"/>
				<polygon class="st90" points="223.15,231.94 222.33,226.15 223.34,226.15 224.16,231.94 				"/>
				<polygon class="st91" points="222.33,226.15 223.15,231.94 222.14,231.94 222.14,226.15 				"/>
				<polygon class="st127" points="261.38,237.3 261.23,236.23 261.38,236.23 				"/>
				<polygon class="st128" points="261.38,244.45 260.22,236.23 261.23,236.23 261.38,237.3 				"/>
				<polygon class="st129" points="260.44,244.92 259.21,236.23 260.22,236.23 261.38,244.45 261.38,244.92 				"/>
				<polygon class="st130" points="259.43,244.92 258.19,236.23 259.21,236.23 260.44,244.92 				"/>
				<polygon class="st131" points="258.41,244.92 257.18,236.23 258.19,236.23 259.43,244.92 				"/>
				<polygon class="st95" points="257.4,244.92 256.17,236.23 257.18,236.23 258.41,244.92 				"/>
				<polygon class="st96" points="256.39,244.92 255.16,236.23 256.17,236.23 257.4,244.92 				"/>
				<polygon class="st97" points="255.37,244.92 254.14,236.23 255.16,236.23 256.39,244.92 				"/>
				<polygon class="st98" points="254.36,244.92 253.62,239.7 253.62,236.23 254.14,236.23 255.37,244.92 				"/>
				<polygon class="st99" points="253.62,239.7 254.36,244.92 253.62,244.92 				"/>
				<polygon class="st107" points="311.41,147.25 310.67,142.04 311.63,142.04 311.63,147.25 				"/>
				<polygon class="st108" points="310.4,147.25 309.66,142.04 310.67,142.04 311.41,147.25 				"/>
				<polygon class="st109" points="309.38,147.25 308.64,142.04 309.66,142.04 310.4,147.25 				"/>
				<polygon class="st110" points="308.37,147.25 307.63,142.04 308.64,142.04 309.38,147.25 				"/>
				<polygon class="st111" points="307.36,147.25 306.88,143.9 306.88,142.04 307.63,142.04 308.37,147.25 				"/>
				<polygon class="st112" points="306.88,143.9 307.36,147.25 306.88,147.25 				"/>
				<polygon class="st130" points="254.03,206.86 253.61,203.88 254.03,203.88 				"/>
				<polygon class="st131" points="253.95,213.44 252.59,203.88 253.61,203.88 254.03,206.86 254.03,213.44 				"/>
				<polygon class="st95" points="252.94,213.44 251.58,203.88 252.59,203.88 253.95,213.44 				"/>
				<polygon class="st96" points="251.92,213.44 250.57,203.88 251.58,203.88 252.94,213.44 				"/>
				<polygon class="st97" points="250.91,213.44 249.56,203.88 250.57,203.88 251.92,213.44 				"/>
				<polygon class="st98" points="249.9,213.44 248.54,203.88 249.56,203.88 250.91,213.44 				"/>
				<polygon class="st99" points="248.89,213.44 247.53,203.88 248.54,203.88 249.9,213.44 				"/>
				<polygon class="st100" points="247.87,213.44 246.52,203.88 247.53,203.88 248.89,213.44 				"/>
				<polygon class="st101" points="246.86,213.44 245.5,203.88 246.52,203.88 247.87,213.44 				"/>
				<polygon class="st102" points="245.85,213.44 245.46,210.68 245.46,203.88 245.5,203.88 246.86,213.44 				"/>
				<polygon class="st103" points="245.46,210.68 245.85,213.44 245.46,213.44 				"/>
				<polygon class="st164" points="256.01,192.28 255.36,187.7 256.01,187.7 				"/>
				<polygon class="st127" points="255.71,197.31 254.35,187.7 255.36,187.7 256.01,192.28 256.01,197.31 				"/>
				<polygon class="st128" points="254.7,197.31 253.34,187.7 254.35,187.7 255.71,197.31 				"/>
				<polygon class="st129" points="253.69,197.31 252.33,187.7 253.34,187.7 254.7,197.31 				"/>
				<polygon class="st130" points="252.68,197.31 251.31,187.7 252.33,187.7 253.69,197.31 				"/>
				<polygon class="st131" points="251.66,197.31 250.3,187.7 251.31,187.7 252.68,197.31 				"/>
				<polygon class="st95" points="250.65,197.31 249.29,187.7 250.3,187.7 251.66,197.31 				"/>
				<polygon class="st96" points="249.64,197.31 248.27,187.7 249.29,187.7 250.65,197.31 				"/>
				<polygon class="st97" points="248.62,197.31 247.39,188.58 247.39,187.7 248.27,187.7 249.64,197.31 				"/>
				<polygon class="st98" points="247.61,197.31 247.39,195.72 247.39,188.58 248.62,197.31 				"/>
				<polygon class="st99" points="247.39,195.72 247.61,197.31 247.39,197.31 				"/>
				<polygon class="st176" points="295.37,277.02 294.72,272.42 295.64,272.42 295.64,277.02 				"/>
				<polygon class="st177" points="294.36,277.02 293.71,272.42 294.72,272.42 295.37,277.02 				"/>
				<polygon class="st178" points="293.35,277.02 292.7,272.42 293.71,272.42 294.36,277.02 				"/>
				<polygon class="st179" points="292.34,277.02 291.68,272.42 292.7,272.42 293.35,277.02 				"/>
				<polygon class="st180" points="291.68,272.42 292.34,277.02 291.4,277.02 291.4,272.42 				"/>
				<polygon class="st161" points="270.73,274.66 270.38,272.2 270.83,272.2 270.83,274.66 				"/>
				<polygon class="st162" points="269.72,274.66 269.37,272.2 270.38,272.2 270.73,274.66 				"/>
				<polygon class="st163" points="268.71,274.66 268.5,273.17 268.5,272.2 269.37,272.2 269.72,274.66 				"/>
				<polygon class="st164" points="268.5,273.17 268.71,274.66 268.5,274.66 				"/>
				<polygon class="st170" points="281.9,267.71 281.22,262.93 281.9,262.93 				"/>
				<polygon class="st171" points="281.12,269.32 280.21,262.93 281.22,262.93 281.9,267.71 281.9,269.32 				"/>
				<polygon class="st172" points="280.1,269.32 279.2,262.93 280.21,262.93 281.12,269.32 				"/>
				<polygon class="st173" points="279.09,269.32 278.18,262.93 279.2,262.93 280.1,269.32 				"/>
				<polygon class="st174" points="278.08,269.32 277.17,262.93 278.18,262.93 279.09,269.32 				"/>
				<polygon class="st154" points="277.06,269.32 276.16,262.93 277.17,262.93 278.08,269.32 				"/>
				<polygon class="st155" points="276.16,262.93 277.06,269.32 276.14,269.32 276.14,262.93 				"/>
				<polygon class="st59" points="312.37,111.19 312.34,110.98 312.37,110.98 				"/>
				<polygon class="st60" points="312.37,118.33 311.33,110.98 312.34,110.98 312.37,111.19 				"/>
				<polygon class="st61" points="311.9,122.11 310.32,110.98 311.33,110.98 312.37,118.33 312.37,122.11 				"/>
				<polygon class="st62" points="310.88,122.11 309.31,110.98 310.32,110.98 311.9,122.11 				"/>
				<polygon class="st63" points="309.87,122.11 308.29,110.98 309.31,110.98 310.88,122.11 				"/>
				<polygon class="st64" points="308.86,122.11 307.28,110.98 308.29,110.98 309.87,122.11 				"/>
				<polygon class="st107" points="307.85,122.11 306.27,110.98 307.28,110.98 308.86,122.11 				"/>
				<polygon class="st108" points="306.83,122.11 305.25,110.98 306.27,110.98 307.85,122.11 				"/>
				<polygon class="st109" points="305.82,122.11 304.24,110.98 305.25,110.98 306.83,122.11 				"/>
				<polygon class="st110" points="304.81,122.11 303.23,110.98 304.24,110.98 305.82,122.11 				"/>
				<polygon class="st111" points="303.79,122.11 302.22,110.98 303.23,110.98 304.81,122.11 				"/>
				<polygon class="st112" points="302.78,122.11 302.05,116.95 302.05,110.98 302.22,110.98 303.79,122.11 				"/>
				<polygon class="st113" points="302.05,116.95 302.78,122.11 302.05,122.11 				"/>
				<polygon class="st150" points="296.46,148.97 295.77,144.07 296.46,144.07 				"/>
				<polygon class="st151" points="295.73,150.93 294.75,144.07 295.77,144.07 296.46,148.97 296.46,150.93 				"/>
				<polygon class="st152" points="294.71,150.93 293.74,144.07 294.75,144.07 295.73,150.93 				"/>
				<polygon class="st153" points="293.7,150.93 292.73,144.07 293.74,144.07 294.71,150.93 				"/>
				<polygon class="st132" points="292.69,150.93 291.72,144.07 292.73,144.07 293.7,150.93 				"/>
				<polygon class="st133" points="291.68,150.93 290.7,144.07 291.72,144.07 292.69,150.93 				"/>
				<polygon class="st134" points="290.66,150.93 290.3,148.37 290.3,144.07 290.7,144.07 291.68,150.93 				"/>
				<polygon class="st135" points="290.3,148.37 290.66,150.93 290.3,150.93 				"/>
				<polygon class="st133" points="310.14,281.14 309.83,278.99 310.43,278.99 310.43,281.14 				"/>
				<polygon class="st134" points="309.12,281.14 308.82,278.99 309.83,278.99 310.14,281.14 				"/>
				<polygon class="st135" points="308.82,278.99 309.12,281.14 308.39,281.14 308.39,278.99 				"/>
				<polygon class="st84" points="240.01,208.01 239.5,204.42 240.01,204.42 				"/>
				<polygon class="st71" points="239.91,214.43 238.49,204.42 239.5,204.42 240.01,208.01 240.01,214.43 				"/>
				<polygon class="st72" points="238.9,214.43 237.48,204.42 238.49,204.42 239.91,214.43 				"/>
				<polygon class="st73" points="237.88,214.43 236.47,204.42 237.48,204.42 238.9,214.43 				"/>
				<polygon class="st74" points="236.87,214.43 235.45,204.42 236.47,204.42 237.88,214.43 				"/>
				<polygon class="st75" points="235.86,214.43 234.44,204.42 235.45,204.42 236.87,214.43 				"/>
				<polygon class="st76" points="234.85,214.43 233.43,204.42 234.44,204.42 235.86,214.43 				"/>
				<polygon class="st77" points="233.83,214.43 232.41,204.42 233.43,204.42 234.85,214.43 				"/>
				<polygon class="st78" points="232.82,214.43 231.4,204.42 232.41,204.42 233.83,214.43 				"/>
				<polygon class="st79" points="231.81,214.43 230.92,208.18 230.92,204.42 231.4,204.42 232.82,214.43 				"/>
				<polygon class="st80" points="230.92,208.18 231.81,214.43 230.92,214.43 				"/>
				<polygon class="st84" points="242.44,225.16 242.19,223.34 242.44,223.34 				"/>
				<polygon class="st71" points="242.44,232.25 241.17,223.34 242.19,223.34 242.44,225.16 242.44,232.25 				"/>
				<polygon class="st72" points="241.42,232.25 240.16,223.34 241.17,223.34 242.44,232.25 				"/>
				<polygon class="st73" points="240.41,232.25 239.15,223.34 240.16,223.34 241.42,232.25 				"/>
				<polygon class="st74" points="239.4,232.25 238.14,223.34 239.15,223.34 240.41,232.25 				"/>
				<polygon class="st75" points="238.39,232.25 237.12,223.34 238.14,223.34 239.4,232.25 				"/>
				<polygon class="st76" points="237.37,232.25 236.11,223.34 237.12,223.34 238.39,232.25 				"/>
				<polygon class="st77" points="236.36,232.25 235.1,223.34 236.11,223.34 237.37,232.25 				"/>
				<polygon class="st78" points="235.35,232.25 234.28,224.7 234.28,223.34 235.1,223.34 236.36,232.25 				"/>
				<polygon class="st79" points="234.34,232.25 234.28,231.85 234.28,224.7 235.35,232.25 				"/>
				<polygon class="st80" points="234.28,231.85 234.34,232.25 234.28,232.25 				"/>
				<polygon class="st159" points="270.25,257 269.35,250.65 270.25,250.65 				"/>
				<polygon class="st160" points="269.44,258.4 268.34,250.65 269.35,250.65 270.25,257 270.25,258.4 				"/>
				<polygon class="st161" points="268.43,258.4 267.33,250.65 268.34,250.65 269.44,258.4 				"/>
				<polygon class="st162" points="267.41,258.4 266.31,250.65 267.33,250.65 268.43,258.4 				"/>
				<polygon class="st163" points="266.4,258.4 265.3,250.65 266.31,250.65 267.41,258.4 				"/>
				<polygon class="st164" points="265.39,258.4 264.29,250.65 265.3,250.65 266.4,258.4 				"/>
				<polygon class="st127" points="264.38,258.4 263.32,250.96 263.32,250.65 264.29,250.65 265.39,258.4 				"/>
				<polygon class="st128" points="263.36,258.4 263.32,258.1 263.32,250.96 264.38,258.4 				"/>
				<polygon class="st129" points="263.32,258.1 263.36,258.4 263.32,258.4 				"/>
				<polygon class="st82" points="233.74,249.52 233.36,246.8 234.06,246.8 234.06,249.52 				"/>
				<polygon class="st83" points="232.73,249.52 232.35,246.8 233.36,246.8 233.74,249.52 				"/>
				<polygon class="st183" points="231.72,249.52 231.49,247.87 231.49,246.8 232.35,246.8 232.73,249.52 				"/>
				<polygon class="st85" points="231.49,247.87 231.72,249.52 231.49,249.52 				"/>
				<polygon class="st96" points="258.41,259.2 258.24,257.98 258.41,257.98 				"/>
				<polygon class="st97" points="257.98,263.29 257.23,257.98 258.24,257.98 258.41,259.2 258.41,263.29 				"/>
				<polygon class="st98" points="256.97,263.29 256.21,257.98 257.23,257.98 257.98,263.29 				"/>
				<polygon class="st99" points="255.95,263.29 255.2,257.98 256.21,257.98 256.97,263.29 				"/>
				<polygon class="st100" points="254.94,263.29 254.19,257.98 255.2,257.98 255.95,263.29 				"/>
				<polygon class="st101" points="253.93,263.29 253.53,260.47 253.53,257.98 254.19,257.98 254.94,263.29 				"/>
				<polygon class="st102" points="253.53,260.47 253.93,263.29 253.53,263.29 				"/>
				<polygon class="st131" points="255.86,226.93 254.93,220.34 255.86,220.34 				"/>
				<polygon class="st95" points="255.23,229.63 253.92,220.34 254.93,220.34 255.86,226.93 255.86,229.63 				"/>
				<polygon class="st96" points="254.22,229.63 252.9,220.34 253.92,220.34 255.23,229.63 				"/>
				<polygon class="st97" points="253.21,229.63 251.89,220.34 252.9,220.34 254.22,229.63 				"/>
				<polygon class="st98" points="252.19,229.63 250.88,220.34 251.89,220.34 253.21,229.63 				"/>
				<polygon class="st99" points="251.18,229.63 249.86,220.34 250.88,220.34 252.19,229.63 				"/>
				<polygon class="st100" points="250.17,229.63 248.85,220.34 249.86,220.34 251.18,229.63 				"/>
				<polygon class="st101" points="249.16,229.63 247.84,220.34 248.85,220.34 250.17,229.63 				"/>
				<polygon class="st102" points="248.14,229.63 247.54,225.37 247.54,220.34 247.84,220.34 249.16,229.63 				"/>
				<polygon class="st103" points="247.54,225.37 248.14,229.63 247.54,229.63 				"/>
				<polygon class="st104" points="248.7,247.82 247.8,241.53 248.7,241.53 				"/>
				<polygon class="st105" points="247.83,248.87 246.79,241.53 247.8,241.53 248.7,247.82 248.7,248.87 				"/>
				<polygon class="st106" points="246.82,248.87 245.78,241.53 246.79,241.53 247.83,248.87 				"/>
				<polygon class="st84" points="245.81,248.87 244.77,241.53 245.78,241.53 246.82,248.87 				"/>
				<polygon class="st71" points="244.79,248.87 243.75,241.53 244.77,241.53 245.81,248.87 				"/>
				<polygon class="st72" points="243.78,248.87 242.74,241.53 243.75,241.53 244.79,248.87 				"/>
				<polygon class="st73" points="242.77,248.87 241.95,243.08 241.95,241.53 242.74,241.53 243.78,248.87 				"/>
				<polygon class="st74" points="241.95,243.08 242.77,248.87 241.95,248.87 				"/>
			</g>
		</g>
	</g>
	<g>
		<g>
			<path class="st184" d="M324.94,261.17c-4.5,0-7.68-2.51-7.75-6.21h3.12c0.19,1.86,1.51,3.73,4.63,3.73c2.83,0,4.5-1.61,4.5-3.73
				c0-6.04-12.12-2.19-12.12-10.51c0-3.7,2.99-6.21,7.43-6.21c4.28,0,7.07,2.35,7.43,5.75h-3.21c-0.19-1.51-1.61-3.21-4.34-3.25
				c-2.41-0.06-4.31,1.19-4.31,3.6c0,5.79,12.09,2.19,12.09,10.48C332.4,258.02,329.79,261.17,324.94,261.17z"/>
			<path class="st184" d="M339.09,238.54h15.17v2.38h-6.11v20.03h-2.93v-20.03h-6.14V238.54z"/>
			<path class="st184" d="M374.87,255.96h-9.77l-1.8,4.98h-3.09l8.1-22.28h3.38l8.07,22.28h-3.09L374.87,255.96z M369.99,242.27
				l-4.05,11.32h8.1L369.99,242.27z"/>
			<path class="st184" d="M394.3,238.54c5.27,0,7.78,2.93,7.78,6.59c0,2.86-1.58,5.59-5.34,6.43l5.63,9.39h-3.5l-5.34-9.16h-3.54
				v9.16h-2.93v-22.41H394.3z M394.3,240.95h-4.31v8.49h4.31c3.31,0,4.76-1.8,4.76-4.31C399.06,242.59,397.64,240.95,394.3,240.95z"
				/>
			<path class="st184" d="M409,238.54h15.17v2.38h-6.11v20.03h-2.93v-20.03H409V238.54z"/>
			<path class="st184" d="M431.47,238.54h2.93v14.18c0,4.12,2.22,5.88,5.53,5.88s5.5-1.77,5.5-5.88v-14.18h2.93v14.15
				c0,5.82-3.83,8.49-8.46,8.49c-4.63,0-8.42-2.67-8.42-8.49V238.54z"/>
			<path class="st184" d="M464.24,251.59h-4.31v9.36H457v-22.41h7.23c5.27,0,7.75,2.89,7.75,6.56
				C471.99,248.5,469.8,251.59,464.24,251.59z M464.24,249.18c3.34,0,4.76-1.58,4.76-4.08c0-2.6-1.42-4.15-4.76-4.15h-4.31v8.23
				H464.24z"/>
			<path class="st184" d="M498.84,261.17c-4.5,0-7.68-2.51-7.75-6.21h3.12c0.19,1.86,1.51,3.73,4.63,3.73c2.83,0,4.5-1.61,4.5-3.73
				c0-6.04-12.12-2.19-12.12-10.51c0-3.7,2.99-6.21,7.43-6.21c4.28,0,7.07,2.35,7.43,5.75h-3.21c-0.19-1.51-1.61-3.21-4.34-3.25
				c-2.41-0.06-4.31,1.19-4.31,3.6c0,5.79,12.09,2.19,12.09,10.48C506.3,258.02,503.69,261.17,498.84,261.17z"/>
			<path class="st184" d="M514.31,238.54h2.93v14.18c0,4.12,2.22,5.88,5.53,5.88s5.5-1.77,5.5-5.88v-14.18h2.93v14.15
				c0,5.82-3.83,8.49-8.46,8.49c-4.63,0-8.42-2.67-8.42-8.49V238.54z"/>
			<path class="st184" d="M539.84,238.7h3.15l8.23,18.39l8.23-18.39h3.12v22.25h-2.93v-16.59l-7.39,16.59h-2.06l-7.43-16.62v16.62
				h-2.93V238.7z"/>
			<path class="st184" d="M571.29,238.7h3.15l8.23,18.39l8.23-18.39h3.12v22.25h-2.93v-16.59l-7.39,16.59h-2.06l-7.43-16.62v16.62
				h-2.93V238.7z"/>
			<path class="st184" d="M602.74,238.54h2.93v22.41h-2.93V238.54z"/>
			<path class="st184" d="M613.03,238.54h15.17v2.38h-6.11v20.03h-2.93v-20.03h-6.14V238.54z"/>
		</g>
		<g>
			<path class="st184" d="M370.05,203.75c0,17.34-12.01,29.27-30.69,29.27h-21.93v-58.54h21.93
				C358.04,174.48,370.05,186.32,370.05,203.75z M338.45,220.68c10.76,0,17.09-6.17,17.09-16.93s-6.34-17.09-17.09-17.09h-6.75
				v34.02H338.45z"/>
			<path class="st184" d="M378.05,174.48h14.26v58.54h-14.26V174.48z"/>
			<path class="st184" d="M457.27,192.99h-15.76c-2.17-3.92-6.17-6-11.51-6c-9.17,0-15.26,6.5-15.26,16.68
				c0,10.84,6.17,17.18,16.43,17.18c7.09,0,12.01-3.75,14.18-10.34h-18.1v-10.51h31.02v13.26c-3,10.09-12.76,20.18-28.19,20.18
				c-17.51,0-29.85-12.26-29.85-29.77s12.26-29.85,29.77-29.85C444.01,173.81,454.18,180.98,457.27,192.99z"/>
			<path class="st184" d="M466.18,174.48h14.26v58.54h-14.26V174.48z"/>
			<path class="st184" d="M487.61,174.48h45.28v11.42h-15.51v47.11h-14.26V185.9h-15.51V174.48z"/>
			<path class="st184" d="M576.5,222.68h-21.85l-3.5,10.34h-14.93l21.18-58.54h16.51l21.18,58.54H580L576.5,222.68z M565.58,190.24
				l-7.17,21.43h14.43L565.58,190.24z"/>
			<path class="st184" d="M615.77,174.48v47.53h18.68v11.01h-32.94v-58.54H615.77z"/>
		</g>
		<g>
			<rect x="317.46" y="266.06" class="st185" width="178.41" height="23.39"/>
		</g>
		<g>
			<path class="st186" d="M331.08,284.14c3.77-3.12,7.79-6.21,7.79-9.21c0-1.29-0.58-2.12-1.85-2.12c-1.24,0-1.97,0.97-1.97,2.65
				h-4.02c0.12-4.31,2.92-6.16,6.16-6.16c4.04,0,5.84,2.36,5.84,5.36c0,3.9-3.48,7.01-6.31,9.18h6.58v3.38h-12.23V284.14z"/>
			<path class="st186" d="M383.64,269.33c5.07,0,6.84,3.8,6.84,9.01c0,5.26-1.78,9.06-6.84,9.06s-6.84-3.8-6.84-9.06
				C376.8,273.13,378.58,269.33,383.64,269.33z M383.64,273.23c-2.46,0-2.75,2.39-2.75,5.11c0,2.82,0.29,5.16,2.75,5.16
				c2.46,0,2.75-2.34,2.75-5.16C386.4,275.61,386.1,273.23,383.64,273.23z"/>
			<path class="st186" d="M424.21,284.14c3.77-3.12,7.79-6.21,7.79-9.21c0-1.29-0.58-2.12-1.85-2.12c-1.24,0-1.97,0.97-1.97,2.65
				h-4.02c0.12-4.31,2.92-6.16,6.16-6.16c4.04,0,5.84,2.36,5.84,5.36c0,3.9-3.48,7.01-6.31,9.18h6.58v3.38h-12.22V284.14z"/>
			<path class="st186" d="M476.14,269.28c3.75,0,5.77,2.14,5.77,4.82c0,2.34-1.46,3.58-2.68,3.99v0.1c1.78,0.58,3,1.95,3,4.29
				c0,3-2.14,5.14-5.87,5.14c-3.7,0-6.38-1.75-6.5-5.77h4.04c0.02,1.39,0.78,2.31,2.31,2.31c1.29,0,2-0.83,2-2
				c0-1.58-0.95-2.22-3.12-2.22h-0.78v-3.39h0.78c1.41,0,2.78-0.34,2.78-1.95c0-1.19-0.71-1.85-1.83-1.85
				c-1.34,0-1.83,0.97-1.9,1.95h-4.07C470.22,271.21,472.51,269.28,476.14,269.28z"/>
		</g>
	</g>
</g>
<g>
	<rect x="292.62" y="332.1" class="st1" width="88.36" height="68.94"/>
	<text transform="matrix(1 0 0 1 293.8408 373.2165)" class="st186 st187 st188">#0074ae</text>
</g>
<g>
	<rect x="413.53" y="332.1" class="st4" width="88.36" height="68.94"/>
	<text transform="matrix(1 0 0 1 419.3308 373.3786)" class="st187 st188">#6ecef5</text>
</g>
<g>
	<rect x="533.62" y="332.1" class="st184" width="88.36" height="68.94"/>
	<text transform="matrix(1 0 0 1 543.2374 373.3786)" class="st186 st187 st188">#010101</text>
</g>
<text transform="matrix(1 0 0 1 355.1111 460.8112)" class="st187 st188">Font - Poppins</text>
</svg>
