<?xml version="1.0" encoding="utf-8"?>
<!-- Generator: Adobe Illustrator 24.3.0, SVG Export Plug-In . SVG Version: 6.00 Build 0)  -->
<svg version="1.1" id="Layer_1" xmlns="http://www.w3.org/2000/svg" xmlns:xlink="http://www.w3.org/1999/xlink" x="0px" y="0px"
	 viewBox="0 0 841.9 595.3" style="enable-background:new 0 0 841.9 595.3;" xml:space="preserve">
<style type="text/css">
	.st0{fill:#F1F5F6;}
	.st1{fill:#E8E9E9;}
	.st2{fill:#FFFFFF;}
	.st3{fill:#F2F4F4;}
	.st4{opacity:0.3;}
	.st5{clip-path:url(#SVGID_2_);fill:#292526;}
	.st6{clip-path:url(#SVGID_2_);fill:#2B2727;}
	.st7{clip-path:url(#SVGID_2_);fill:#2C2829;}
	.st8{clip-path:url(#SVGID_2_);fill:#2E292A;}
	.st9{clip-path:url(#SVGID_2_);fill:#2F2B2B;}
	.st10{clip-path:url(#SVGID_2_);fill:#312C2D;}
	.st11{clip-path:url(#SVGID_2_);fill:#322E2E;}
	.st12{clip-path:url(#SVGID_2_);fill:#342F30;}
	.st13{clip-path:url(#SVGID_2_);fill:#353131;}
	.st14{clip-path:url(#SVGID_2_);fill:#252121;}
	.st15{clip-path:url(#SVGID_2_);fill:#262223;}
	.st16{clip-path:url(#SVGID_2_);fill:#282424;}
	.st17{clip-path:url(#SVGID_2_);fill:#3D3838;}
	.st18{clip-path:url(#SVGID_2_);fill:#3F393A;}
	.st19{clip-path:url(#SVGID_2_);fill:#383434;}
	.st20{clip-path:url(#SVGID_2_);fill:#3A3535;}
	.st21{clip-path:url(#SVGID_2_);fill:#3B3637;}
	.st22{clip-path:url(#SVGID_2_);fill:#403B3B;}
	.st23{clip-path:url(#SVGID_2_);fill:#423C3C;}
	.st24{clip-path:url(#SVGID_2_);fill:#433E3E;}
	.st25{clip-path:url(#SVGID_2_);fill:#231F20;}
	.st26{clip-path:url(#SVGID_2_);fill:#9B9B9B;}
	.st27{clip-path:url(#SVGID_2_);fill:#9C9C9C;}
	.st28{clip-path:url(#SVGID_2_);fill:#797373;}
	.st29{clip-path:url(#SVGID_2_);fill:#9D9D9D;}
	.st30{clip-path:url(#SVGID_2_);fill:#9E9D9D;}
	.st31{clip-path:url(#SVGID_2_);fill:#9F9E9E;}
	.st32{clip-path:url(#SVGID_2_);fill:#A09F9F;}
	.st33{clip-path:url(#SVGID_2_);fill:#A1A0A0;}
	.st34{clip-path:url(#SVGID_2_);fill:#A1A1A1;}
	.st35{clip-path:url(#SVGID_2_);fill:#A2A2A1;}
	.st36{clip-path:url(#SVGID_2_);fill:#A3A2A2;}
	.st37{clip-path:url(#SVGID_2_);fill:#A4A3A3;}
	.st38{clip-path:url(#SVGID_2_);fill:#A6A5A5;}
	.st39{clip-path:url(#SVGID_2_);fill:#A7A6A6;}
	.st40{clip-path:url(#SVGID_2_);fill:#A8A7A7;}
	.st41{clip-path:url(#SVGID_2_);fill:#A9A8A7;}
	.st42{clip-path:url(#SVGID_2_);fill:#A9A8A8;}
	.st43{clip-path:url(#SVGID_2_);fill:#AAA9A9;}
	.st44{clip-path:url(#SVGID_2_);fill:#ABAAAA;}
	.st45{clip-path:url(#SVGID_2_);fill:#ACABAB;}
	.st46{clip-path:url(#SVGID_2_);fill:#6D6767;}
	.st47{clip-path:url(#SVGID_2_);fill:#6F6969;}
	.st48{clip-path:url(#SVGID_2_);fill:#716B6B;}
	.st49{clip-path:url(#SVGID_2_);fill:#736D6D;}
	.st50{clip-path:url(#SVGID_2_);fill:#999999;}
	.st51{clip-path:url(#SVGID_2_);fill:#9A9999;}
	.st52{clip-path:url(#SVGID_2_);fill:#9A9A9A;}
	.st53{clip-path:url(#SVGID_2_);fill:#453F3F;}
	.st54{clip-path:url(#SVGID_2_);fill:#464141;}
	.st55{clip-path:url(#SVGID_2_);fill:#484242;}
	.st56{clip-path:url(#SVGID_2_);fill:#494444;}
	.st57{clip-path:url(#SVGID_2_);fill:#ADACAC;}
	.st58{clip-path:url(#SVGID_2_);fill:#AEADAD;}
	.st59{clip-path:url(#SVGID_2_);fill:#AFAEAD;}
	.st60{clip-path:url(#SVGID_2_);fill:#B0AFAE;}
	.st61{clip-path:url(#SVGID_2_);fill:#B1AFAF;}
	.st62{clip-path:url(#SVGID_2_);fill:#B2B0B0;}
	.st63{clip-path:url(#SVGID_2_);fill:#B3B2B2;}
	.st64{clip-path:url(#SVGID_2_);fill:#B5B4B4;}
	.st65{clip-path:url(#SVGID_2_);fill:#696363;}
	.st66{clip-path:url(#SVGID_2_);fill:#6B6565;}
	.st67{clip-path:url(#SVGID_2_);fill:#4E4949;}
	.st68{clip-path:url(#SVGID_2_);fill:#504A4A;}
	.st69{clip-path:url(#SVGID_2_);fill:#524C4C;}
	.st70{clip-path:url(#SVGID_2_);fill:#534E4E;}
	.st71{clip-path:url(#SVGID_2_);fill:#554F4F;}
	.st72{clip-path:url(#SVGID_2_);fill:#4B4646;}
	.st73{clip-path:url(#SVGID_2_);fill:#4D4747;}
	.st74{clip-path:url(#SVGID_2_);fill:#615B5B;}
	.st75{clip-path:url(#SVGID_2_);fill:#635D5D;}
	.st76{clip-path:url(#SVGID_2_);fill:#655F5F;}
	.st77{clip-path:url(#SVGID_2_);fill:#676161;}
	.st78{clip-path:url(#SVGID_2_);fill:#5A5454;}
	.st79{clip-path:url(#SVGID_2_);fill:#5C5656;}
	.st80{clip-path:url(#SVGID_2_);fill:#5E5858;}
	.st81{clip-path:url(#SVGID_2_);fill:#605A5A;}
	.st82{clip-path:url(#SVGID_2_);fill:#575151;}
	.st83{clip-path:url(#SVGID_2_);fill:#595353;}
	.st84{clip-path:url(#SVGID_2_);fill:#A5A4A4;}
	.st85{fill-rule:evenodd;clip-rule:evenodd;fill:#FFFFFF;}
	.st86{fill-rule:evenodd;clip-rule:evenodd;fill:url(#SVGID_3_);}
	.st87{fill:#0074AE;}
	.st88{fill:#1D99D6;}
	.st89{fill:#27B7EA;}
	.st90{fill:#6ECEF5;}
	.st91{clip-path:url(#SVGID_5_);fill:#2D2A2A;}
	.st92{clip-path:url(#SVGID_5_);fill:#2E2A2B;}
	.st93{clip-path:url(#SVGID_5_);fill:#2F2B2C;}
	.st94{clip-path:url(#SVGID_5_);fill:#302C2D;}
	.st95{clip-path:url(#SVGID_5_);fill:#302D2D;}
	.st96{clip-path:url(#SVGID_5_);fill:#312D2E;}
	.st97{clip-path:url(#SVGID_5_);fill:#322E2F;}
	.st98{clip-path:url(#SVGID_5_);fill:#322F2F;}
	.st99{clip-path:url(#SVGID_5_);fill:#332F30;}
	.st100{clip-path:url(#SVGID_5_);fill:#343031;}
	.st101{clip-path:url(#SVGID_5_);fill:#353132;}
	.st102{clip-path:url(#SVGID_5_);fill:#353232;}
	.st103{clip-path:url(#SVGID_5_);fill:#363233;}
	.st104{clip-path:url(#SVGID_5_);fill:#373434;}
	.st105{clip-path:url(#SVGID_5_);fill:#383435;}
	.st106{clip-path:url(#SVGID_5_);fill:#393536;}
	.st107{clip-path:url(#SVGID_5_);fill:#3A3637;}
	.st108{clip-path:url(#SVGID_5_);fill:#3A3737;}
	.st109{clip-path:url(#SVGID_5_);fill:#3B3738;}
	.st110{clip-path:url(#SVGID_5_);fill:#3C3839;}
	.st111{clip-path:url(#SVGID_5_);fill:#3C3939;}
	.st112{clip-path:url(#SVGID_5_);fill:#3D393A;}
	.st113{clip-path:url(#SVGID_5_);fill:#3E3A3A;}
	.st114{clip-path:url(#SVGID_5_);fill:#3E3B3B;}
	.st115{clip-path:url(#SVGID_5_);fill:#3F3B3C;}
	.st116{clip-path:url(#SVGID_5_);fill:#262323;}
	.st117{clip-path:url(#SVGID_5_);fill:#272324;}
	.st118{clip-path:url(#SVGID_5_);fill:#282425;}
	.st119{clip-path:url(#SVGID_5_);fill:#282525;}
	.st120{clip-path:url(#SVGID_5_);fill:#292526;}
	.st121{clip-path:url(#SVGID_5_);fill:#2A2627;}
	.st122{clip-path:url(#SVGID_5_);fill:#2B2728;}
	.st123{clip-path:url(#SVGID_5_);fill:#2B2828;}
	.st124{clip-path:url(#SVGID_5_);fill:#2C2829;}
	.st125{clip-path:url(#SVGID_5_);fill:#2D292A;}
	.st126{clip-path:url(#SVGID_5_);fill:#494546;}
	.st127{clip-path:url(#SVGID_5_);fill:#4A4647;}
	.st128{clip-path:url(#SVGID_5_);fill:#4A4747;}
	.st129{clip-path:url(#SVGID_5_);fill:#4B4748;}
	.st130{clip-path:url(#SVGID_5_);fill:#434040;}
	.st131{clip-path:url(#SVGID_5_);fill:#444041;}
	.st132{clip-path:url(#SVGID_5_);fill:#454141;}
	.st133{clip-path:url(#SVGID_5_);fill:#454242;}
	.st134{clip-path:url(#SVGID_5_);fill:#464243;}
	.st135{clip-path:url(#SVGID_5_);fill:#474343;}
	.st136{clip-path:url(#SVGID_5_);fill:#474344;}
	.st137{clip-path:url(#SVGID_5_);fill:#484445;}
	.st138{clip-path:url(#SVGID_5_);fill:#484545;}
	.st139{clip-path:url(#SVGID_5_);fill:#433F40;}
	.st140{clip-path:url(#SVGID_5_);fill:#4C4949;}
	.st141{clip-path:url(#SVGID_5_);fill:#4D494A;}
	.st142{clip-path:url(#SVGID_5_);fill:#4E4A4B;}
	.st143{clip-path:url(#SVGID_5_);fill:#4E4B4B;}
	.st144{clip-path:url(#SVGID_5_);fill:#4F4B4C;}
	.st145{clip-path:url(#SVGID_5_);fill:#504C4D;}
	.st146{clip-path:url(#SVGID_5_);fill:#504D4D;}
	.st147{clip-path:url(#SVGID_5_);fill:#514D4E;}
	.st148{clip-path:url(#SVGID_5_);fill:#524E4F;}
	.st149{clip-path:url(#SVGID_5_);fill:#524F4F;}
	.st150{clip-path:url(#SVGID_5_);fill:#231F20;}
	.st151{clip-path:url(#SVGID_5_);fill:#242021;}
	.st152{clip-path:url(#SVGID_5_);fill:#242121;}
	.st153{clip-path:url(#SVGID_5_);fill:#252122;}
	.st154{clip-path:url(#SVGID_5_);fill:#262223;}
	.st155{clip-path:url(#SVGID_5_);fill:#4C4849;}
	.st156{clip-path:url(#SVGID_5_);fill:#919092;}
	.st157{clip-path:url(#SVGID_5_);fill:#929193;}
	.st158{clip-path:url(#SVGID_5_);fill:#939194;}
	.st159{clip-path:url(#SVGID_5_);fill:#939295;}
	.st160{clip-path:url(#SVGID_5_);fill:#949395;}
	.st161{clip-path:url(#SVGID_5_);fill:#959496;}
	.st162{clip-path:url(#SVGID_5_);fill:#969597;}
	.st163{clip-path:url(#SVGID_5_);fill:#979698;}
	.st164{clip-path:url(#SVGID_5_);fill:#989799;}
	.st165{clip-path:url(#SVGID_5_);fill:#99989A;}
	.st166{clip-path:url(#SVGID_5_);fill:#9A999B;}
	.st167{clip-path:url(#SVGID_5_);fill:#9A9A9C;}
	.st168{clip-path:url(#SVGID_5_);fill:#9B9B9D;}
	.st169{clip-path:url(#SVGID_5_);fill:#908F91;}
	.st170{clip-path:url(#SVGID_5_);fill:#9D9D9F;}
	.st171{clip-path:url(#SVGID_5_);fill:#9E9EA0;}
	.st172{clip-path:url(#SVGID_5_);fill:#9F9FA1;}
	.st173{clip-path:url(#SVGID_5_);fill:#A0A0A2;}
	.st174{clip-path:url(#SVGID_5_);fill:#A1A1A3;}
	.st175{clip-path:url(#SVGID_5_);fill:#A1A2A4;}
	.st176{clip-path:url(#SVGID_5_);fill:#A2A3A5;}
	.st177{clip-path:url(#SVGID_5_);fill:#A3A4A6;}
	.st178{clip-path:url(#SVGID_5_);fill:#A4A5A7;}
	.st179{clip-path:url(#SVGID_5_);fill:#A5A6A8;}
	.st180{clip-path:url(#SVGID_5_);fill:#868486;}
	.st181{clip-path:url(#SVGID_5_);fill:#878587;}
	.st182{clip-path:url(#SVGID_5_);fill:#888688;}
	.st183{clip-path:url(#SVGID_5_);fill:#888788;}
	.st184{clip-path:url(#SVGID_5_);fill:#898889;}
	.st185{clip-path:url(#SVGID_5_);fill:#8A888A;}
	.st186{clip-path:url(#SVGID_5_);fill:#8B898B;}
	.st187{clip-path:url(#SVGID_5_);fill:#8C8A8C;}
	.st188{clip-path:url(#SVGID_5_);fill:#8D8B8D;}
	.st189{clip-path:url(#SVGID_5_);fill:#8D8C8E;}
	.st190{clip-path:url(#SVGID_5_);fill:#8E8D8F;}
	.st191{clip-path:url(#SVGID_5_);fill:#8F8E90;}
	.st192{clip-path:url(#SVGID_5_);fill:#534F50;}
	.st193{clip-path:url(#SVGID_5_);fill:#545051;}
	.st194{clip-path:url(#SVGID_5_);fill:#555151;}
	.st195{clip-path:url(#SVGID_5_);fill:#555252;}
	.st196{clip-path:url(#SVGID_5_);fill:#565253;}
	.st197{clip-path:url(#SVGID_5_);fill:#575354;}
	.st198{clip-path:url(#SVGID_5_);fill:#575454;}
	.st199{clip-path:url(#SVGID_5_);fill:#585455;}
	.st200{clip-path:url(#SVGID_5_);fill:#595556;}
	.st201{clip-path:url(#SVGID_5_);fill:#595656;}
	.st202{clip-path:url(#SVGID_5_);fill:#5A5757;}
	.st203{clip-path:url(#SVGID_5_);fill:#A6A7A9;}
	.st204{clip-path:url(#SVGID_5_);fill:#A7A8AA;}
	.st205{clip-path:url(#SVGID_5_);fill:#A8A9AB;}
	.st206{clip-path:url(#SVGID_5_);fill:#A9AAAC;}
	.st207{clip-path:url(#SVGID_5_);fill:#AAABAE;}
	.st208{clip-path:url(#SVGID_5_);fill:#ABACAF;}
	.st209{clip-path:url(#SVGID_5_);fill:#ACADB0;}
	.st210{clip-path:url(#SVGID_5_);fill:#AEAFB2;}
	.st211{clip-path:url(#SVGID_5_);fill:#AFB1B3;}
	.st212{clip-path:url(#SVGID_5_);fill:#828081;}
	.st213{clip-path:url(#SVGID_5_);fill:#838182;}
	.st214{clip-path:url(#SVGID_5_);fill:#838183;}
	.st215{clip-path:url(#SVGID_5_);fill:#848284;}
	.st216{clip-path:url(#SVGID_5_);fill:#858385;}
	.st217{clip-path:url(#SVGID_5_);fill:#615D5E;}
	.st218{clip-path:url(#SVGID_5_);fill:#615E5F;}
	.st219{clip-path:url(#SVGID_5_);fill:#625F5F;}
	.st220{clip-path:url(#SVGID_5_);fill:#635F60;}
	.st221{clip-path:url(#SVGID_5_);fill:#646061;}
	.st222{clip-path:url(#SVGID_5_);fill:#646162;}
	.st223{clip-path:url(#SVGID_5_);fill:#656262;}
	.st224{clip-path:url(#SVGID_5_);fill:#666263;}
	.st225{clip-path:url(#SVGID_5_);fill:#676364;}
	.st226{clip-path:url(#SVGID_5_);fill:#676465;}
	.st227{clip-path:url(#SVGID_5_);fill:#686566;}
	.st228{clip-path:url(#SVGID_5_);fill:#696566;}
	.st229{clip-path:url(#SVGID_5_);fill:#6A6667;}
	.st230{clip-path:url(#SVGID_5_);fill:#6A6768;}
	.st231{clip-path:url(#SVGID_5_);fill:#5B5758;}
	.st232{clip-path:url(#SVGID_5_);fill:#5C5859;}
	.st233{clip-path:url(#SVGID_5_);fill:#5C5959;}
	.st234{clip-path:url(#SVGID_5_);fill:#5D595A;}
	.st235{clip-path:url(#SVGID_5_);fill:#5E5A5B;}
	.st236{clip-path:url(#SVGID_5_);fill:#5E5B5C;}
	.st237{clip-path:url(#SVGID_5_);fill:#5F5C5C;}
	.st238{clip-path:url(#SVGID_5_);fill:#605C5D;}
	.st239{clip-path:url(#SVGID_5_);fill:#797678;}
	.st240{clip-path:url(#SVGID_5_);fill:#7A7779;}
	.st241{clip-path:url(#SVGID_5_);fill:#7B7879;}
	.st242{clip-path:url(#SVGID_5_);fill:#7B797A;}
	.st243{clip-path:url(#SVGID_5_);fill:#7C7A7B;}
	.st244{clip-path:url(#SVGID_5_);fill:#7D7B7C;}
	.st245{clip-path:url(#SVGID_5_);fill:#7E7B7D;}
	.st246{clip-path:url(#SVGID_5_);fill:#7F7C7E;}
	.st247{clip-path:url(#SVGID_5_);fill:#7F7D7F;}
	.st248{clip-path:url(#SVGID_5_);fill:#807E80;}
	.st249{clip-path:url(#SVGID_5_);fill:#817F80;}
	.st250{clip-path:url(#SVGID_5_);fill:#716E6F;}
	.st251{clip-path:url(#SVGID_5_);fill:#726F70;}
	.st252{clip-path:url(#SVGID_5_);fill:#737071;}
	.st253{clip-path:url(#SVGID_5_);fill:#747172;}
	.st254{clip-path:url(#SVGID_5_);fill:#747273;}
	.st255{clip-path:url(#SVGID_5_);fill:#757274;}
	.st256{clip-path:url(#SVGID_5_);fill:#767374;}
	.st257{clip-path:url(#SVGID_5_);fill:#777475;}
	.st258{clip-path:url(#SVGID_5_);fill:#787576;}
	.st259{clip-path:url(#SVGID_5_);fill:#787677;}
	.st260{clip-path:url(#SVGID_5_);fill:#6B6869;}
	.st261{clip-path:url(#SVGID_5_);fill:#6C696A;}
	.st262{clip-path:url(#SVGID_5_);fill:#6D696A;}
	.st263{clip-path:url(#SVGID_5_);fill:#6D6A6B;}
	.st264{clip-path:url(#SVGID_5_);fill:#6E6B6C;}
	.st265{clip-path:url(#SVGID_5_);fill:#6F6C6D;}
	.st266{clip-path:url(#SVGID_5_);fill:#706D6E;}
	.st267{clip-path:url(#SVGID_5_);fill:#706D6F;}
	.st268{clip-path:url(#SVGID_5_);fill:#9C9C9E;}
	.st269{fill:#010101;}
	.st270{fill-rule:evenodd;clip-rule:evenodd;fill:#0F72A3;}
</style>
<g>
	<g id="Image_3_">
		<g>
			<g>
				<g>
					<path class="st0" d="M265.2,424.5c-0.8-0.1-1.4-0.8-1.3-1.6c0.1-0.8,0.8-1.4,1.6-1.3c0.8,0.1,1.4,0.8,1.3,1.6
						C266.8,424,266,424.6,265.2,424.5z"/>
				</g>
				<g>
					<path class="st0" d="M243,419.1c-1.8-0.2-3.1-1.9-2.9-3.7c0.2-1.8,1.9-3.1,3.7-2.9c1.8,0.2,3.1,1.9,2.9,3.7
						C246.5,418,244.8,419.3,243,419.1z"/>
				</g>
				<g>
					<path class="st0" d="M222.8,408.4c-2.5-0.3-4.3-2.6-4-5.2c0.3-2.5,2.6-4.3,5.2-4c2.5,0.3,4.3,2.6,4,5.2
						C227.6,406.9,225.3,408.7,222.8,408.4z"/>
				</g>
				<g>
					<path class="st0" d="M205.7,393.2c-3.1-0.4-5.3-3.2-4.9-6.3c0.4-3.1,3.2-5.3,6.3-4.9c3.1,0.4,5.3,3.2,4.9,6.3
						C211.6,391.4,208.8,393.6,205.7,393.2z"/>
				</g>
				<g>
					<path class="st0" d="M192.7,374.4c-3.5-0.4-6-3.6-5.5-7.1c0.4-3.5,3.6-6,7.1-5.5c3.5,0.4,6,3.6,5.5,7.1
						C199.3,372.4,196.2,374.8,192.7,374.4z"/>
				</g>
				<g>
					<path class="st0" d="M184.6,353c-3.7-0.5-6.4-3.9-5.9-7.6c0.5-3.7,3.9-6.4,7.6-5.9c3.7,0.5,6.4,3.9,5.9,7.6
						C191.7,350.8,188.3,353.5,184.6,353z"/>
				</g>
				<g>
					<path class="st0" d="M181.8,330.3c-3.9-0.5-6.6-4-6.1-7.8c0.5-3.9,4-6.6,7.8-6.1c3.9,0.5,6.6,4,6.1,7.8
						C189.2,328,185.7,330.8,181.8,330.3z"/>
				</g>
				<g>
					<path class="st0" d="M184.6,307.6c-3.9-0.5-6.6-4-6.2-7.9c0.5-3.9,4-6.6,7.9-6.2c3.9,0.5,6.6,4,6.2,7.9
						C192,305.4,188.5,308.1,184.6,307.6z"/>
				</g>
				<g>
					<path class="st0" d="M192.7,286.3c-3.8-0.5-6.5-3.9-6-7.7c0.5-3.8,3.9-6.5,7.7-6c3.8,0.5,6.5,3.9,6,7.7
						C199.9,284.1,196.5,286.8,192.7,286.3z"/>
				</g>
				<g>
					<path class="st0" d="M205.7,267.6c-3.6-0.4-6.1-3.7-5.7-7.3c0.4-3.6,3.7-6.1,7.3-5.7c3.6,0.4,6.1,3.7,5.7,7.3
						C212.5,265.5,209.3,268.1,205.7,267.6z"/>
				</g>
				<g>
					<path class="st0" d="M222.8,252.6c-3.2-0.4-5.6-3.3-5.2-6.6c0.4-3.2,3.3-5.6,6.6-5.2c3.2,0.4,5.6,3.3,5.2,6.6
						C229,250.7,226,253,222.8,252.6z"/>
				</g>
				<g>
					<path class="st0" d="M243,242c-2.7-0.3-4.7-2.8-4.3-5.5c0.3-2.7,2.8-4.7,5.5-4.3c2.7,0.3,4.7,2.8,4.3,5.5
						C248.2,240.4,245.7,242.3,243,242z"/>
				</g>
				<g>
					<path class="st0" d="M265.2,236.6c-2.1-0.3-3.5-2.1-3.3-4.2c0.2-2.1,2.1-3.5,4.2-3.3c2.1,0.3,3.5,2.1,3.3,4.2
						C269.1,235.4,267.3,236.9,265.2,236.6z"/>
				</g>
				<g>
					<path class="st0" d="M288.1,236.8c-1.1-0.1-1.9-1.1-1.7-2.2c0.1-1.1,1.1-1.9,2.2-1.7c1.1,0.1,1.9,1.1,1.7,2.2
						C290.2,236.1,289.2,236.9,288.1,236.8z"/>
				</g>
			</g>
			<g>
				<g>
					<path class="st1" d="M208.8,415.2c-0.8-0.5-1-1.5-0.5-2.3c0.5-0.8,1.5-1,2.3-0.5c0.8,0.5,1,1.5,0.5,2.3
						C210.5,415.5,209.5,415.7,208.8,415.2z"/>
				</g>
				<g>
					<path class="st1" d="M189,399.3c-1.7-1.1-2.3-3.3-1.2-5.1c1.1-1.7,3.3-2.3,5.1-1.2c1.7,1.1,2.3,3.3,1.2,5.1
						C193,399.8,190.7,400.4,189,399.3z"/>
				</g>
				<g>
					<path class="st1" d="M173.6,379.1c-2.4-1.5-3.1-4.7-1.6-7.1c1.5-2.4,4.7-3.2,7.1-1.6c2.4,1.5,3.2,4.7,1.6,7.1
						C179.2,379.8,176,380.6,173.6,379.1z"/>
				</g>
				<g>
					<path class="st1" d="M163.5,355.7c-2.9-1.8-3.8-5.7-2-8.7c1.8-2.9,5.7-3.8,8.7-2c2.9,1.8,3.8,5.7,2,8.7
						C170.3,356.7,166.4,357.6,163.5,355.7z"/>
				</g>
				<g>
					<path class="st1" d="M159.2,330.7c-3.3-2.1-4.3-6.4-2.3-9.7c2.1-3.3,6.4-4.3,9.7-2.3c3.3,2.1,4.3,6.4,2.3,9.7
						C166.9,331.7,162.5,332.7,159.2,330.7z"/>
				</g>
				<g>
					<path class="st1" d="M161.1,305.3c-3.6-2.2-4.6-6.9-2.4-10.4c2.2-3.6,6.9-4.6,10.4-2.4c3.6,2.2,4.6,6.9,2.4,10.4
						C169.3,306.5,164.7,307.5,161.1,305.3z"/>
				</g>
				<g>
					<path class="st1" d="M169,281.2c-3.7-2.3-4.8-7.1-2.5-10.8c2.3-3.7,7.1-4.8,10.8-2.5c3.7,2.3,4.8,7.1,2.5,10.8
						C177.5,282.3,172.7,283.5,169,281.2z"/>
				</g>
				<g>
					<path class="st1" d="M182.4,259.6c-3.7-2.3-4.8-7.1-2.5-10.8c2.3-3.7,7.1-4.8,10.8-2.5c3.7,2.3,4.8,7.1,2.5,10.8
						C191,260.8,186.1,261.9,182.4,259.6z"/>
				</g>
				<g>
					<path class="st1" d="M200.6,242c-3.6-2.3-4.7-7-2.5-10.6c2.3-3.6,7-4.7,10.6-2.5c3.6,2.3,4.7,7,2.5,10.6
						C208.9,243.1,204.2,244.2,200.6,242z"/>
				</g>
				<g>
					<path class="st1" d="M222.4,229.2c-3.4-2.1-4.4-6.6-2.3-10c2.1-3.4,6.6-4.4,10-2.3c3.4,2.1,4.4,6.6,2.3,10
						C230.3,230.3,225.9,231.4,222.4,229.2z"/>
				</g>
				<g>
					<path class="st1" d="M246.8,222.1c-3.1-1.9-4-6-2.1-9.1c1.9-3.1,6-4,9.1-2.1c3.1,1.9,4,6,2.1,9.1
						C253.9,223.1,249.8,224,246.8,222.1z"/>
				</g>
				<g>
					<path class="st1" d="M272.1,221c-2.6-1.6-3.4-5-1.8-7.6c1.6-2.6,5-3.4,7.6-1.8c2.6,1.6,3.4,5,1.8,7.6
						C278.1,221.8,274.7,222.6,272.1,221z"/>
				</g>
				<g>
					<path class="st1" d="M297,226c-2-1.2-2.5-3.8-1.3-5.7c1.2-2,3.8-2.6,5.7-1.3c2,1.2,2.6,3.8,1.3,5.7
						C301.5,226.6,298.9,227.2,297,226z"/>
				</g>
				<g>
					<path class="st1" d="M319.9,236.8c-1-0.6-1.4-2-0.7-3.1c0.7-1,2-1.4,3.1-0.7c1,0.6,1.4,2,0.7,3.1
						C322.3,237.2,321,237.5,319.9,236.8z"/>
				</g>
			</g>
			<g>
				<g>
					<path class="st2" d="M156.3,379.3c-0.5-0.8-0.3-2,0.5-2.5c0.8-0.5,2-0.3,2.5,0.5c0.6,0.8,0.3,2-0.5,2.5
						C157.9,380.4,156.8,380.2,156.3,379.3z"/>
				</g>
				<g>
					<path class="st2" d="M143.8,354c-1.2-1.9-0.7-4.4,1.2-5.7c1.9-1.2,4.4-0.7,5.7,1.2c1.2,1.9,0.7,4.4-1.2,5.7
						C147.6,356.4,145,355.9,143.8,354z"/>
				</g>
				<g>
					<path class="st2" d="M137.8,326.4c-1.7-2.6-1-6.2,1.7-7.9c2.6-1.7,6.2-1,7.9,1.7c1.7,2.6,1,6.2-1.7,7.9
						C143.1,329.8,139.5,329,137.8,326.4z"/>
				</g>
				<g>
					<path class="st2" d="M138.6,298.2c-2.1-3.2-1.2-7.6,2-9.7c3.2-2.1,7.5-1.2,9.7,2c2.1,3.2,1.2,7.5-2,9.6
						C145,302.3,140.7,301.4,138.6,298.2z"/>
				</g>
				<g>
					<path class="st2" d="M146.1,270.9c-2.4-3.6-1.3-8.5,2.3-10.9c3.6-2.4,8.5-1.3,10.9,2.3c2.4,3.6,1.3,8.5-2.3,10.9
						C153.3,275.6,148.4,274.6,146.1,270.9z"/>
				</g>
				<g>
					<path class="st2" d="M159.9,246.3c-2.5-3.9-1.4-9.1,2.5-11.7c3.9-2.5,9.1-1.4,11.7,2.5c2.5,3.9,1.4,9.1-2.5,11.7
						C167.6,251.3,162.4,250.2,159.9,246.3z"/>
				</g>
				<g>
					<path class="st2" d="M179.2,225.7c-2.6-4-1.5-9.4,2.5-12c4-2.6,9.4-1.5,12,2.5c2.6,4,1.5,9.4-2.5,12
						C187.2,230.8,181.8,229.7,179.2,225.7z"/>
				</g>
				<g>
					<path class="st2" d="M202.8,210.3c-2.6-4-1.5-9.4,2.6-12.1c4-2.6,9.5-1.5,12.1,2.6c2.6,4,1.5,9.4-2.6,12.1
						C210.8,215.5,205.4,214.3,202.8,210.3z"/>
				</g>
				<g>
					<path class="st2" d="M229.4,201c-2.6-4-1.5-9.3,2.5-11.8c4-2.6,9.3-1.5,11.8,2.5c2.6,4,1.5,9.3-2.5,11.8
						C237.2,206.1,231.9,205,229.4,201z"/>
				</g>
				<g>
					<path class="st2" d="M257.4,198.5c-2.4-3.7-1.4-8.7,2.4-11.2c3.7-2.4,8.7-1.4,11.2,2.4c2.4,3.7,1.4,8.7-2.4,11.2
						C264.8,203.3,259.8,202.2,257.4,198.5z"/>
				</g>
				<g>
					<path class="st2" d="M285.2,202.7c-2.2-3.4-1.2-7.9,2.1-10.1c3.4-2.2,7.9-1.2,10.1,2.1c2.2,3.4,1.2,7.9-2.1,10.1
						C291.9,207,287.4,206.1,285.2,202.7z"/>
				</g>
				<g>
					<path class="st2" d="M311.2,213.4c-1.9-2.8-1.1-6.7,1.8-8.5c2.8-1.9,6.7-1,8.5,1.8c1.9,2.8,1,6.7-1.8,8.5
						C316.9,217.1,313.1,216.3,311.2,213.4z"/>
				</g>
				<g>
					<path class="st2" d="M333.9,230.2c-1.4-2.1-0.8-5,1.4-6.4c2.1-1.4,5-0.8,6.4,1.4c1.4,2.1,0.8,5-1.4,6.4
						C338.2,232.9,335.3,232.3,333.9,230.2z"/>
				</g>
				<g>
					<path class="st2" d="M352,251.9c-0.7-1.1-0.4-2.7,0.7-3.4c1.1-0.7,2.7-0.4,3.4,0.7c0.7,1.2,0.4,2.7-0.7,3.4
						C354.2,253.3,352.7,253,352,251.9z"/>
				</g>
			</g>
			<g>
				<g>
					<path class="st3" d="M120.3,318.5c-0.2-1.1,0.6-2.1,1.7-2.3c1.1-0.2,2.1,0.6,2.3,1.7c0.2,1.1-0.6,2.1-1.7,2.3
						C121.4,320.4,120.4,319.6,120.3,318.5z"/>
				</g>
				<g>
					<path class="st3" d="M119.6,287.1c-0.4-2.5,1.4-4.8,3.9-5.1c2.5-0.4,4.8,1.4,5.1,3.9c0.4,2.5-1.4,4.8-3.9,5.1
						C122.3,291.4,120,289.6,119.6,287.1z"/>
				</g>
				<g>
					<path class="st3" d="M126.5,256.5c-0.5-3.5,1.9-6.7,5.4-7.2c3.5-0.5,6.7,1.9,7.2,5.4c0.5,3.5-1.9,6.7-5.4,7.2
						C130.2,262.4,127,260,126.5,256.5z"/>
				</g>
				<g>
					<path class="st3" d="M140.6,228.5c-0.6-4.2,2.4-8.2,6.6-8.8c4.2-0.6,8.2,2.3,8.8,6.6c0.6,4.2-2.3,8.2-6.6,8.8
						C145.1,235.7,141.2,232.7,140.6,228.5z"/>
				</g>
				<g>
					<path class="st3" d="M160.9,204.6c-0.7-4.8,2.6-9.2,7.4-9.9c4.8-0.7,9.2,2.6,9.8,7.4c0.7,4.8-2.6,9.2-7.4,9.9
						C166,212.7,161.6,209.4,160.9,204.6z"/>
				</g>
				<g>
					<path class="st3" d="M186.3,186.2c-0.7-5.1,2.8-9.8,7.9-10.6c5.1-0.7,9.9,2.8,10.6,7.9c0.7,5.1-2.8,9.9-8,10.6
						C191.8,194.9,187.1,191.3,186.3,186.2z"/>
				</g>
				<g>
					<path class="st3" d="M215.5,174.5c-0.7-5.3,2.9-10.2,8.2-10.9c5.3-0.8,10.2,2.9,10.9,8.2c0.7,5.3-2.9,10.2-8.2,10.9
						C221.1,183.5,216.2,179.8,215.5,174.5z"/>
				</g>
				<g>
					<path class="st3" d="M246.5,170.1c-0.8-5.3,2.9-10.2,8.2-11c5.3-0.8,10.2,2.9,11,8.2c0.8,5.3-2.9,10.2-8.2,11
						C252.1,179.1,247.2,175.4,246.5,170.1z"/>
				</g>
				<g>
					<path class="st3" d="M277.6,173.3c-0.7-5.2,2.9-10,8.1-10.8c5.2-0.7,10,2.9,10.7,8.1c0.7,5.2-2.9,10-8.1,10.7
						C283.1,182.1,278.3,178.5,277.6,173.3z"/>
				</g>
				<g>
					<path class="st3" d="M307,183.9c-0.7-4.9,2.7-9.5,7.6-10.1c4.9-0.7,9.5,2.7,10.1,7.6c0.7,4.9-2.7,9.4-7.6,10.1
						C312.2,192.2,307.7,188.8,307,183.9z"/>
				</g>
				<g>
					<path class="st3" d="M333,201.2c-0.6-4.4,2.5-8.6,6.9-9.2c4.4-0.6,8.5,2.5,9.2,6.9c0.6,4.4-2.5,8.5-6.9,9.2
						C337.8,208.7,333.7,205.6,333,201.2z"/>
				</g>
				<g>
					<path class="st3" d="M354.2,224.3c-0.5-3.7,2.1-7.2,5.8-7.7c3.7-0.5,7.2,2.1,7.7,5.8c0.5,3.7-2.1,7.2-5.8,7.7
						C358.2,230.6,354.7,228,354.2,224.3z"/>
				</g>
				<g>
					<path class="st3" d="M369.2,251.7c-0.4-2.8,1.6-5.4,4.4-5.8c2.8-0.4,5.4,1.6,5.8,4.4c0.4,2.8-1.6,5.4-4.4,5.8
						C372.2,256.5,369.6,254.6,369.2,251.7z"/>
				</g>
				<g>
					<path class="st3" d="M377.2,282.1c-0.2-1.5,0.8-2.9,2.3-3.1c1.5-0.2,2.9,0.8,3.1,2.3c0.2,1.5-0.8,2.9-2.3,3.1
						C378.8,284.6,377.4,283.6,377.2,282.1z"/>
				</g>
			</g>
		</g>
		<g class="st4">
			<g>
				<defs>
					<path id="SVGID_1_" d="M173.7,379.1c-0.1,0-0.1-0.1-0.2-0.1c-2.4-1.5-3.1-4.7-1.6-7.1c1.5-2.4,4.7-3.2,7.1-1.6
						c0.3,0.2,0.6,0.5,0.9,0.7c-2.4-1.4-5.4-0.6-6.9,1.7C171.7,374.9,172.1,377.5,173.7,379.1z M181.9,352.1
						c-1.6-1.4-2.5-3.6-2.2-5.8c0.5-3.7,3.9-6.4,7.6-5.9c1,0.1,1.9,0.5,2.7,0.9c-1-0.9-2.3-1.6-3.8-1.7c-3.7-0.5-7.1,2.2-7.6,5.9
						C178.3,348.2,179.6,350.7,181.9,352.1z M188.9,395c1-1.6,3-2.1,4.7-1.3c-0.2-0.2-0.4-0.5-0.7-0.7c-1.7-1.1-4-0.5-5.1,1.2
						c-1.1,1.7-0.5,4,1.2,5.1c0.1,0.1,0.2,0.1,0.4,0.1C188.2,398.2,188,396.5,188.9,395z M157.9,377.6c0.5-0.3,1-0.3,1.5-0.2
						c0,0,0,0,0-0.1c-0.6-0.8-1.7-1.1-2.5-0.5c-0.8,0.5-1.1,1.7-0.5,2.5c0.3,0.4,0.6,0.6,1.1,0.8C156.8,379.2,157,378.1,157.9,377.6
						z M201.8,387.8c0.4-3.1,3.2-5.3,6.3-4.9c0.8,0.1,1.5,0.3,2.1,0.7c-0.8-0.8-1.9-1.4-3.2-1.5c-3.1-0.4-5.9,1.8-6.3,4.9
						c-0.3,2.3,0.9,4.5,2.8,5.6C202.3,391.4,201.6,389.6,201.8,387.8z M162.6,347.9c1.8-2.9,5.6-3.8,8.6-2c-0.3-0.3-0.6-0.5-1-0.8
						c-2.9-1.8-6.8-0.9-8.7,2c-1.8,2.9-0.9,6.8,2,8.7c0,0,0.1,0,0.1,0C161.4,353.8,160.9,350.5,162.6,347.9z M159.3,330.7
						c-2.5-2.2-3.1-6-1.3-9c2-3.3,6.3-4.3,9.6-2.3c-0.3-0.3-0.6-0.5-1-0.8c-3.3-2.1-7.7-1.1-9.7,2.3
						C154.9,324.3,155.9,328.6,159.3,330.7C159.3,330.7,159.3,330.7,159.3,330.7z M265,423.7c0.1-0.8,0.8-1.4,1.6-1.3c0,0,0,0,0,0
						c-0.2-0.4-0.6-0.8-1.1-0.8c-0.8-0.1-1.5,0.5-1.6,1.3c-0.1,0.8,0.5,1.5,1.2,1.6C265.1,424.3,265,424,265,423.7z M244.2,232.1
						c-2.7-0.3-5.2,1.6-5.5,4.3c-0.3,2.1,0.8,4,2.6,5c-1.1-1-1.7-2.6-1.5-4.2c0.3-2.7,2.8-4.7,5.5-4.3c0.6,0.1,1.2,0.3,1.8,0.6
						C246.3,232.8,245.3,232.3,244.2,232.1z M259.9,200.9c-0.5-0.5-1-1-1.5-1.6c-2.4-3.7-1.4-8.7,2.4-11.2c2.7-1.8,6.1-1.7,8.6-0.1
						c-2.7-2.3-6.6-2.8-9.7-0.7c-3.7,2.4-4.8,7.4-2.4,11.2C258,199.5,258.9,200.3,259.9,200.9z M219.8,404.1c0.3-2.5,2.6-4.3,5.2-4
						c0.6,0.1,1.1,0.3,1.6,0.5c-0.7-0.7-1.6-1.2-2.7-1.3c-2.5-0.3-4.8,1.5-5.2,4c-0.2,1.9,0.8,3.8,2.4,4.6
						C220.2,406.9,219.6,405.6,219.8,404.1z M209.3,413.8c0.4-0.6,1.1-0.9,1.7-0.7c-0.1-0.2-0.3-0.5-0.5-0.6
						c-0.8-0.5-1.8-0.2-2.3,0.5c-0.5,0.8-0.2,1.8,0.5,2.3c0.2,0.1,0.3,0.2,0.5,0.2C209,414.9,209,414.3,209.3,413.8z M241.2,416.2
						c0.2-1.8,1.9-3.1,3.7-2.9c0.4,0,0.7,0.2,1,0.3c-0.5-0.6-1.2-1-2.1-1.2c-1.8-0.2-3.5,1.1-3.7,2.9c-0.2,1.4,0.6,2.8,1.9,3.4
						C241.4,418,241.1,417.1,241.2,416.2z M178.4,299.8c-0.3,2.8,1,5.5,3.3,6.9c-1.6-1.5-2.5-3.7-2.3-6.1c0.5-3.9,4-6.6,7.9-6.2
						c1,0.1,2,0.5,2.8,1c-1.1-1-2.4-1.6-3.9-1.8C182.4,293.1,178.9,295.9,178.4,299.8z M179,329.3c-1.6-1.5-2.5-3.7-2.2-6
						c0.5-3.9,4-6.6,7.8-6.1c1,0.1,2,0.5,2.8,1c-1-1-2.4-1.6-3.9-1.8c-3.9-0.5-7.4,2.3-7.8,6.1C175.4,325.3,176.7,327.9,179,329.3z
						 M263,233.3c0.3-2.1,2.1-3.5,4.2-3.3c0.4,0.1,0.8,0.2,1.2,0.4c-0.6-0.6-1.4-1.1-2.3-1.2c-2.1-0.3-3.9,1.2-4.2,3.3
						c-0.2,1.6,0.7,3.1,2.1,3.8C263.3,235.5,262.9,234.4,263,233.3z M190.2,373.6c-1.5-1.3-2.3-3.3-2-5.4c0.4-3.5,3.6-6,7.1-5.5
						c0.9,0.1,1.7,0.4,2.4,0.8c-0.9-0.9-2.2-1.5-3.5-1.6c-3.5-0.4-6.7,2.1-7.1,5.5C186.8,369.9,188.1,372.3,190.2,373.6z
						 M144.9,354.8c-1.2-1.9-0.7-4.4,1.2-5.7c1.3-0.8,2.9-0.8,4.1-0.2c-1.3-1.4-3.5-1.7-5.2-0.6c-1.9,1.2-2.4,3.8-1.2,5.7
						c0.4,0.6,0.9,1.1,1.5,1.4C145.2,355.2,145,355,144.9,354.8z M138.9,327.2c-1.7-2.6-1-6.2,1.7-7.9c1.9-1.2,4.2-1.2,6-0.1
						c-1.9-1.8-4.8-2.2-7.1-0.7c-2.6,1.7-3.4,5.3-1.7,7.9c0.5,0.8,1.2,1.3,1.9,1.8C139.4,327.9,139.1,327.6,138.9,327.2z
						 M203.1,266.8c-1.5-1.4-2.3-3.4-2.1-5.6c0.4-3.6,3.7-6.1,7.3-5.7c0.9,0.1,1.8,0.4,2.5,0.9c-1-0.9-2.2-1.5-3.6-1.7
						c-3.6-0.4-6.8,2.1-7.3,5.7C199.6,263,201,265.5,203.1,266.8z M194.3,272.6c-3.8-0.5-7.3,2.2-7.7,6c-0.3,2.8,1,5.4,3.3,6.8
						c-1.6-1.5-2.5-3.6-2.2-5.9c0.5-3.8,3.9-6.5,7.7-6c1,0.1,1.9,0.5,2.8,1C197.1,273.4,195.8,272.8,194.3,272.6z M158.7,294.9
						c-2.2,3.5-1.1,8.2,2.4,10.4c0,0,0.1,0,0.1,0c-2.7-2.4-3.4-6.5-1.4-9.7c2.2-3.5,6.8-4.6,10.4-2.5c-0.3-0.3-0.6-0.5-1-0.8
						C165.6,290.3,160.9,291.3,158.7,294.9z M140.6,288.5c-3.2,2.1-4.1,6.4-2,9.7c0.6,0.9,1.4,1.6,2.2,2.1c-0.4-0.4-0.8-0.8-1.2-1.3
						c-2.1-3.2-1.2-7.6,2-9.7c2.3-1.5,5.2-1.4,7.4-0.1C146.8,287.1,143.4,286.7,140.6,288.5z M169,281.2
						C169,281.2,169.1,281.2,169,281.2c-2.8-2.4-3.5-6.7-1.4-10c2.3-3.6,7-4.8,10.7-2.5c-0.3-0.3-0.6-0.5-1-0.8
						c-3.7-2.3-8.5-1.2-10.8,2.5C164.2,274.1,165.3,278.9,169,281.2z M182.4,259.6C182.4,259.7,182.5,259.7,182.4,259.6
						c-2.8-2.5-3.5-6.7-1.4-10c2.3-3.7,7.1-4.8,10.7-2.5c-0.3-0.3-0.6-0.5-1-0.8c-3.7-2.3-8.5-1.2-10.8,2.5
						C177.6,252.5,178.7,257.3,182.4,259.6z M220.6,251.8c-1.3-1.2-2.1-3.1-1.9-5c0.4-3.2,3.3-5.6,6.6-5.2c0.8,0.1,1.6,0.4,2.2,0.7
						c-0.9-0.8-2-1.4-3.3-1.5c-3.2-0.4-6.2,1.9-6.6,5.2C217.3,248.4,218.5,250.7,220.6,251.8z M198.1,231.4
						c-2.2,3.6-1.1,8.4,2.5,10.6c0,0,0.1,0,0.1,0c-2.8-2.4-3.5-6.6-1.5-9.8c2.2-3.6,6.9-4.7,10.5-2.5c-0.3-0.3-0.6-0.5-1-0.8
						C205.1,226.7,200.4,227.8,198.1,231.4z M220.1,219.2c-2.1,3.4-1.1,7.9,2.3,10c0,0,0.1,0,0.1,0c-2.6-2.3-3.2-6.2-1.3-9.2
						c2.1-3.4,6.5-4.4,9.9-2.4c-0.3-0.3-0.6-0.5-1-0.8C226.7,214.8,222.2,215.8,220.1,219.2z M202.8,210.3c0.7,1.1,1.7,2,2.7,2.6
						c-0.6-0.5-1.2-1.1-1.6-1.8c-2.6-4-1.5-9.5,2.6-12.1c2.9-1.9,6.6-1.8,9.4-0.1c-2.9-2.5-7.1-2.9-10.4-0.7
						C201.3,200.8,200.2,206.2,202.8,210.3z M190.6,192.8c-1.6-1.4-2.8-3.4-3.1-5.7c-0.7-5.1,2.8-9.8,7.9-10.6
						c2.3-0.3,4.5,0.3,6.4,1.4c-2-1.7-4.6-2.6-7.4-2.2c-5.1,0.7-8.7,5.5-7.9,10.6C186.7,189,188.4,191.3,190.6,192.8z M179.2,225.7
						c0.7,1.1,1.7,2,2.7,2.6c-0.6-0.5-1.2-1.1-1.6-1.8c-2.6-4-1.5-9.4,2.5-12c2.9-1.9,6.5-1.8,9.3-0.1c-2.9-2.5-7.1-2.9-10.4-0.7
						C177.7,216.3,176.6,221.6,179.2,225.7z M231.9,189.2c-4,2.6-5.1,7.9-2.5,11.8c0.7,1.1,1.6,1.9,2.7,2.6
						c-0.6-0.5-1.1-1.1-1.6-1.8c-2.6-4-1.5-9.3,2.5-11.8c2.9-1.9,6.4-1.8,9.2-0.1C239.3,187.5,235.1,187.1,231.9,189.2z
						 M246.8,222.1C246.8,222.1,246.8,222.1,246.8,222.1c-2.2-2.1-2.7-5.5-1-8.2c1.9-3.1,5.9-4,9-2.1c-0.3-0.3-0.6-0.5-1-0.8
						c-3.1-1.9-7.1-1-9.1,2.1C242.7,216.1,243.7,220.2,246.8,222.1z M219.8,181.3c-1.7-1.5-2.9-3.5-3.3-5.9
						c-0.7-5.3,2.9-10.2,8.2-10.9c2.4-0.3,4.7,0.3,6.6,1.5c-2-1.8-4.8-2.7-7.7-2.3c-5.3,0.7-8.9,5.6-8.2,10.9
						C215.9,177.4,217.5,179.8,219.8,181.3z M164.9,210.7c-1.5-1.3-2.6-3.1-2.9-5.3c-0.7-4.8,2.6-9.2,7.4-9.9
						c2.1-0.3,4.2,0.2,5.9,1.3c-1.8-1.6-4.3-2.5-7-2.1c-4.8,0.7-8.1,5.1-7.4,9.9C161.3,207.2,162.8,209.4,164.9,210.7z M121.7,320.1
						c-0.2-0.2-0.3-0.5-0.3-0.8c-0.2-1.1,0.6-2.1,1.7-2.3c0.3,0,0.6,0,0.9,0.1c-0.4-0.6-1.2-1-2-0.9c-1.1,0.2-1.9,1.2-1.7,2.3
						C120.4,319.3,120.9,319.9,121.7,320.1z M122,290.5c-0.7-0.7-1.1-1.5-1.3-2.5c-0.4-2.5,1.4-4.8,3.9-5.1c1-0.1,2,0.1,2.8,0.5
						c-1-1-2.4-1.5-3.9-1.3c-2.5,0.4-4.2,2.7-3.9,5.1C119.8,288.6,120.7,289.8,122,290.5z M250.8,176.9c-1.7-1.5-2.9-3.5-3.3-5.9
						c-0.8-5.3,2.9-10.2,8.2-11c2.4-0.3,4.7,0.3,6.6,1.5c-2-1.8-4.8-2.7-7.7-2.3c-5.3,0.8-9,5.7-8.2,11
						C246.9,173,248.6,175.4,250.8,176.9z M159.9,246.3c0.7,1.1,1.6,1.9,2.6,2.5c-0.6-0.5-1.1-1.1-1.6-1.7
						c-2.5-3.9-1.4-9.1,2.5-11.7c2.8-1.8,6.3-1.7,9-0.1c-2.8-2.4-6.9-2.8-10.1-0.7C158.4,237.2,157.3,242.4,159.9,246.3z
						 M129.6,261.1c-1-1-1.8-2.2-2-3.7c-0.5-3.5,1.9-6.7,5.4-7.2c1.5-0.2,2.9,0.1,4.1,0.9c-1.4-1.3-3.2-1.9-5.2-1.7
						c-3.5,0.5-5.9,3.7-5.4,7.2C126.8,258.5,128,260.1,129.6,261.1z M144.2,234c-1.3-1.2-2.3-2.8-2.5-4.6c-0.6-4.2,2.4-8.2,6.6-8.8
						c1.9-0.3,3.7,0.2,5.2,1.1c-1.6-1.5-3.9-2.3-6.3-1.9c-4.2,0.6-7.2,4.5-6.6,8.8C140.9,230.9,142.3,232.8,144.2,234z M148.6,273.3
						c-0.5-0.5-1-1-1.4-1.6c-2.4-3.6-1.3-8.5,2.3-10.9c2.6-1.7,5.9-1.6,8.4-0.1c-2.6-2.3-6.4-2.7-9.5-0.7c-3.6,2.4-4.7,7.2-2.3,10.9
						C146.7,271.9,147.6,272.7,148.6,273.3z M281.9,179.9c-1.7-1.4-2.9-3.4-3.2-5.8c-0.7-5.2,2.9-10,8.1-10.8
						c2.4-0.3,4.6,0.3,6.5,1.5c-2-1.7-4.7-2.7-7.5-2.3c-5.2,0.7-8.8,5.5-8.1,10.8C278,176.1,279.6,178.5,281.9,179.9z M369.2,251.7
						c0.2,1.7,1.2,3,2.6,3.7c-0.8-0.8-1.3-1.8-1.5-2.9c-0.4-2.8,1.6-5.4,4.4-5.8c1.2-0.2,2.3,0.1,3.2,0.6c-1.1-1.1-2.7-1.7-4.3-1.4
						C370.8,246.3,368.8,248.9,369.2,251.7z M353,252.7c-0.7-1.1-0.4-2.7,0.7-3.4c0.7-0.5,1.5-0.5,2.3-0.2c-0.8-1.1-2.2-1.4-3.3-0.6
						c-1.1,0.7-1.5,2.3-0.7,3.4C352.3,252.3,352.7,252.6,353,252.7C353.1,252.7,353.1,252.7,353,252.7z M378.2,282.9
						c-0.2-1.5,0.8-2.9,2.3-3.1c0.5-0.1,1,0,1.4,0.2c-0.6-0.7-1.5-1.2-2.5-1c-1.5,0.2-2.5,1.6-2.3,3.1c0.1,1,0.8,1.8,1.7,2.1
						C378.6,283.8,378.3,283.4,378.2,282.9z M320.3,234.6c0.6-0.9,1.7-1.2,2.7-0.9c-0.2-0.3-0.4-0.5-0.7-0.7c-1-0.6-2.4-0.3-3.1,0.7
						c-0.6,1-0.3,2.4,0.7,3.1c0.1,0.1,0.3,0.1,0.4,0.2C319.9,236.3,319.8,235.3,320.3,234.6z M270.3,213.4c-1.6,2.6-0.8,6,1.8,7.6
						c0,0,0.1,0,0.1,0.1c-1.8-1.8-2.2-4.6-0.8-6.9c1.6-2.5,4.9-3.3,7.5-1.8c-0.3-0.3-0.6-0.5-0.9-0.7
						C275.3,210,271.9,210.8,270.3,213.4z M296.7,221c1.2-1.9,3.6-2.5,5.5-1.5c-0.2-0.3-0.5-0.5-0.8-0.7c-2-1.2-4.5-0.6-5.7,1.3
						c-1.2,2-0.6,4.5,1.3,5.7c0.1,0.1,0.2,0.1,0.3,0.1C296,224.8,295.7,222.7,296.7,221z M286.3,203.5c-2.2-3.4-1.2-7.9,2.1-10.1
						c2.4-1.6,5.5-1.5,7.8-0.1c-2.4-2.2-6-2.6-8.9-0.7c-3.4,2.2-4.3,6.7-2.1,10.1c0.6,0.9,1.4,1.7,2.3,2.2
						C287.1,204.5,286.6,204,286.3,203.5z M313.2,215.4c-0.3-0.3-0.7-0.7-0.9-1.1c-1.9-2.8-1-6.7,1.8-8.5c2-1.3,4.6-1.3,6.5-0.1
						c-2-1.9-5.2-2.3-7.6-0.7c-2.9,1.9-3.7,5.7-1.8,8.5C311.8,214.3,312.5,214.9,313.2,215.4z M287.4,235.3c0.1-1.1,1.1-1.9,2.2-1.7
						c0.1,0,0.2,0.1,0.3,0.1c-0.3-0.5-0.8-0.9-1.4-0.9c-1.1-0.1-2.1,0.6-2.2,1.7c-0.1,1,0.5,1.8,1.4,2.1
						C287.5,236.3,287.3,235.8,287.4,235.3z M357.4,229.1c-1.1-1-1.9-2.4-2.2-4c-0.5-3.7,2.1-7.2,5.8-7.7c1.6-0.2,3.2,0.2,4.5,0.9
						c-1.5-1.3-3.5-2.1-5.6-1.8c-3.7,0.5-6.3,4-5.8,7.7C354.5,226.4,355.7,228.1,357.4,229.1z M311.1,190.1c-1.6-1.4-2.7-3.2-3-5.5
						c-0.7-4.9,2.7-9.5,7.6-10.1c2.2-0.3,4.3,0.2,6.1,1.4c-1.9-1.7-4.5-2.6-7.2-2.2c-4.9,0.7-8.3,5.2-7.6,10.1
						C307.4,186.6,308.9,188.8,311.1,190.1z M335.6,231.7c-0.2-0.2-0.4-0.4-0.6-0.7c-1.4-2.1-0.8-5,1.4-6.4c1.5-1,3.3-1,4.8-0.1
						c-1.5-1.6-4-1.9-5.9-0.7c-2.1,1.4-2.8,4.3-1.4,6.4C334.4,230.8,334.9,231.3,335.6,231.7z M336.8,206.9
						c-1.4-1.2-2.4-2.9-2.7-4.9c-0.6-4.4,2.5-8.6,6.9-9.2c2-0.3,3.9,0.2,5.4,1.2c-1.7-1.5-4.1-2.4-6.5-2c-4.4,0.6-7.5,4.7-6.9,9.2
						C333.4,203.7,334.8,205.7,336.8,206.9z"/>
				</defs>
				<clipPath id="SVGID_2_">
					<use xlink:href="#SVGID_1_"  style="overflow:visible;"/>
				</clipPath>
				<polygon class="st5" points="346.4,196.3 345.8,191.7 346.4,191.7 				"/>
				<polygon class="st6" points="346.4,206.3 344.4,191.7 345.8,191.7 346.4,196.3 				"/>
				<polygon class="st6" points="345.1,206.9 342.9,191.7 344.4,191.7 346.4,206.3 346.4,206.9 				"/>
				<polygon class="st6" points="343.7,206.9 341.5,191.7 342.9,191.7 345.1,206.9 				"/>
				<polygon class="st6" points="342.3,206.9 340.1,191.7 341.5,191.7 343.7,206.9 				"/>
				<polygon class="st7" points="340.8,206.9 338.7,191.7 340.1,191.7 342.3,206.9 				"/>
				<polygon class="st7" points="339.4,206.9 337.2,191.7 338.7,191.7 340.8,206.9 				"/>
				<polygon class="st7" points="338,206.9 335.8,191.7 337.2,191.7 339.4,206.9 				"/>
				<polygon class="st8" points="336.6,206.9 334.4,191.7 335.8,191.7 338,206.9 				"/>
				<polygon class="st8" points="335.1,206.9 333,191.7 334.4,191.7 336.6,206.9 				"/>
				<polygon class="st8" points="333.7,206.9 332.4,197.6 332.4,191.7 333,191.7 335.1,206.9 				"/>
				<polygon class="st8" points="332.4,197.6 333.7,206.9 332.4,206.9 				"/>
				<polygon class="st7" points="341.2,229.2 340.2,222.5 341.2,222.5 				"/>
				<polygon class="st8" points="340.1,231.7 338.8,222.5 340.2,222.5 341.2,229.2 341.2,231.7 				"/>
				<polygon class="st8" points="338.6,231.7 337.4,222.5 338.8,222.5 340.1,231.7 				"/>
				<polygon class="st8" points="337.2,231.7 335.9,222.5 337.4,222.5 338.6,231.7 				"/>
				<polygon class="st8" points="335.8,231.7 334.5,222.5 335.9,222.5 337.2,231.7 				"/>
				<polygon class="st9" points="334.4,231.7 333.1,222.5 334.5,222.5 335.8,231.7 				"/>
				<polygon class="st9" points="333,231.7 332.5,228.7 332.5,222.5 333.1,222.5 334.4,231.7 				"/>
				<polygon class="st9" points="332.5,228.7 333,231.7 332.5,231.7 				"/>
				<polygon class="st10" points="321.8,183 320.4,173.3 321.8,173.3 				"/>
				<polygon class="st10" points="321.4,190.1 319,173.3 320.4,173.3 321.8,183 321.8,190.1 				"/>
				<polygon class="st10" points="319.9,190.1 317.6,173.3 319,173.3 321.4,190.1 				"/>
				<polygon class="st10" points="318.5,190.1 316.1,173.3 317.6,173.3 319.9,190.1 				"/>
				<polygon class="st11" points="317.1,190.1 314.7,173.3 316.1,173.3 318.5,190.1 				"/>
				<polygon class="st11" points="315.7,190.1 313.3,173.3 314.7,173.3 317.1,190.1 				"/>
				<polygon class="st11" points="314.2,190.1 311.9,173.3 313.3,173.3 315.7,190.1 				"/>
				<polygon class="st12" points="312.8,190.1 310.4,173.3 311.9,173.3 314.2,190.1 				"/>
				<polygon class="st12" points="311.4,190.1 309,173.3 310.4,173.3 312.8,190.1 				"/>
				<polygon class="st12" points="310,190.1 307.6,173.3 309,173.3 311.4,190.1 				"/>
				<polygon class="st13" points="308.6,190.1 306.3,174.2 306.3,173.3 307.6,173.3 310,190.1 				"/>
				<polygon class="st13" points="307.1,190.1 306.3,184.3 306.3,174.2 308.6,190.1 				"/>
				<polygon class="st13" points="306.3,184.3 307.1,190.1 306.3,190.1 				"/>
				<polygon class="st14" points="365.6,220.7 364.9,216.2 365.6,216.2 				"/>
				<polygon class="st14" points="365.3,229.1 363.5,216.2 364.9,216.2 365.6,220.7 365.6,229.1 				"/>
				<polygon class="st15" points="363.9,229.1 362.1,216.2 363.5,216.2 365.3,229.1 				"/>
				<polygon class="st15" points="362.5,229.1 360.7,216.2 362.1,216.2 363.9,229.1 				"/>
				<polygon class="st15" points="361.1,229.1 359.2,216.2 360.7,216.2 362.5,229.1 				"/>
				<polygon class="st16" points="359.6,229.1 357.8,216.2 359.2,216.2 361.1,229.1 				"/>
				<polygon class="st16" points="358.2,229.1 356.4,216.2 357.8,216.2 359.6,229.1 				"/>
				<polygon class="st16" points="356.8,229.1 355,216.2 356.4,216.2 358.2,229.1 				"/>
				<polygon class="st16" points="355.4,229.1 353.7,217 353.7,216.2 355,216.2 356.8,229.1 				"/>
				<polygon class="st5" points="354,229.1 353.7,227.1 353.7,217 355.4,229.1 				"/>
				<polygon class="st5" points="353.7,227.1 354,229.1 353.7,229.1 				"/>
				<polygon class="st17" points="289.5,236.6 288.9,232.6 290,232.6 290,236.6 				"/>
				<polygon class="st17" points="288.1,236.6 287.5,232.6 288.9,232.6 289.5,236.6 				"/>
				<polygon class="st17" points="286.7,236.6 286.2,233.3 286.2,232.6 287.5,232.6 288.1,236.6 				"/>
				<polygon class="st18" points="286.2,233.3 286.7,236.6 286.2,236.6 				"/>
				<polygon class="st10" points="320.6,204.9 320.4,203.4 320.6,203.4 				"/>
				<polygon class="st11" points="320.6,215 319,203.4 320.4,203.4 320.6,204.9 				"/>
				<polygon class="st11" points="319.2,215.4 317.5,203.4 319,203.4 320.6,215 320.6,215.4 				"/>
				<polygon class="st11" points="317.8,215.4 316.1,203.4 317.5,203.4 319.2,215.4 				"/>
				<polygon class="st12" points="316.4,215.4 314.7,203.4 316.1,203.4 317.8,215.4 				"/>
				<polygon class="st12" points="315,215.4 313.3,203.4 314.7,203.4 316.4,215.4 				"/>
				<polygon class="st12" points="313.6,215.4 311.8,203.4 313.3,203.4 315,215.4 				"/>
				<polygon class="st13" points="312.1,215.4 310.4,203.4 311.8,203.4 313.6,215.4 				"/>
				<polygon class="st13" points="310.7,215.4 309.4,206 309.4,203.4 310.4,203.4 312.1,215.4 				"/>
				<polygon class="st13" points="309.4,206 310.7,215.4 309.4,215.4 				"/>
				<polygon class="st19" points="296.2,193.4 295.8,190.7 296.2,190.7 				"/>
				<polygon class="st19" points="296.2,203.5 294.4,190.7 295.8,190.7 296.2,193.4 				"/>
				<polygon class="st20" points="295,204.9 293,190.7 294.4,190.7 296.2,203.5 296.2,204.9 				"/>
				<polygon class="st20" points="293.6,204.9 291.5,190.7 293,190.7 295,204.9 				"/>
				<polygon class="st20" points="292.1,204.9 290.1,190.7 291.5,190.7 293.6,204.9 				"/>
				<polygon class="st21" points="290.7,204.9 288.7,190.7 290.1,190.7 292.1,204.9 				"/>
				<polygon class="st21" points="289.3,204.9 287.3,190.7 288.7,190.7 290.7,204.9 				"/>
				<polygon class="st21" points="287.9,204.9 285.8,190.7 287.3,190.7 289.3,204.9 				"/>
				<polygon class="st17" points="286.4,204.9 284.4,190.7 285.8,190.7 287.9,204.9 				"/>
				<polygon class="st17" points="285,204.9 283,190.7 284.4,190.7 286.4,204.9 				"/>
				<polygon class="st17" points="283.6,204.9 283,200.7 283,190.7 283,190.7 285,204.9 				"/>
				<polygon class="st17" points="283,200.7 283.6,204.9 283,204.9 				"/>
				<polygon class="st19" points="302.2,225.5 301.1,217.7 302.2,217.7 				"/>
				<polygon class="st19" points="300.8,226.1 299.6,217.7 301.1,217.7 302.2,225.5 302.2,226.1 				"/>
				<polygon class="st19" points="299.4,226.1 298.2,217.7 299.6,217.7 300.8,226.1 				"/>
				<polygon class="st20" points="298,226.1 296.8,217.7 298.2,217.7 299.4,226.1 				"/>
				<polygon class="st20" points="296.6,226.1 295.4,217.7 296.8,217.7 298,226.1 				"/>
				<polygon class="st20" points="295.1,226.1 294.4,220.9 294.4,217.7 295.4,217.7 296.6,226.1 				"/>
				<polygon class="st21" points="294.4,220.9 295.1,226.1 294.4,226.1 				"/>
				<polygon class="st18" points="278.9,211.8 278.6,210 278.9,210 				"/>
				<polygon class="st18" points="278.8,221.1 277.2,210 278.6,210 278.9,211.8 278.9,221.1 				"/>
				<polygon class="st22" points="277.3,221.1 275.8,210 277.2,210 278.8,221.1 				"/>
				<polygon class="st22" points="275.9,221.1 274.3,210 275.8,210 277.3,221.1 				"/>
				<polygon class="st22" points="274.5,221.1 272.9,210 274.3,210 275.9,221.1 				"/>
				<polygon class="st23" points="273.1,221.1 271.5,210 272.9,210 274.5,221.1 				"/>
				<polygon class="st23" points="271.6,221.1 270.1,210 271.5,210 273.1,221.1 				"/>
				<polygon class="st23" points="270.2,221.1 268.7,210.4 268.7,210 270.1,210 271.6,221.1 				"/>
				<polygon class="st24" points="268.8,221.1 268.7,220.4 268.7,210.4 270.2,221.1 				"/>
				<polygon class="st24" points="268.7,220.4 268.8,221.1 268.7,221.1 				"/>
				<polygon class="st11" points="322.3,237 321.7,232.4 322.9,232.4 322.9,237 				"/>
				<polygon class="st11" points="320.9,237 320.2,232.4 321.7,232.4 322.3,237 				"/>
				<polygon class="st12" points="319.5,237 318.8,232.4 320.2,232.4 320.9,237 				"/>
				<polygon class="st12" points="318.8,232.4 319.5,237 318.6,237 318.6,232.4 				"/>
				<polygon class="st25" points="381.7,284.2 380.9,278.8 382,278.8 382,284.2 				"/>
				<polygon class="st25" points="380.3,284.2 379.5,278.8 380.9,278.8 381.7,284.2 				"/>
				<polygon class="st25" points="378.9,284.2 378.1,278.8 379.5,278.8 380.3,284.2 				"/>
				<polygon class="st25" points="377.4,284.2 377,280.9 377,278.8 378.1,278.8 378.9,284.2 				"/>
				<polygon class="st14" points="377,280.9 377.4,284.2 377,284.2 				"/>
				<polygon class="st5" points="355.9,252.8 355.2,247.7 356,247.7 356,252.8 				"/>
				<polygon class="st5" points="354.5,252.8 353.7,247.7 355.2,247.7 355.9,252.8 				"/>
				<polygon class="st6" points="353,252.8 352.3,247.7 353.7,247.7 354.5,252.8 				"/>
				<polygon class="st6" points="351.6,252.8 351.2,250 351.2,247.7 352.3,247.7 353,252.8 				"/>
				<polygon class="st6" points="351.2,250 351.6,252.8 351.2,252.8 				"/>
				<polygon class="st25" points="377.9,247.4 377.7,245.7 377.9,245.7 				"/>
				<polygon class="st25" points="377.6,255.5 376.2,245.7 377.7,245.7 377.9,247.4 377.9,255.5 				"/>
				<polygon class="st25" points="376.2,255.5 374.8,245.7 376.2,245.7 377.6,255.5 				"/>
				<polygon class="st25" points="374.8,255.5 373.4,245.7 374.8,245.7 376.2,255.5 				"/>
				<polygon class="st25" points="373.4,255.5 372,245.7 373.4,245.7 374.8,255.5 				"/>
				<polygon class="st14" points="371.9,255.5 370.5,245.7 372,245.7 373.4,255.5 				"/>
				<polygon class="st14" points="370.5,255.5 369.1,245.7 370.5,245.7 371.9,255.5 				"/>
				<polygon class="st14" points="369.1,255.5 368.8,253.5 368.8,245.7 369.1,245.7 370.5,255.5 				"/>
				<polygon class="st15" points="368.8,253.5 369.1,255.5 368.8,255.5 				"/>
				<polygon class="st19" points="293.2,162.3 293.2,162.1 293.2,162.1 				"/>
				<polygon class="st19" points="293.2,172.3 291.8,162.1 293.2,162.1 293.2,162.3 				"/>
				<polygon class="st19" points="292.9,179.9 290.3,162.1 291.8,162.1 293.2,172.3 293.2,179.9 				"/>
				<polygon class="st20" points="291.4,179.9 288.9,162.1 290.3,162.1 292.9,179.9 				"/>
				<polygon class="st20" points="290,179.9 287.5,162.1 288.9,162.1 291.4,179.9 				"/>
				<polygon class="st20" points="288.6,179.9 286.1,162.1 287.5,162.1 290,179.9 				"/>
				<polygon class="st21" points="287.2,179.9 284.6,162.1 286.1,162.1 288.6,179.9 				"/>
				<polygon class="st21" points="285.7,179.9 283.2,162.1 284.6,162.1 287.2,179.9 				"/>
				<polygon class="st21" points="284.3,179.9 281.8,162.1 283.2,162.1 285.7,179.9 				"/>
				<polygon class="st17" points="282.9,179.9 280.4,162.1 281.8,162.1 284.3,179.9 				"/>
				<polygon class="st17" points="281.5,179.9 278.9,162.1 280.4,162.1 282.9,179.9 				"/>
				<polygon class="st17" points="280,179.9 277.5,162.1 278.9,162.1 281.5,179.9 				"/>
				<polygon class="st17" points="278.6,179.9 276.8,167.4 276.8,162.1 277.5,162.1 280,179.9 				"/>
				<polygon class="st18" points="277.2,179.9 276.8,177.4 276.8,167.4 278.6,179.9 				"/>
				<polygon class="st18" points="276.8,177.4 277.2,179.9 276.8,179.9 				"/>
				<polygon class="st26" points="157.8,262.1 157.3,258.1 157.8,258.1 				"/>
				<polygon class="st27" points="157.8,272.2 155.8,258.1 157.3,258.1 157.8,262.1 				"/>
				<polygon class="st28" points="156.6,273.3 154.4,258.1 155.8,258.1 157.8,272.2 157.8,273.3 				"/>
				<polygon class="st29" points="155.1,273.3 153,258.1 154.4,258.1 156.6,273.3 				"/>
				<polygon class="st30" points="153.7,273.3 151.6,258.1 153,258.1 155.1,273.3 				"/>
				<polygon class="st31" points="152.3,273.3 150.1,258.1 151.6,258.1 153.7,273.3 				"/>
				<polygon class="st32" points="150.9,273.3 148.7,258.1 150.1,258.1 152.3,273.3 				"/>
				<polygon class="st33" points="149.4,273.3 147.3,258.1 148.7,258.1 150.9,273.3 				"/>
				<polygon class="st34" points="148,273.3 145.9,258.1 147.3,258.1 149.4,273.3 				"/>
				<polygon class="st34" points="146.6,273.3 144.4,258.1 145.9,258.1 148,273.3 				"/>
				<polygon class="st35" points="145.2,273.3 143.7,263 143.7,258.1 144.4,258.1 146.6,273.3 				"/>
				<polygon class="st36" points="143.8,273.3 143.7,273.1 143.7,263 145.2,273.3 				"/>
				<polygon class="st37" points="143.7,273.1 143.8,273.3 143.7,273.3 				"/>
				<polygon class="st26" points="153.4,220.9 153.2,219.4 153.4,219.4 				"/>
				<polygon class="st26" points="153.4,230.9 151.8,219.4 153.2,219.4 153.4,220.9 				"/>
				<polygon class="st27" points="152.4,234 150.3,219.4 151.8,219.4 153.4,230.9 153.4,234 				"/>
				<polygon class="st28" points="151,234 148.9,219.4 150.3,219.4 152.4,234 				"/>
				<polygon class="st29" points="149.6,234 147.5,219.4 148.9,219.4 151,234 				"/>
				<polygon class="st30" points="148.1,234 146.1,219.4 147.5,219.4 149.6,234 				"/>
				<polygon class="st31" points="146.7,234 144.7,219.4 146.1,219.4 148.1,234 				"/>
				<polygon class="st32" points="145.3,234 143.2,219.4 144.7,219.4 146.7,234 				"/>
				<polygon class="st33" points="143.9,234 141.8,219.4 143.2,219.4 145.3,234 				"/>
				<polygon class="st34" points="142.4,234 140.4,219.4 141.8,219.4 143.9,234 				"/>
				<polygon class="st34" points="141,234 140,226.5 140,219.4 140.4,219.4 142.4,234 				"/>
				<polygon class="st35" points="140,226.5 141,234 140,234 				"/>
				<polygon class="st38" points="137.1,256.7 136,249.1 137.1,249.1 				"/>
				<polygon class="st38" points="136.3,261.1 134.6,249.1 136,249.1 137.1,256.7 137.1,261.1 				"/>
				<polygon class="st39" points="134.9,261.1 133.2,249.1 134.6,249.1 136.3,261.1 				"/>
				<polygon class="st40" points="133.5,261.1 131.8,249.1 133.2,249.1 134.9,261.1 				"/>
				<polygon class="st41" points="132,261.1 130.3,249.1 131.8,249.1 133.5,261.1 				"/>
				<polygon class="st42" points="130.6,261.1 128.9,249.1 130.3,249.1 132,261.1 				"/>
				<polygon class="st43" points="129.2,261.1 127.5,249.1 128.9,249.1 130.6,261.1 				"/>
				<polygon class="st43" points="127.8,261.1 126.1,249.1 127.5,249.1 129.2,261.1 				"/>
				<polygon class="st44" points="126.4,261.1 126,258.8 126,249.1 126.1,249.1 127.8,261.1 				"/>
				<polygon class="st45" points="126,258.8 126.4,261.1 126,261.1 				"/>
				<polygon class="st46" points="172.4,234.4 172.1,232.5 172.4,232.5 				"/>
				<polygon class="st46" points="172.4,244.5 170.7,232.5 172.1,232.5 172.4,234.4 				"/>
				<polygon class="st47" points="171.6,248.8 169.3,232.5 170.7,232.5 172.4,244.5 172.4,248.8 				"/>
				<polygon class="st47" points="170.2,248.8 167.9,232.5 169.3,232.5 171.6,248.8 				"/>
				<polygon class="st48" points="168.8,248.8 166.5,232.5 167.9,232.5 170.2,248.8 				"/>
				<polygon class="st48" points="167.3,248.8 165,232.5 166.5,232.5 168.8,248.8 				"/>
				<polygon class="st48" points="165.9,248.8 163.6,232.5 165,232.5 167.3,248.8 				"/>
				<polygon class="st49" points="164.5,248.8 162.2,232.5 163.6,232.5 165.9,248.8 				"/>
				<polygon class="st49" points="163.1,248.8 160.8,232.5 162.2,232.5 164.5,248.8 				"/>
				<polygon class="st50" points="161.6,248.8 159.3,232.5 160.8,232.5 163.1,248.8 				"/>
				<polygon class="st51" points="160.2,248.8 157.9,232.5 159.3,232.5 161.6,248.8 				"/>
				<polygon class="st52" points="158.8,248.8 157.3,238.4 157.3,232.5 157.9,232.5 160.2,248.8 				"/>
				<polygon class="st26" points="157.4,248.8 157.3,248.5 157.3,238.4 158.8,248.8 				"/>
				<polygon class="st26" points="157.3,248.5 157.4,248.8 157.3,248.8 				"/>
				<polygon class="st23" points="262.4,166.1 261.4,158.8 262.4,158.8 				"/>
				<polygon class="st24" points="262.4,176.1 260,158.8 261.4,158.8 262.4,166.1 				"/>
				<polygon class="st24" points="261.1,176.9 258.5,158.8 260,158.8 262.4,176.1 262.4,176.9 				"/>
				<polygon class="st24" points="259.7,176.9 257.1,158.8 258.5,158.8 261.1,176.9 				"/>
				<polygon class="st53" points="258.3,176.9 255.7,158.8 257.1,158.8 259.7,176.9 				"/>
				<polygon class="st53" points="256.8,176.9 254.3,158.8 255.7,158.8 258.3,176.9 				"/>
				<polygon class="st53" points="255.4,176.9 252.8,158.8 254.3,158.8 256.8,176.9 				"/>
				<polygon class="st54" points="254,176.9 251.4,158.8 252.8,158.8 255.4,176.9 				"/>
				<polygon class="st54" points="252.6,176.9 250,158.8 251.4,158.8 254,176.9 				"/>
				<polygon class="st54" points="251.1,176.9 248.6,158.8 250,158.8 252.6,176.9 				"/>
				<polygon class="st54" points="249.7,176.9 247.1,158.8 248.6,158.8 251.1,176.9 				"/>
				<polygon class="st55" points="248.3,176.9 245.7,158.9 245.7,158.8 247.1,158.8 249.7,176.9 				"/>
				<polygon class="st55" points="246.9,176.9 245.7,168.9 245.7,158.9 248.3,176.9 				"/>
				<polygon class="st56" points="245.7,168.9 246.9,176.9 245.7,176.9 				"/>
				<polygon class="st57" points="127.3,288.2 126.4,281.8 127.3,281.8 				"/>
				<polygon class="st58" points="126.3,290.5 125,281.8 126.4,281.8 127.3,288.2 127.3,290.5 				"/>
				<polygon class="st59" points="124.8,290.5 123.6,281.8 125,281.8 126.3,290.5 				"/>
				<polygon class="st60" points="123.4,290.5 122.2,281.8 123.6,281.8 124.8,290.5 				"/>
				<polygon class="st61" points="122,290.5 120.7,281.8 122.2,281.8 123.4,290.5 				"/>
				<polygon class="st62" points="120.6,290.5 119.3,281.8 120.7,281.8 122,290.5 				"/>
				<polygon class="st62" points="119.3,281.8 120.6,290.5 119.3,290.5 119.3,281.8 				"/>
				<polygon class="st62" points="123.3,320.1 122.8,316.1 123.9,316.1 123.9,320.1 				"/>
				<polygon class="st63" points="121.9,320.1 121.3,316.1 122.8,316.1 123.3,320.1 				"/>
				<polygon class="st64" points="120.5,320.1 120.1,317.4 120.1,316.1 121.3,316.1 121.9,320.1 				"/>
				<polygon class="st64" points="120.1,317.4 120.5,320.1 120.1,320.1 				"/>
				<polygon class="st65" points="175.3,204.3 173.9,194.4 175.3,194.4 				"/>
				<polygon class="st65" points="174.7,210.7 172.4,194.4 173.9,194.4 175.3,204.3 175.3,210.7 				"/>
				<polygon class="st66" points="173.3,210.7 171,194.4 172.4,194.4 174.7,210.7 				"/>
				<polygon class="st66" points="171.9,210.7 169.6,194.4 171,194.4 173.3,210.7 				"/>
				<polygon class="st66" points="170.5,210.7 168.2,194.4 169.6,194.4 171.9,210.7 				"/>
				<polygon class="st46" points="169.1,210.7 166.7,194.4 168.2,194.4 170.5,210.7 				"/>
				<polygon class="st46" points="167.6,210.7 165.3,194.4 166.7,194.4 169.1,210.7 				"/>
				<polygon class="st47" points="166.2,210.7 163.9,194.4 165.3,194.4 167.6,210.7 				"/>
				<polygon class="st47" points="164.8,210.7 162.5,194.4 163.9,194.4 166.2,210.7 				"/>
				<polygon class="st48" points="163.4,210.7 161,194.4 162.5,194.4 164.8,210.7 				"/>
				<polygon class="st48" points="161.9,210.7 160.2,198.6 160.2,194.4 161,194.4 163.4,210.7 				"/>
				<polygon class="st48" points="160.5,210.7 160.2,208.7 160.2,198.6 161.9,210.7 				"/>
				<polygon class="st49" points="160.2,208.7 160.5,210.7 160.2,210.7 				"/>
				<polygon class="st67" points="231.3,167.8 230.7,163.2 231.3,163.2 				"/>
				<polygon class="st67" points="231.3,177.8 229.3,163.2 230.7,163.2 231.3,167.8 				"/>
				<polygon class="st67" points="230.4,181.3 227.8,163.2 229.3,163.2 231.3,177.8 231.3,181.3 				"/>
				<polygon class="st67" points="229,181.3 226.4,163.2 227.8,163.2 230.4,181.3 				"/>
				<polygon class="st68" points="227.5,181.3 225,163.2 226.4,163.2 229,181.3 				"/>
				<polygon class="st68" points="226.1,181.3 223.6,163.2 225,163.2 227.5,181.3 				"/>
				<polygon class="st69" points="224.7,181.3 222.1,163.2 223.6,163.2 226.1,181.3 				"/>
				<polygon class="st69" points="223.3,181.3 220.7,163.2 222.1,163.2 224.7,181.3 				"/>
				<polygon class="st69" points="221.8,181.3 219.3,163.2 220.7,163.2 223.3,181.3 				"/>
				<polygon class="st70" points="220.4,181.3 217.9,163.2 219.3,163.2 221.8,181.3 				"/>
				<polygon class="st70" points="219,181.3 216.4,163.2 217.9,163.2 220.4,181.3 				"/>
				<polygon class="st70" points="217.6,181.3 215,163.2 216.4,163.2 219,181.3 				"/>
				<polygon class="st71" points="216.1,181.3 214.7,171.3 214.7,163.2 215,163.2 217.6,181.3 				"/>
				<polygon class="st71" points="214.7,171.3 216.1,181.3 214.7,181.3 				"/>
				<polygon class="st54" points="254.7,212.2 254.3,209 254.7,209 				"/>
				<polygon class="st55" points="254.7,222.1 252.8,209 254.3,209 254.7,212.2 254.7,222.1 				"/>
				<polygon class="st55" points="253.3,222.1 251.4,209 252.8,209 254.7,222.1 				"/>
				<polygon class="st56" points="251.9,222.1 250,209 251.4,209 253.3,222.1 				"/>
				<polygon class="st56" points="250.4,222.1 248.6,209 250,209 251.9,222.1 				"/>
				<polygon class="st56" points="249,222.1 247.1,209 248.6,209 250.4,222.1 				"/>
				<polygon class="st72" points="247.6,222.1 245.7,209 247.1,209 249,222.1 				"/>
				<polygon class="st72" points="246.2,222.1 244.3,209 245.7,209 247.6,222.1 				"/>
				<polygon class="st72" points="244.7,222.1 242.9,209 244.3,209 246.2,222.1 				"/>
				<polygon class="st72" points="243.3,222.1 242.7,218 242.7,209 242.9,209 244.7,222.1 				"/>
				<polygon class="st73" points="242.7,218 243.3,222.1 242.7,222.1 				"/>
				<polygon class="st72" points="242.1,193.6 241.2,187.1 242.1,187.1 				"/>
				<polygon class="st72" points="242.1,203.6 239.8,187.1 241.2,187.1 242.1,193.6 242.1,203.6 				"/>
				<polygon class="st72" points="240.7,203.6 238.3,187.1 239.8,187.1 242.1,203.6 				"/>
				<polygon class="st73" points="239.3,203.6 236.9,187.1 238.3,187.1 240.7,203.6 				"/>
				<polygon class="st73" points="237.8,203.6 235.5,187.1 236.9,187.1 239.3,203.6 				"/>
				<polygon class="st67" points="236.4,203.6 234.1,187.1 235.5,187.1 237.8,203.6 				"/>
				<polygon class="st67" points="235,203.6 232.6,187.1 234.1,187.1 236.4,203.6 				"/>
				<polygon class="st67" points="233.6,203.6 231.2,187.1 232.6,187.1 235,203.6 				"/>
				<polygon class="st67" points="232.1,203.6 229.8,187.1 231.2,187.1 233.6,203.6 				"/>
				<polygon class="st68" points="230.7,203.6 228.4,187.1 229.8,187.1 232.1,203.6 				"/>
				<polygon class="st68" points="229.3,203.6 226.9,187.1 228.4,187.1 230.7,203.6 				"/>
				<polygon class="st69" points="227.9,203.6 226.8,195.9 226.8,187.1 226.9,187.1 229.3,203.6 				"/>
				<polygon class="st69" points="226.8,195.9 227.9,203.6 226.8,203.6 				"/>
				<polygon class="st74" points="192.1,212.5 192,211.5 192.1,211.5 				"/>
				<polygon class="st74" points="192.1,222.5 190.5,211.5 192,211.5 192.1,212.5 				"/>
				<polygon class="st75" points="191.5,228.3 189.1,211.5 190.5,211.5 192.1,222.5 192.1,228.3 				"/>
				<polygon class="st75" points="190.1,228.3 187.7,211.5 189.1,211.5 191.5,228.3 				"/>
				<polygon class="st75" points="188.6,228.3 186.3,211.5 187.7,211.5 190.1,228.3 				"/>
				<polygon class="st76" points="187.2,228.3 184.8,211.5 186.3,211.5 188.6,228.3 				"/>
				<polygon class="st76" points="185.8,228.3 183.4,211.5 184.8,211.5 187.2,228.3 				"/>
				<polygon class="st76" points="184.4,228.3 182,211.5 183.4,211.5 185.8,228.3 				"/>
				<polygon class="st77" points="182.9,228.3 180.6,211.5 182,211.5 184.4,228.3 				"/>
				<polygon class="st77" points="181.5,228.3 179.1,211.5 180.6,211.5 182.9,228.3 				"/>
				<polygon class="st65" points="180.1,228.3 177.7,211.5 179.1,211.5 181.5,228.3 				"/>
				<polygon class="st65" points="178.7,228.3 176.6,213.4 176.6,211.5 177.7,211.5 180.1,228.3 				"/>
				<polygon class="st65" points="177.2,228.3 176.6,223.4 176.6,213.4 178.7,228.3 				"/>
				<polygon class="st66" points="176.6,223.4 177.2,228.3 176.6,228.3 				"/>
				<polygon class="st78" points="201.7,180 201.1,175.3 201.7,175.3 				"/>
				<polygon class="st78" points="201.7,190.1 199.6,175.3 201.1,175.3 201.7,180 				"/>
				<polygon class="st79" points="200.7,192.8 198.2,175.3 199.6,175.3 201.7,190.1 201.7,192.8 				"/>
				<polygon class="st79" points="199.3,192.8 196.8,175.3 198.2,175.3 200.7,192.8 				"/>
				<polygon class="st80" points="197.8,192.8 195.4,175.3 196.8,175.3 199.3,192.8 				"/>
				<polygon class="st80" points="196.4,192.8 193.9,175.3 195.4,175.3 197.8,192.8 				"/>
				<polygon class="st80" points="195,192.8 192.5,175.3 193.9,175.3 196.4,192.8 				"/>
				<polygon class="st81" points="193.6,192.8 191.1,175.3 192.5,175.3 195,192.8 				"/>
				<polygon class="st81" points="192.1,192.8 189.7,175.3 191.1,175.3 193.6,192.8 				"/>
				<polygon class="st74" points="190.7,192.8 188.2,175.3 189.7,175.3 192.1,192.8 				"/>
				<polygon class="st74" points="189.3,192.8 186.8,175.3 188.2,175.3 190.7,192.8 				"/>
				<polygon class="st74" points="187.9,192.8 185.6,176.9 185.6,175.3 186.8,175.3 189.3,192.8 				"/>
				<polygon class="st75" points="186.4,192.8 185.6,187 185.6,176.9 187.9,192.8 				"/>
				<polygon class="st75" points="185.6,187 186.4,192.8 185.6,192.8 				"/>
				<polygon class="st71" points="215.8,198.7 215.4,196 215.8,196 				"/>
				<polygon class="st82" points="215.8,208.8 214,196 215.4,196 215.8,198.7 				"/>
				<polygon class="st82" points="214.9,212.9 212.5,196 214,196 215.8,208.8 215.8,212.9 				"/>
				<polygon class="st82" points="213.5,212.9 211.1,196 212.5,196 214.9,212.9 				"/>
				<polygon class="st83" points="212.1,212.9 209.7,196 211.1,196 213.5,212.9 				"/>
				<polygon class="st83" points="210.7,212.9 208.3,196 209.7,196 212.1,212.9 				"/>
				<polygon class="st78" points="209.2,212.9 206.8,196 208.3,196 210.7,212.9 				"/>
				<polygon class="st78" points="207.8,212.9 205.4,196 206.8,196 209.2,212.9 				"/>
				<polygon class="st78" points="206.4,212.9 204,196 205.4,196 207.8,212.9 				"/>
				<polygon class="st78" points="205,212.9 202.6,196 204,196 206.4,212.9 				"/>
				<polygon class="st79" points="203.5,212.9 201.2,196 202.6,196 205,212.9 				"/>
				<polygon class="st79" points="202.1,212.9 200.2,199.1 200.2,196 201.2,196 203.5,212.9 				"/>
				<polygon class="st80" points="200.7,212.9 200.2,209.1 200.2,199.1 202.1,212.9 				"/>
				<polygon class="st80" points="200.2,209.1 200.7,212.9 200.2,212.9 				"/>
				<polygon class="st68" points="231.1,216.7 230.9,214.8 231.1,214.8 				"/>
				<polygon class="st69" points="231.1,226.7 229.4,214.8 230.9,214.8 231.1,216.7 				"/>
				<polygon class="st69" points="230.1,229.3 228,214.8 229.4,214.8 231.1,226.7 231.1,229.3 				"/>
				<polygon class="st69" points="228.7,229.3 226.6,214.8 228,214.8 230.1,229.3 				"/>
				<polygon class="st70" points="227.2,229.3 225.2,214.8 226.6,214.8 228.7,229.3 				"/>
				<polygon class="st70" points="225.8,229.3 223.7,214.8 225.2,214.8 227.2,229.3 				"/>
				<polygon class="st70" points="224.4,229.3 222.3,214.8 223.7,214.8 225.8,229.3 				"/>
				<polygon class="st71" points="223,229.3 220.9,214.8 222.3,214.8 224.4,229.3 				"/>
				<polygon class="st71" points="221.5,229.3 219.5,214.8 220.9,214.8 223,229.3 				"/>
				<polygon class="st71" points="220.1,229.3 218.1,214.8 219.5,214.8 221.5,229.3 				"/>
				<polygon class="st82" points="218.7,229.3 218,224.4 218,214.8 218.1,214.8 220.1,229.3 				"/>
				<polygon class="st82" points="218,224.4 218.7,229.3 218,229.3 				"/>
				<polygon class="st78" points="209.7,236.3 208.3,226.7 209.7,226.7 				"/>
				<polygon class="st78" points="209.1,242 206.9,226.7 208.3,226.7 209.7,236.3 209.7,242 				"/>
				<polygon class="st79" points="207.7,242 205.5,226.7 206.9,226.7 209.1,242 				"/>
				<polygon class="st79" points="206.3,242 204.1,226.7 205.5,226.7 207.7,242 				"/>
				<polygon class="st80" points="204.8,242 202.6,226.7 204.1,226.7 206.3,242 				"/>
				<polygon class="st80" points="203.4,242 201.2,226.7 202.6,226.7 204.8,242 				"/>
				<polygon class="st80" points="202,242 199.8,226.7 201.2,226.7 203.4,242 				"/>
				<polygon class="st81" points="200.6,242 198.4,226.7 199.8,226.7 202,242 				"/>
				<polygon class="st81" points="199.1,242 197,226.7 198.4,226.7 200.6,242 				"/>
				<polygon class="st74" points="197.7,242 195.9,229 195.9,226.7 197,226.7 199.1,242 				"/>
				<polygon class="st74" points="196.3,242 195.9,239 195.9,229 197.7,242 				"/>
				<polygon class="st74" points="195.9,239 196.3,242 195.9,242 				"/>
				<polygon class="st70" points="227.5,241.3 227.4,240.4 227.5,240.4 				"/>
				<polygon class="st70" points="227.5,251.3 226,240.4 227.4,240.4 227.5,241.3 				"/>
				<polygon class="st71" points="226.2,251.8 224.5,240.4 226,240.4 227.5,251.3 227.5,251.8 				"/>
				<polygon class="st71" points="224.7,251.8 223.1,240.4 224.5,240.4 226.2,251.8 				"/>
				<polygon class="st71" points="223.3,251.8 221.7,240.4 223.1,240.4 224.7,251.8 				"/>
				<polygon class="st82" points="221.9,251.8 220.3,240.4 221.7,240.4 223.3,251.8 				"/>
				<polygon class="st82" points="220.5,251.8 218.8,240.4 220.3,240.4 221.9,251.8 				"/>
				<polygon class="st82" points="219,251.8 217.4,240.4 218.8,240.4 220.5,251.8 				"/>
				<polygon class="st83" points="217.6,251.8 217.3,249.8 217.3,240.4 217.4,240.4 219,251.8 				"/>
				<polygon class="st83" points="217.3,249.8 217.6,251.8 217.3,251.8 				"/>
				<polygon class="st75" points="191.7,250.1 190.9,244 191.7,244 				"/>
				<polygon class="st76" points="191.7,259.7 189.4,244 190.9,244 191.7,250.1 191.7,259.7 				"/>
				<polygon class="st76" points="190.2,259.7 188,244 189.4,244 191.7,259.7 				"/>
				<polygon class="st76" points="188.8,259.7 186.6,244 188,244 190.2,259.7 				"/>
				<polygon class="st77" points="187.4,259.7 185.2,244 186.6,244 188.8,259.7 				"/>
				<polygon class="st77" points="186,259.7 183.7,244 185.2,244 187.4,259.7 				"/>
				<polygon class="st65" points="184.5,259.7 182.3,244 183.7,244 186,259.7 				"/>
				<polygon class="st65" points="183.1,259.7 180.9,244 182.3,244 184.5,259.7 				"/>
				<polygon class="st65" points="181.7,259.7 179.5,244 180.9,244 183.1,259.7 				"/>
				<polygon class="st66" points="180.3,259.7 178,244 179.5,244 181.7,259.7 				"/>
				<polygon class="st66" points="178.8,259.7 177.6,251 177.6,244 178,244 180.3,259.7 				"/>
				<polygon class="st66" points="177.6,251 178.8,259.7 177.6,259.7 				"/>
				<polygon class="st66" points="178.3,265.7 178.3,265.6 178.3,265.6 				"/>
				<polygon class="st46" points="178.3,275.7 176.8,265.6 178.3,265.6 178.3,265.7 				"/>
				<polygon class="st46" points="177.6,281.2 175.4,265.6 176.8,265.6 178.3,275.7 178.3,281.2 				"/>
				<polygon class="st47" points="176.2,281.2 174,265.6 175.4,265.6 177.6,281.2 				"/>
				<polygon class="st47" points="174.8,281.2 172.6,265.6 174,265.6 176.2,281.2 				"/>
				<polygon class="st48" points="173.4,281.2 171.1,265.6 172.6,265.6 174.8,281.2 				"/>
				<polygon class="st48" points="171.9,281.2 169.7,265.6 171.1,265.6 173.4,281.2 				"/>
				<polygon class="st48" points="170.5,281.2 168.3,265.6 169.7,265.6 171.9,281.2 				"/>
				<polygon class="st49" points="169.1,281.2 166.9,265.6 168.3,265.6 170.5,281.2 				"/>
				<polygon class="st49" points="167.7,281.2 165.4,265.6 166.9,265.6 169.1,281.2 				"/>
				<polygon class="st50" points="166.2,281.2 164.2,267 164.2,265.6 165.4,265.6 167.7,281.2 				"/>
				<polygon class="st51" points="164.8,281.2 164.2,277.1 164.2,267 166.2,281.2 				"/>
				<polygon class="st52" points="164.2,277.1 164.8,281.2 164.2,281.2 				"/>
				<polygon class="st34" points="149.1,291.2 148.5,286.7 149.1,286.7 				"/>
				<polygon class="st35" points="149,300.3 147.1,286.7 148.5,286.7 149.1,291.2 149.1,300.3 				"/>
				<polygon class="st36" points="147.6,300.3 145.7,286.7 147.1,286.7 149,300.3 				"/>
				<polygon class="st37" points="146.2,300.3 144.2,286.7 145.7,286.7 147.6,300.3 				"/>
				<polygon class="st84" points="144.7,300.3 142.8,286.7 144.2,286.7 146.2,300.3 				"/>
				<polygon class="st38" points="143.3,300.3 141.4,286.7 142.8,286.7 144.7,300.3 				"/>
				<polygon class="st38" points="141.9,300.3 140,286.7 141.4,286.7 143.3,300.3 				"/>
				<polygon class="st39" points="140.5,300.3 138.5,286.7 140,286.7 141.9,300.3 				"/>
				<polygon class="st40" points="139,300.3 137.1,286.7 138.5,286.7 140.5,300.3 				"/>
				<polygon class="st41" points="137.6,300.3 136.5,292.4 136.5,286.7 137.1,286.7 139,300.3 				"/>
				<polygon class="st42" points="136.5,292.4 137.6,300.3 136.5,300.3 				"/>
				<polygon class="st49" points="170.1,298.5 168.9,290.3 170.1,290.3 				"/>
				<polygon class="st50" points="169.7,305.4 167.5,290.3 168.9,290.3 170.1,298.5 170.1,305.4 				"/>
				<polygon class="st51" points="168.2,305.4 166.1,290.3 167.5,290.3 169.7,305.4 				"/>
				<polygon class="st52" points="166.8,305.4 164.7,290.3 166.1,290.3 168.2,305.4 				"/>
				<polygon class="st26" points="165.4,305.4 163.2,290.3 164.7,290.3 166.8,305.4 				"/>
				<polygon class="st26" points="164,305.4 161.8,290.3 163.2,290.3 165.4,305.4 				"/>
				<polygon class="st27" points="162.5,305.4 160.4,290.3 161.8,290.3 164,305.4 				"/>
				<polygon class="st28" points="161.1,305.4 159,290.3 160.4,290.3 162.5,305.4 				"/>
				<polygon class="st29" points="159.7,305.4 157.5,290.3 159,290.3 161.1,305.4 				"/>
				<polygon class="st30" points="158.3,305.4 156.5,292.6 156.5,290.3 157.5,290.3 159.7,305.4 				"/>
				<polygon class="st31" points="156.8,305.4 156.5,302.7 156.5,292.6 158.3,305.4 				"/>
				<polygon class="st32" points="156.5,302.7 156.8,305.4 156.5,305.4 				"/>
				<polygon class="st75" points="198.2,275.5 197.7,272.1 198.2,272.1 				"/>
				<polygon class="st75" points="198.2,285.4 196.3,272.1 197.7,272.1 198.2,275.5 198.2,285.4 				"/>
				<polygon class="st75" points="196.7,285.4 194.9,272.1 196.3,272.1 198.2,285.4 				"/>
				<polygon class="st76" points="195.3,285.4 193.4,272.1 194.9,272.1 196.7,285.4 				"/>
				<polygon class="st76" points="193.9,285.4 192,272.1 193.4,272.1 195.3,285.4 				"/>
				<polygon class="st76" points="192.5,285.4 190.6,272.1 192,272.1 193.9,285.4 				"/>
				<polygon class="st77" points="191,285.4 189.2,272.1 190.6,272.1 192.5,285.4 				"/>
				<polygon class="st77" points="189.6,285.4 187.7,272.1 189.2,272.1 191,285.4 				"/>
				<polygon class="st65" points="188.2,285.4 186.3,272.1 187.7,272.1 189.6,285.4 				"/>
				<polygon class="st65" points="186.8,285.4 186.3,282 186.3,272.1 186.3,272.1 188.2,285.4 				"/>
				<polygon class="st65" points="186.3,282 186.8,285.4 186.3,285.4 				"/>
				<polygon class="st78" points="210.9,254.5 210.8,254.2 210.9,254.2 				"/>
				<polygon class="st79" points="210.9,264.5 209.4,254.2 210.8,254.2 210.9,254.5 				"/>
				<polygon class="st79" points="209.8,266.8 208,254.2 209.4,254.2 210.9,264.5 210.9,266.8 				"/>
				<polygon class="st80" points="208.3,266.8 206.6,254.2 208,254.2 209.8,266.8 				"/>
				<polygon class="st80" points="206.9,266.8 205.1,254.2 206.6,254.2 208.3,266.8 				"/>
				<polygon class="st80" points="205.5,266.8 203.7,254.2 205.1,254.2 206.9,266.8 				"/>
				<polygon class="st81" points="204.1,266.8 202.3,254.2 203.7,254.2 205.5,266.8 				"/>
				<polygon class="st81" points="202.6,266.8 200.9,254.2 202.3,254.2 204.1,266.8 				"/>
				<polygon class="st74" points="201.2,266.8 199.6,255.6 199.6,254.2 200.9,254.2 202.6,266.8 				"/>
				<polygon class="st74" points="199.8,266.8 199.6,265.7 199.6,255.6 201.2,266.8 				"/>
				<polygon class="st74" points="199.6,265.7 199.8,266.8 199.6,266.8 				"/>
				<polygon class="st38" points="146.6,323.4 145.7,317 146.6,317 				"/>
				<polygon class="st38" points="145.8,328.2 144.2,317 145.7,317 146.6,323.4 146.6,328.2 				"/>
				<polygon class="st39" points="144.4,328.2 142.8,317 144.2,317 145.8,328.2 				"/>
				<polygon class="st40" points="143,328.2 141.4,317 142.8,317 144.4,328.2 				"/>
				<polygon class="st41" points="141.6,328.2 140,317 141.4,317 143,328.2 				"/>
				<polygon class="st42" points="140.1,328.2 138.6,317 140,317 141.6,328.2 				"/>
				<polygon class="st43" points="138.7,328.2 137.1,317 138.6,317 140.1,328.2 				"/>
				<polygon class="st43" points="137.3,328.2 136.1,319.6 136.1,317 137.1,317 138.7,328.2 				"/>
				<polygon class="st44" points="136.1,319.6 137.3,328.2 136.1,328.2 				"/>
				<polygon class="st38" points="150.2,349 150,347.2 150.2,347.2 				"/>
				<polygon class="st38" points="149.7,355.3 148.5,347.2 150,347.2 150.2,349 150.2,355.3 				"/>
				<polygon class="st39" points="148.3,355.3 147.1,347.2 148.5,347.2 149.7,355.3 				"/>
				<polygon class="st40" points="146.8,355.3 145.7,347.2 147.1,347.2 148.3,355.3 				"/>
				<polygon class="st41" points="145.4,355.3 144.3,347.2 145.7,347.2 146.8,355.3 				"/>
				<polygon class="st42" points="144,355.3 142.8,347.2 144.3,347.2 145.4,355.3 				"/>
				<polygon class="st43" points="142.8,347.2 144,355.3 142.6,355.3 142.6,347.2 				"/>
				<polygon class="st65" points="197.8,362.9 197.5,361.4 197.8,361.4 				"/>
				<polygon class="st65" points="197.8,372.9 196.1,361.4 197.5,361.4 197.8,362.9 				"/>
				<polygon class="st66" points="196.4,373.6 194.7,361.4 196.1,361.4 197.8,372.9 197.8,373.6 				"/>
				<polygon class="st66" points="195,373.6 193.3,361.4 194.7,361.4 196.4,373.6 				"/>
				<polygon class="st66" points="193.6,373.6 191.8,361.4 193.3,361.4 195,373.6 				"/>
				<polygon class="st46" points="192.1,373.6 190.4,361.4 191.8,361.4 193.6,373.6 				"/>
				<polygon class="st46" points="190.7,373.6 189,361.4 190.4,361.4 192.1,373.6 				"/>
				<polygon class="st47" points="189.3,373.6 187.6,361.4 189,361.4 190.7,373.6 				"/>
				<polygon class="st47" points="187.9,373.6 186.8,366.2 186.8,361.4 187.6,361.4 189.3,373.6 				"/>
				<polygon class="st48" points="186.8,366.2 187.9,373.6 186.8,373.6 				"/>
				<polygon class="st24" points="268.1,236.3 267.1,228.9 268.4,228.9 268.4,236.3 				"/>
				<polygon class="st53" points="266.7,236.3 265.6,228.9 267.1,228.9 268.1,236.3 				"/>
				<polygon class="st53" points="265.2,236.3 264.2,228.9 265.6,228.9 266.7,236.3 				"/>
				<polygon class="st53" points="263.8,236.3 262.8,228.9 264.2,228.9 265.2,236.3 				"/>
				<polygon class="st54" points="262.4,236.3 261.7,231.5 261.7,228.9 262.8,228.9 263.8,236.3 				"/>
				<polygon class="st54" points="261.7,231.5 262.4,236.3 261.7,236.3 				"/>
				<polygon class="st66" points="187.4,320.1 186.8,315.9 187.4,315.9 				"/>
				<polygon class="st66" points="187.3,329.3 185.4,315.9 186.8,315.9 187.4,320.1 187.4,329.3 				"/>
				<polygon class="st46" points="185.9,329.3 184,315.9 185.4,315.9 187.3,329.3 				"/>
				<polygon class="st46" points="184.4,329.3 182.5,315.9 184,315.9 185.9,329.3 				"/>
				<polygon class="st47" points="183,329.3 181.1,315.9 182.5,315.9 184.4,329.3 				"/>
				<polygon class="st47" points="181.6,329.3 179.7,315.9 181.1,315.9 183,329.3 				"/>
				<polygon class="st48" points="180.2,329.3 178.3,315.9 179.7,315.9 181.6,329.3 				"/>
				<polygon class="st48" points="178.8,329.3 176.8,315.9 178.3,315.9 180.2,329.3 				"/>
				<polygon class="st48" points="177.3,329.3 175.4,315.9 176.8,315.9 178.8,329.3 				"/>
				<polygon class="st49" points="175.9,329.3 175.4,325.4 175.4,315.9 175.4,315.9 177.3,329.3 				"/>
				<polygon class="st49" points="175.4,325.4 175.9,329.3 175.4,329.3 				"/>
				<polygon class="st65" points="190.2,299.6 189.3,293.1 190.2,293.1 				"/>
				<polygon class="st65" points="189.8,306.6 187.9,293.1 189.3,293.1 190.2,299.6 190.2,306.6 				"/>
				<polygon class="st65" points="188.4,306.6 186.4,293.1 187.9,293.1 189.8,306.6 				"/>
				<polygon class="st66" points="186.9,306.6 185,293.1 186.4,293.1 188.4,306.6 				"/>
				<polygon class="st66" points="185.5,306.6 183.6,293.1 185,293.1 186.9,306.6 				"/>
				<polygon class="st66" points="184.1,306.6 182.2,293.1 183.6,293.1 185.5,306.6 				"/>
				<polygon class="st46" points="182.7,306.6 180.7,293.1 182.2,293.1 184.1,306.6 				"/>
				<polygon class="st46" points="181.2,306.6 179.3,293.1 180.7,293.1 182.7,306.6 				"/>
				<polygon class="st47" points="179.8,306.6 178.1,294.4 178.1,293.1 179.3,293.1 181.2,306.6 				"/>
				<polygon class="st47" points="178.4,306.6 178.1,304.4 178.1,294.4 179.8,306.6 				"/>
				<polygon class="st48" points="178.1,304.4 178.4,306.6 178.1,306.6 				"/>
				<polygon class="st82" points="245.5,418.7 244.6,412.3 245.9,412.3 245.9,418.7 				"/>
				<polygon class="st82" points="244.1,418.7 243.2,412.3 244.6,412.3 245.5,418.7 				"/>
				<polygon class="st82" points="242.7,418.7 241.8,412.3 243.2,412.3 244.1,418.7 				"/>
				<polygon class="st83" points="241.3,418.7 240.4,412.3 241.8,412.3 242.7,418.7 				"/>
				<polygon class="st83" points="240.4,412.3 241.3,418.7 240,418.7 240,412.3 				"/>
				<polygon class="st76" points="210.9,415.4 210.4,411.9 211,411.9 211,415.4 				"/>
				<polygon class="st77" points="209.5,415.4 209,411.9 210.4,411.9 210.9,415.4 				"/>
				<polygon class="st77" points="208,415.4 207.8,413.3 207.8,411.9 209,411.9 209.5,415.4 				"/>
				<polygon class="st65" points="207.8,413.3 208,415.4 207.8,415.4 				"/>
				<polygon class="st80" points="226.6,405.6 225.6,398.9 226.6,398.9 				"/>
				<polygon class="st80" points="225.5,407.9 224.2,398.9 225.6,398.9 226.6,405.6 226.6,407.9 				"/>
				<polygon class="st81" points="224.1,407.9 222.8,398.9 224.2,398.9 225.5,407.9 				"/>
				<polygon class="st81" points="222.6,407.9 221.4,398.9 222.8,398.9 224.1,407.9 				"/>
				<polygon class="st74" points="221.2,407.9 220,398.9 221.4,398.9 222.6,407.9 				"/>
				<polygon class="st74" points="219.8,407.9 218.5,398.9 220,398.9 221.2,407.9 				"/>
				<polygon class="st74" points="218.5,398.9 219.8,407.9 218.5,407.9 218.5,398.9 				"/>
				<polygon class="st22" points="269.4,185.5 269.4,185.3 269.4,185.3 				"/>
				<polygon class="st23" points="269.4,195.6 268,185.3 269.4,185.3 269.4,185.5 				"/>
				<polygon class="st23" points="268.8,200.9 266.6,185.3 268,185.3 269.4,195.6 269.4,200.9 				"/>
				<polygon class="st23" points="267.4,200.9 265.1,185.3 266.6,185.3 268.8,200.9 				"/>
				<polygon class="st24" points="265.9,200.9 263.7,185.3 265.1,185.3 267.4,200.9 				"/>
				<polygon class="st24" points="264.5,200.9 262.3,185.3 263.7,185.3 265.9,200.9 				"/>
				<polygon class="st24" points="263.1,200.9 260.9,185.3 262.3,185.3 264.5,200.9 				"/>
				<polygon class="st53" points="261.7,200.9 259.4,185.3 260.9,185.3 263.1,200.9 				"/>
				<polygon class="st53" points="260.2,200.9 258,185.3 259.4,185.3 261.7,200.9 				"/>
				<polygon class="st53" points="258.8,200.9 256.6,185.3 258,185.3 260.2,200.9 				"/>
				<polygon class="st54" points="257.4,200.9 255.2,185.3 256.6,185.3 258.8,200.9 				"/>
				<polygon class="st54" points="256,200.9 254.9,193.7 254.9,185.3 255.2,185.3 257.4,200.9 				"/>
				<polygon class="st54" points="254.9,193.7 256,200.9 254.9,200.9 				"/>
				<polygon class="st72" points="247.1,238.7 246.1,231.8 247.1,231.8 				"/>
				<polygon class="st72" points="246,241.4 244.7,231.8 246.1,231.8 247.1,238.7 247.1,241.4 				"/>
				<polygon class="st73" points="244.6,241.4 243.2,231.8 244.7,231.8 246,241.4 				"/>
				<polygon class="st73" points="243.2,241.4 241.8,231.8 243.2,231.8 244.6,241.4 				"/>
				<polygon class="st67" points="241.8,241.4 240.4,231.8 241.8,231.8 243.2,241.4 				"/>
				<polygon class="st67" points="240.3,241.4 239,231.8 240.4,231.8 241.8,241.4 				"/>
				<polygon class="st67" points="238.9,241.4 238.4,237.8 238.4,231.8 239,231.8 240.3,241.4 				"/>
				<polygon class="st67" points="238.4,237.8 238.9,241.4 238.4,241.4 				"/>
				<polygon class="st67" points="266.3,424.5 265.9,421.5 266.7,421.5 266.7,424.5 				"/>
				<polygon class="st67" points="264.9,424.5 264.5,421.5 265.9,421.5 266.3,424.5 				"/>
				<polygon class="st67" points="264.5,421.5 264.9,424.5 263.8,424.5 263.8,421.5 				"/>
				<polygon class="st26" points="167.7,321.7 167,316.6 167.7,316.6 				"/>
				<polygon class="st26" points="167.6,330.7 165.6,316.6 167,316.6 167.7,321.7 167.7,330.7 				"/>
				<polygon class="st27" points="166.1,330.7 164.1,316.6 165.6,316.6 167.6,330.7 				"/>
				<polygon class="st28" points="164.7,330.7 162.7,316.6 164.1,316.6 166.1,330.7 				"/>
				<polygon class="st29" points="163.3,330.7 161.3,316.6 162.7,316.6 164.7,330.7 				"/>
				<polygon class="st30" points="161.9,330.7 159.9,316.6 161.3,316.6 163.3,330.7 				"/>
				<polygon class="st31" points="160.4,330.7 158.4,316.6 159.9,316.6 161.9,330.7 				"/>
				<polygon class="st32" points="159,330.7 157,316.6 158.4,316.6 160.4,330.7 				"/>
				<polygon class="st33" points="157.6,330.7 155.6,316.6 157,316.6 159,330.7 				"/>
				<polygon class="st34" points="156.2,330.7 154.9,321.9 154.9,316.6 155.6,316.6 157.6,330.7 				"/>
				<polygon class="st34" points="154.9,321.9 156.2,330.7 154.9,330.7 				"/>
				<polygon class="st26" points="171.1,345.8 170.8,343.2 171.1,343.2 				"/>
				<polygon class="st26" points="171.1,355.8 169.3,343.2 170.8,343.2 171.1,345.8 171.1,355.8 				"/>
				<polygon class="st27" points="169.7,355.8 167.9,343.2 169.3,343.2 171.1,355.8 				"/>
				<polygon class="st28" points="168.3,355.8 166.5,343.2 167.9,343.2 169.7,355.8 				"/>
				<polygon class="st29" points="166.8,355.8 165.1,343.2 166.5,343.2 168.3,355.8 				"/>
				<polygon class="st30" points="165.4,355.8 163.6,343.2 165.1,343.2 166.8,355.8 				"/>
				<polygon class="st31" points="164,355.8 162.2,343.2 163.6,343.2 165.4,355.8 				"/>
				<polygon class="st32" points="162.6,355.8 160.8,343.2 162.2,343.2 164,355.8 				"/>
				<polygon class="st33" points="161.1,355.8 159.6,345.2 159.6,343.2 160.8,343.2 162.6,355.8 				"/>
				<polygon class="st34" points="159.7,355.8 159.6,355.2 159.6,345.2 161.1,355.8 				"/>
				<polygon class="st34" points="159.6,355.2 159.7,355.8 159.6,355.8 				"/>
				<polygon class="st76" points="210.2,390.6 209,381.6 210.2,381.6 				"/>
				<polygon class="st76" points="209.1,392.5 207.5,381.6 209,381.6 210.2,390.6 210.2,392.5 				"/>
				<polygon class="st76" points="207.7,392.5 206.1,381.6 207.5,381.6 209.1,392.5 				"/>
				<polygon class="st77" points="206.2,392.5 204.7,381.6 206.1,381.6 207.7,392.5 				"/>
				<polygon class="st77" points="204.8,392.5 203.3,381.6 204.7,381.6 206.2,392.5 				"/>
				<polygon class="st65" points="203.4,392.5 201.8,381.6 203.3,381.6 204.8,392.5 				"/>
				<polygon class="st65" points="202,392.5 200.5,382.1 200.5,381.6 201.8,381.6 203.4,392.5 				"/>
				<polygon class="st65" points="200.5,392.5 200.5,392.1 200.5,382.1 202,392.5 				"/>
				<polygon class="st66" points="200.5,392.1 200.5,392.5 200.5,392.5 				"/>
				<polygon class="st36" points="158.9,380.1 158.3,376.2 159.3,376.2 159.3,380.1 				"/>
				<polygon class="st37" points="157.5,380.1 156.9,376.2 158.3,376.2 158.9,380.1 				"/>
				<polygon class="st84" points="156,380.1 155.7,377.7 155.7,376.2 156.9,376.2 157.5,380.1 				"/>
				<polygon class="st38" points="155.7,377.7 156,380.1 155.7,380.1 				"/>
				<polygon class="st46" points="193.6,393.7 193.3,392 193.6,392 				"/>
				<polygon class="st47" points="193,399.4 191.9,392 193.3,392 193.6,393.7 193.6,399.4 				"/>
				<polygon class="st47" points="191.5,399.4 190.5,392 191.9,392 193,399.4 				"/>
				<polygon class="st48" points="190.1,399.4 189.1,392 190.5,392 191.5,399.4 				"/>
				<polygon class="st48" points="188.7,399.4 187.6,392 189.1,392 190.1,399.4 				"/>
				<polygon class="st48" points="187.3,399.4 186.7,395.5 186.7,392 187.6,392 188.7,399.4 				"/>
				<polygon class="st49" points="186.7,395.5 187.3,399.4 186.7,399.4 				"/>
				<polygon class="st66" points="190,348.3 188.7,339 190,339 				"/>
				<polygon class="st46" points="189.1,352.1 187.3,339 188.7,339 190,348.3 190,352.1 				"/>
				<polygon class="st46" points="187.7,352.1 185.8,339 187.3,339 189.1,352.1 				"/>
				<polygon class="st47" points="186.3,352.1 184.4,339 185.8,339 187.7,352.1 				"/>
				<polygon class="st47" points="184.8,352.1 183,339 184.4,339 186.3,352.1 				"/>
				<polygon class="st48" points="183.4,352.1 181.6,339 183,339 184.8,352.1 				"/>
				<polygon class="st48" points="182,352.1 180.1,339 181.6,339 183.4,352.1 				"/>
				<polygon class="st48" points="180.6,352.1 178.7,339 180.1,339 182,352.1 				"/>
				<polygon class="st49" points="179.1,352.1 178.3,346.1 178.3,339 178.7,339 180.6,352.1 				"/>
				<polygon class="st49" points="178.3,346.1 179.1,352.1 178.3,352.1 				"/>
				<polygon class="st50" points="179.9,377.7 178.7,368.8 179.9,368.8 				"/>
				<polygon class="st51" points="178.7,379.1 177.2,368.8 178.7,368.8 179.9,377.7 179.9,379.1 				"/>
				<polygon class="st52" points="177.3,379.1 175.8,368.8 177.2,368.8 178.7,379.1 				"/>
				<polygon class="st26" points="175.8,379.1 174.4,368.8 175.8,368.8 177.3,379.1 				"/>
				<polygon class="st26" points="174.4,379.1 173,368.8 174.4,368.8 175.8,379.1 				"/>
				<polygon class="st27" points="173,379.1 171.5,368.8 173,368.8 174.4,379.1 				"/>
				<polygon class="st28" points="171.6,379.1 170.4,371 170.4,368.8 171.5,368.8 173,379.1 				"/>
				<polygon class="st29" points="170.4,371 171.6,379.1 170.4,379.1 				"/>
			</g>
		</g>
	</g>
	<g>
		<g>
			<path class="st2" d="M287.1,396.4c-6.3,0-10.8-3.5-10.9-8.7h4.4c0.3,2.6,2.1,5.2,6.5,5.2c4,0,6.3-2.3,6.3-5.2
				c0-8.5-17-3.1-17-14.8c0-5.2,4.2-8.7,10.4-8.7c6,0,9.9,3.3,10.4,8.1h-4.5c-0.3-2.1-2.3-4.5-6.1-4.6c-3.4-0.1-6.1,1.7-6.1,5.1
				c0,8.1,17,3.1,17,14.7C297.6,392,293.9,396.4,287.1,396.4z"/>
			<path class="st2" d="M307,364.6h21.3v3.3h-8.6v28.2h-4.1V368H307V364.6z"/>
			<path class="st2" d="M357.3,389.1h-13.7l-2.5,7h-4.3l11.4-31.3h4.7l11.3,31.3h-4.3L357.3,389.1z M350.5,369.9l-5.7,15.9h11.4
				L350.5,369.9z"/>
			<path class="st2" d="M384.6,364.6c7.4,0,10.9,4.1,10.9,9.3c0,4-2.2,7.9-7.5,9l7.9,13.2h-4.9l-7.5-12.9h-5v12.9h-4.1v-31.5H384.6z
				 M384.6,368h-6.1v11.9h6.1c4.7,0,6.7-2.5,6.7-6.1C391.3,370.3,389.3,368,384.6,368z"/>
			<path class="st2" d="M405.3,364.6h21.3v3.3h-8.6v28.2h-4.1V368h-8.6V364.6z"/>
			<path class="st2" d="M436.9,364.6h4.1v19.9c0,5.8,3.1,8.3,7.8,8.3s7.7-2.5,7.7-8.3v-19.9h4.1v19.9c0,8.2-5.4,11.9-11.9,11.9
				c-6.5,0-11.8-3.8-11.8-11.9V364.6z"/>
			<path class="st2" d="M483,383h-6.1v13.2h-4.1v-31.5H483c7.4,0,10.9,4.1,10.9,9.2C493.9,378.6,490.8,383,483,383z M483,379.6
				c4.7,0,6.7-2.2,6.7-5.7c0-3.7-2-5.8-6.7-5.8h-6.1v11.6H483z"/>
			<path class="st2" d="M531.6,396.4c-6.3,0-10.8-3.5-10.9-8.7h4.4c0.3,2.6,2.1,5.2,6.5,5.2c4,0,6.3-2.3,6.3-5.2
				c0-8.5-17-3.1-17-14.8c0-5.2,4.2-8.7,10.4-8.7c6,0,9.9,3.3,10.4,8.1h-4.5c-0.3-2.1-2.3-4.5-6.1-4.6c-3.4-0.1-6.1,1.7-6.1,5.1
				c0,8.1,17,3.1,17,14.7C542.1,392,538.5,396.4,531.6,396.4z"/>
			<path class="st2" d="M553.4,364.6h4.1v19.9c0,5.8,3.1,8.3,7.8,8.3c4.7,0,7.7-2.5,7.7-8.3v-19.9h4.1v19.9
				c0,8.2-5.4,11.9-11.9,11.9c-6.5,0-11.8-3.8-11.8-11.9V364.6z"/>
			<path class="st2" d="M589.3,364.8h4.4l11.6,25.9l11.6-25.9h4.4v31.3h-4.1v-23.3l-10.4,23.3h-2.9l-10.4-23.4v23.4h-4.1V364.8z"/>
			<path class="st2" d="M633.5,364.8h4.4l11.6,25.9l11.6-25.9h4.4v31.3h-4.1v-23.3L651,396.1h-2.9l-10.4-23.4v23.4h-4.1V364.8z"/>
			<path class="st2" d="M677.7,364.6h4.1v31.5h-4.1V364.6z"/>
			<path class="st2" d="M692.2,364.6h21.3v3.3H705v28.2h-4.1V368h-8.6V364.6z"/>
		</g>
		<g>
			<path class="st2" d="M350.6,315.7c0,24.4-16.9,41.2-43.1,41.2h-30.8v-82.3h30.8C333.7,274.5,350.6,291.2,350.6,315.7z
				 M306.1,339.5c15.1,0,24-8.7,24-23.8s-8.9-24-24-24h-9.5v47.8H306.1z"/>
			<path class="st2" d="M361.8,274.5h20.1v82.3h-20.1V274.5z"/>
			<path class="st2" d="M473.2,300.6H451c-3-5.5-8.7-8.4-16.2-8.4c-12.9,0-21.5,9.1-21.5,23.5c0,15.2,8.7,24.2,23.1,24.2
				c10,0,16.9-5.3,19.9-14.5H431v-14.8h43.6v18.6c-4.2,14.2-17.9,28.4-39.6,28.4c-24.6,0-42-17.2-42-41.9s17.2-42,41.9-42
				C454.5,273.6,468.9,283.7,473.2,300.6z"/>
			<path class="st2" d="M485.7,274.5h20.1v82.3h-20.1V274.5z"/>
			<path class="st2" d="M515.9,274.5h63.7v16.1h-21.8v66.2h-20.1v-66.2h-21.8V274.5z"/>
			<path class="st2" d="M640.8,342.3h-30.7l-4.9,14.5h-21l29.8-82.3h23.2l29.8,82.3h-21.2L640.8,342.3z M625.5,296.7l-10.1,30.1
				h20.3L625.5,296.7z"/>
			<path class="st2" d="M696.1,274.5v66.8h26.3v15.5H676v-82.3H696.1z"/>
		</g>
		<g>
			<rect x="276.6" y="403.3" class="st85" width="250.9" height="32.9"/>
		</g>
		<g>
			<path class="st1" d="M295.8,428.7c5.3-4.4,11-8.7,11-12.9c0-1.8-0.8-3-2.6-3c-1.7,0-2.8,1.4-2.8,3.7h-5.7
				c0.2-6.1,4.1-8.7,8.7-8.7c5.7,0,8.2,3.3,8.2,7.5c0,5.5-4.9,9.9-8.9,12.9h9.2v4.8h-17.2V428.7z"/>
			<path class="st1" d="M369.7,407.9c7.1,0,9.6,5.3,9.6,12.7c0,7.4-2.5,12.7-9.6,12.7s-9.6-5.3-9.6-12.7
				C360,413.3,362.5,407.9,369.7,407.9z M369.7,413.4c-3.5,0-3.9,3.4-3.9,7.2c0,4,0.4,7.3,3.9,7.3c3.5,0,3.9-3.3,3.9-7.3
				C373.5,416.8,373.1,413.4,369.7,413.4z"/>
			<path class="st1" d="M426.7,428.7c5.3-4.4,11-8.7,11-12.9c0-1.8-0.8-3-2.6-3c-1.7,0-2.8,1.4-2.8,3.7h-5.6
				c0.2-6.1,4.1-8.7,8.7-8.7c5.7,0,8.2,3.3,8.2,7.5c0,5.5-4.9,9.9-8.9,12.9h9.2v4.8h-17.2V428.7z"/>
			<path class="st1" d="M499.7,407.8c5.3,0,8.1,3,8.1,6.8c0,3.3-2.1,5-3.8,5.6v0.1c2.5,0.8,4.2,2.7,4.2,6c0,4.2-3,7.2-8.3,7.2
				c-5.2,0-9-2.5-9.1-8.1h5.7c0,2,1.1,3.3,3.3,3.3c1.8,0,2.8-1.2,2.8-2.8c0-2.2-1.3-3.1-4.4-3.1h-1.1v-4.8h1.1c2,0,3.9-0.5,3.9-2.7
				c0-1.7-1-2.6-2.6-2.6c-1.9,0-2.6,1.4-2.7,2.7h-5.7C491.4,410.6,494.6,407.8,499.7,407.8z"/>
		</g>
	</g>
</g>
</svg>
